%TF.GenerationSoftware,KiCad,Pcbnew,7.0.8*%
%TF.CreationDate,2023-10-14T11:25:40+01:00*%
%TF.ProjectId,v0a,7630612e-6b69-4636-9164-5f7063625858,rev?*%
%TF.SameCoordinates,Original*%
%TF.FileFunction,Soldermask,Top*%
%TF.FilePolarity,Negative*%
%FSLAX46Y46*%
G04 Gerber Fmt 4.6, Leading zero omitted, Abs format (unit mm)*
G04 Created by KiCad (PCBNEW 7.0.8) date 2023-10-14 11:25:40*
%MOMM*%
%LPD*%
G01*
G04 APERTURE LIST*
G04 Aperture macros list*
%AMRoundRect*
0 Rectangle with rounded corners*
0 $1 Rounding radius*
0 $2 $3 $4 $5 $6 $7 $8 $9 X,Y pos of 4 corners*
0 Add a 4 corners polygon primitive as box body*
4,1,4,$2,$3,$4,$5,$6,$7,$8,$9,$2,$3,0*
0 Add four circle primitives for the rounded corners*
1,1,$1+$1,$2,$3*
1,1,$1+$1,$4,$5*
1,1,$1+$1,$6,$7*
1,1,$1+$1,$8,$9*
0 Add four rect primitives between the rounded corners*
20,1,$1+$1,$2,$3,$4,$5,0*
20,1,$1+$1,$4,$5,$6,$7,0*
20,1,$1+$1,$6,$7,$8,$9,0*
20,1,$1+$1,$8,$9,$2,$3,0*%
G04 Aperture macros list end*
%ADD10C,0.100000*%
%ADD11C,5.000000*%
%ADD12R,2.400000X1.600000*%
%ADD13O,2.400000X1.600000*%
%ADD14R,1.600000X2.400000*%
%ADD15O,1.600000X2.400000*%
%ADD16RoundRect,0.150000X-0.150000X-0.812500X0.150000X-0.812500X0.150000X0.812500X-0.150000X0.812500X0*%
%ADD17RoundRect,0.150000X-0.812500X-0.150000X0.812500X-0.150000X0.812500X0.150000X-0.812500X0.150000X0*%
%ADD18RoundRect,0.151250X-0.811250X-0.151250X0.811250X-0.151250X0.811250X0.151250X-0.811250X0.151250X0*%
%ADD19C,1.600000*%
%ADD20R,1.600000X1.600000*%
%ADD21O,1.600000X1.600000*%
%ADD22C,1.400000*%
%ADD23O,1.400000X1.400000*%
%ADD24RoundRect,0.444500X-0.444500X-4.127500X0.444500X-4.127500X0.444500X4.127500X-0.444500X4.127500X0*%
G04 APERTURE END LIST*
D10*
%TO.C,J1*%
X94488000Y-79629000D02*
X160528000Y-79629000D01*
X160528000Y-79629000D02*
X160528000Y-89154000D01*
X160528000Y-89154000D02*
X94488000Y-89154000D01*
X94488000Y-89154000D02*
X94488000Y-79629000D01*
G36*
X94488000Y-79629000D02*
G01*
X160528000Y-79629000D01*
X160528000Y-89154000D01*
X94488000Y-89154000D01*
X94488000Y-79629000D01*
G37*
%TD*%
D11*
%TO.C,H2*%
X156000000Y-52350000D03*
%TD*%
%TO.C,H1*%
X99000000Y-62350000D03*
%TD*%
D12*
%TO.C,U2*%
X115545000Y-71737000D03*
D13*
X115545000Y-69197000D03*
X115545000Y-66657000D03*
X115545000Y-64117000D03*
X115545000Y-61577000D03*
X115545000Y-59037000D03*
X115545000Y-56497000D03*
X115545000Y-53957000D03*
X115545000Y-51417000D03*
X115545000Y-48877000D03*
X107925000Y-48877000D03*
X107925000Y-51417000D03*
X107925000Y-53957000D03*
X107925000Y-56497000D03*
X107925000Y-59037000D03*
X107925000Y-61577000D03*
X107925000Y-64117000D03*
X107925000Y-66657000D03*
X107925000Y-69197000D03*
X107925000Y-71737000D03*
%TD*%
D14*
%TO.C,U3*%
X138405000Y-36431000D03*
D15*
X135865000Y-36431000D03*
X133325000Y-36431000D03*
X130785000Y-36431000D03*
X128245000Y-36431000D03*
X125705000Y-36431000D03*
X123165000Y-36431000D03*
X120625000Y-36431000D03*
X118085000Y-36431000D03*
X115545000Y-36431000D03*
X115545000Y-44051000D03*
X118085000Y-44051000D03*
X120625000Y-44051000D03*
X123165000Y-44051000D03*
X125705000Y-44051000D03*
X128245000Y-44051000D03*
X130785000Y-44051000D03*
X133325000Y-44051000D03*
X135865000Y-44051000D03*
X138405000Y-44051000D03*
%TD*%
D16*
%TO.C,U4*%
X126975000Y-52932500D03*
X125705000Y-52932500D03*
X124435000Y-52932500D03*
X123165000Y-52932500D03*
D17*
X121637500Y-54465000D03*
X121637500Y-55735000D03*
X121637500Y-57005000D03*
X121637500Y-58275000D03*
X121637500Y-59545000D03*
X121637500Y-60815000D03*
X121637500Y-62085000D03*
X121637500Y-63355000D03*
X121637500Y-64625000D03*
D16*
X123165000Y-66157500D03*
X124435000Y-66157500D03*
X125705000Y-66157500D03*
X126975000Y-66157500D03*
X128245000Y-66157500D03*
X129515000Y-66157500D03*
X130785000Y-66157500D03*
D18*
X132312500Y-64622500D03*
D17*
X132312500Y-63355000D03*
X132312500Y-62085000D03*
X132312500Y-60815000D03*
X132312500Y-59545000D03*
X132312500Y-58275000D03*
X132312500Y-57005000D03*
X132312500Y-55735000D03*
X132312500Y-54465000D03*
D16*
X130785000Y-52932500D03*
X129515000Y-52932500D03*
X128245000Y-52932500D03*
%TD*%
D19*
%TO.C,C4*%
X128340800Y-47802800D03*
X130840800Y-47802800D03*
%TD*%
D20*
%TO.C,RN1*%
X125705000Y-32621000D03*
D21*
X128245000Y-32621000D03*
X130785000Y-32621000D03*
X133325000Y-32621000D03*
X135865000Y-32621000D03*
%TD*%
D22*
%TO.C,R1*%
X142036800Y-41097200D03*
D23*
X147116800Y-41097200D03*
%TD*%
D12*
%TO.C,U1*%
X146025000Y-71610000D03*
D13*
X146025000Y-69070000D03*
X146025000Y-66530000D03*
X146025000Y-63990000D03*
X146025000Y-61450000D03*
X146025000Y-58910000D03*
X146025000Y-56370000D03*
X146025000Y-53830000D03*
X146025000Y-51290000D03*
X146025000Y-48750000D03*
X138405000Y-48750000D03*
X138405000Y-51290000D03*
X138405000Y-53830000D03*
X138405000Y-56370000D03*
X138405000Y-58910000D03*
X138405000Y-61450000D03*
X138405000Y-63990000D03*
X138405000Y-66530000D03*
X138405000Y-69070000D03*
X138405000Y-71610000D03*
%TD*%
D20*
%TO.C,C5*%
X101142800Y-71969513D03*
D19*
X101142800Y-69469513D03*
%TD*%
%TO.C,C3*%
X142056800Y-43942000D03*
X144556800Y-43942000D03*
%TD*%
%TO.C,C2*%
X105181800Y-72072600D03*
X105181800Y-69572600D03*
%TD*%
%TO.C,C1*%
X135646800Y-70916800D03*
X133146800Y-70916800D03*
%TD*%
D24*
%TO.C,J1*%
X97028000Y-83566000D03*
X99568000Y-83566000D03*
X102108000Y-83566000D03*
X104648000Y-83566000D03*
X107188000Y-83566000D03*
X109728000Y-83566000D03*
X112268000Y-83566000D03*
X114808000Y-83566000D03*
X117348000Y-83566000D03*
X119888000Y-83566000D03*
X122428000Y-83566000D03*
X124968000Y-83566000D03*
X127508000Y-83566000D03*
X130048000Y-83566000D03*
X132588000Y-83566000D03*
X135128000Y-83566000D03*
X137668000Y-83566000D03*
X140208000Y-83566000D03*
X142748000Y-83566000D03*
X145288000Y-83566000D03*
X147828000Y-83566000D03*
X150368000Y-83566000D03*
X152908000Y-83566000D03*
X155448000Y-83566000D03*
X157988000Y-83566000D03*
%TD*%
M02*
