%TF.GenerationSoftware,KiCad,Pcbnew,7.0.8*%
%TF.CreationDate,2023-10-14T11:25:39+01:00*%
%TF.ProjectId,v0a,7630612e-6b69-4636-9164-5f7063625858,rev?*%
%TF.SameCoordinates,Original*%
%TF.FileFunction,Copper,L2,Bot*%
%TF.FilePolarity,Positive*%
%FSLAX46Y46*%
G04 Gerber Fmt 4.6, Leading zero omitted, Abs format (unit mm)*
G04 Created by KiCad (PCBNEW 7.0.8) date 2023-10-14 11:25:39*
%MOMM*%
%LPD*%
G01*
G04 APERTURE LIST*
G04 Aperture macros list*
%AMRoundRect*
0 Rectangle with rounded corners*
0 $1 Rounding radius*
0 $2 $3 $4 $5 $6 $7 $8 $9 X,Y pos of 4 corners*
0 Add a 4 corners polygon primitive as box body*
4,1,4,$2,$3,$4,$5,$6,$7,$8,$9,$2,$3,0*
0 Add four circle primitives for the rounded corners*
1,1,$1+$1,$2,$3*
1,1,$1+$1,$4,$5*
1,1,$1+$1,$6,$7*
1,1,$1+$1,$8,$9*
0 Add four rect primitives between the rounded corners*
20,1,$1+$1,$2,$3,$4,$5,0*
20,1,$1+$1,$4,$5,$6,$7,0*
20,1,$1+$1,$6,$7,$8,$9,0*
20,1,$1+$1,$8,$9,$2,$3,0*%
G04 Aperture macros list end*
%TA.AperFunction,ComponentPad*%
%ADD10R,2.400000X1.600000*%
%TD*%
%TA.AperFunction,ComponentPad*%
%ADD11O,2.400000X1.600000*%
%TD*%
%TA.AperFunction,ComponentPad*%
%ADD12R,1.600000X2.400000*%
%TD*%
%TA.AperFunction,ComponentPad*%
%ADD13O,1.600000X2.400000*%
%TD*%
%TA.AperFunction,ComponentPad*%
%ADD14C,1.600000*%
%TD*%
%TA.AperFunction,ComponentPad*%
%ADD15R,1.600000X1.600000*%
%TD*%
%TA.AperFunction,ComponentPad*%
%ADD16O,1.600000X1.600000*%
%TD*%
%TA.AperFunction,ComponentPad*%
%ADD17C,1.400000*%
%TD*%
%TA.AperFunction,ComponentPad*%
%ADD18O,1.400000X1.400000*%
%TD*%
%TA.AperFunction,SMDPad,CuDef*%
%ADD19RoundRect,0.444500X-0.444500X-4.127500X0.444500X-4.127500X0.444500X4.127500X-0.444500X4.127500X0*%
%TD*%
%TA.AperFunction,ViaPad*%
%ADD20C,0.800000*%
%TD*%
%TA.AperFunction,Conductor*%
%ADD21C,0.700000*%
%TD*%
%TA.AperFunction,Conductor*%
%ADD22C,0.250000*%
%TD*%
G04 APERTURE END LIST*
D10*
%TO.P,U2,1,G*%
%TO.N,Net-(U1-P=R)*%
X115545000Y-71737000D03*
D11*
%TO.P,U2,2,P0*%
%TO.N,/A0*%
X115545000Y-69197000D03*
%TO.P,U2,3,R0*%
%TO.N,+5V*%
X115545000Y-66657000D03*
%TO.P,U2,4,P1*%
%TO.N,/A1*%
X115545000Y-64117000D03*
%TO.P,U2,5,R1*%
%TO.N,+5V*%
X115545000Y-61577000D03*
%TO.P,U2,6,P2*%
%TO.N,/A2*%
X115545000Y-59037000D03*
%TO.P,U2,7,R2*%
%TO.N,+5V*%
X115545000Y-56497000D03*
%TO.P,U2,8,P3*%
%TO.N,/A3*%
X115545000Y-53957000D03*
%TO.P,U2,9,R3*%
%TO.N,+5V*%
X115545000Y-51417000D03*
%TO.P,U2,10,GND*%
%TO.N,GND*%
X115545000Y-48877000D03*
%TO.P,U2,11,P4*%
%TO.N,/A7*%
X107925000Y-48877000D03*
%TO.P,U2,12,R4*%
%TO.N,+5V*%
X107925000Y-51417000D03*
%TO.P,U2,13,P5*%
%TO.N,/A6*%
X107925000Y-53957000D03*
%TO.P,U2,14,R5*%
%TO.N,+5V*%
X107925000Y-56497000D03*
%TO.P,U2,15,P6*%
%TO.N,/A5*%
X107925000Y-59037000D03*
%TO.P,U2,16,R6*%
%TO.N,+5V*%
X107925000Y-61577000D03*
%TO.P,U2,17,P7*%
%TO.N,/A4*%
X107925000Y-64117000D03*
%TO.P,U2,18,R7*%
%TO.N,+5V*%
X107925000Y-66657000D03*
%TO.P,U2,19,P=R*%
%TO.N,Net-(U2-P=R)*%
X107925000Y-69197000D03*
%TO.P,U2,20,VCC*%
%TO.N,+5V*%
X107925000Y-71737000D03*
%TD*%
D12*
%TO.P,U3,1,OE*%
%TO.N,/~{M8-B}*%
X138405000Y-36431000D03*
D13*
%TO.P,U3,2,D0*%
%TO.N,/D3*%
X135865000Y-36431000D03*
%TO.P,U3,3,D1*%
%TO.N,/D4*%
X133325000Y-36431000D03*
%TO.P,U3,4,D2*%
%TO.N,/D2*%
X130785000Y-36431000D03*
%TO.P,U3,5,D3*%
%TO.N,/D1*%
X128245000Y-36431000D03*
%TO.P,U3,6,D4*%
%TO.N,/D0*%
X125705000Y-36431000D03*
%TO.P,U3,7,D5*%
%TO.N,GND*%
X123165000Y-36431000D03*
%TO.P,U3,8,D6*%
X120625000Y-36431000D03*
%TO.P,U3,9,D7*%
X118085000Y-36431000D03*
%TO.P,U3,10,GND*%
X115545000Y-36431000D03*
%TO.P,U3,11,Cp*%
%TO.N,Net-(U2-P=R)*%
X115545000Y-44051000D03*
%TO.P,U3,12,Q7*%
%TO.N,unconnected-(U3-Q7-Pad12)*%
X118085000Y-44051000D03*
%TO.P,U3,13,Q6*%
%TO.N,unconnected-(U3-Q6-Pad13)*%
X120625000Y-44051000D03*
%TO.P,U3,14,Q5*%
%TO.N,unconnected-(U3-Q5-Pad14)*%
X123165000Y-44051000D03*
%TO.P,U3,15,Q4*%
%TO.N,/BA0*%
X125705000Y-44051000D03*
%TO.P,U3,16,Q3*%
%TO.N,/BA1*%
X128245000Y-44051000D03*
%TO.P,U3,17,Q2*%
%TO.N,/BA2*%
X130785000Y-44051000D03*
%TO.P,U3,18,Q1*%
%TO.N,/BA4*%
X133325000Y-44051000D03*
%TO.P,U3,19,Q0*%
%TO.N,/BA3*%
X135865000Y-44051000D03*
%TO.P,U3,20,VCC*%
%TO.N,+5V*%
X138405000Y-44051000D03*
%TD*%
D14*
%TO.P,C4,1*%
%TO.N,+5V*%
X128340800Y-47802800D03*
%TO.P,C4,2*%
%TO.N,GND*%
X130840800Y-47802800D03*
%TD*%
D15*
%TO.P,RN1,1,common*%
%TO.N,GND*%
X125705000Y-32621000D03*
D16*
%TO.P,RN1,2,R1*%
%TO.N,/BA1*%
X128245000Y-32621000D03*
%TO.P,RN1,3,R2*%
%TO.N,/BA2*%
X130785000Y-32621000D03*
%TO.P,RN1,4,R3*%
%TO.N,/BA4*%
X133325000Y-32621000D03*
%TO.P,RN1,5,R4*%
%TO.N,/BA3*%
X135865000Y-32621000D03*
%TD*%
D17*
%TO.P,R1,1*%
%TO.N,/BA0*%
X142036800Y-41097200D03*
D18*
%TO.P,R1,2*%
%TO.N,/A14*%
X147116800Y-41097200D03*
%TD*%
D10*
%TO.P,U1,1,G*%
%TO.N,/~{Wr}*%
X146025000Y-71610000D03*
D11*
%TO.P,U1,2,P0*%
%TO.N,/A10*%
X146025000Y-69070000D03*
%TO.P,U1,3,R0*%
%TO.N,+5V*%
X146025000Y-66530000D03*
%TO.P,U1,4,P1*%
%TO.N,/A9*%
X146025000Y-63990000D03*
%TO.P,U1,5,R1*%
%TO.N,+5V*%
X146025000Y-61450000D03*
%TO.P,U1,6,P2*%
%TO.N,/A13*%
X146025000Y-58910000D03*
%TO.P,U1,7,R2*%
%TO.N,+5V*%
X146025000Y-56370000D03*
%TO.P,U1,8,P3*%
%TO.N,/~{MReq}*%
X146025000Y-53830000D03*
%TO.P,U1,9,R3*%
%TO.N,GND*%
X146025000Y-51290000D03*
%TO.P,U1,10,GND*%
X146025000Y-48750000D03*
%TO.P,U1,11,P4*%
%TO.N,/~{MC-F}*%
X138405000Y-48750000D03*
%TO.P,U1,12,R4*%
%TO.N,GND*%
X138405000Y-51290000D03*
%TO.P,U1,13,P5*%
%TO.N,/A12*%
X138405000Y-53830000D03*
%TO.P,U1,14,R5*%
%TO.N,+5V*%
X138405000Y-56370000D03*
%TO.P,U1,15,P6*%
%TO.N,/A8*%
X138405000Y-58910000D03*
%TO.P,U1,16,R6*%
%TO.N,+5V*%
X138405000Y-61450000D03*
%TO.P,U1,17,P7*%
%TO.N,/A11*%
X138405000Y-63990000D03*
%TO.P,U1,18,R7*%
%TO.N,+5V*%
X138405000Y-66530000D03*
%TO.P,U1,19,P=R*%
%TO.N,Net-(U1-P=R)*%
X138405000Y-69070000D03*
%TO.P,U1,20,VCC*%
%TO.N,+5V*%
X138405000Y-71610000D03*
%TD*%
D15*
%TO.P,C5,1*%
%TO.N,+5V*%
X101142800Y-71969513D03*
D14*
%TO.P,C5,2*%
%TO.N,GND*%
X101142800Y-69469513D03*
%TD*%
%TO.P,C3,1*%
%TO.N,+5V*%
X142056800Y-43942000D03*
%TO.P,C3,2*%
%TO.N,GND*%
X144556800Y-43942000D03*
%TD*%
%TO.P,C2,1*%
%TO.N,+5V*%
X105181800Y-72072600D03*
%TO.P,C2,2*%
%TO.N,GND*%
X105181800Y-69572600D03*
%TD*%
%TO.P,C1,1*%
%TO.N,+5V*%
X135646800Y-70916800D03*
%TO.P,C1,2*%
%TO.N,GND*%
X133146800Y-70916800D03*
%TD*%
D19*
%TO.P,J1,49,Pin_49*%
%TO.N,/~{MC-F}*%
X97028000Y-83566000D03*
%TO.P,J1,47,Pin_47*%
%TO.N,/~{Clock}*%
X99568000Y-83566000D03*
%TO.P,J1,45,Pin_45*%
%TO.N,/~{BusAck}*%
X102108000Y-83566000D03*
%TO.P,J1,43,Pin_43*%
%TO.N,/JyDs*%
X104648000Y-83566000D03*
%TO.P,J1,41,Pin_41*%
%TO.N,/~{Wait}*%
X107188000Y-83566000D03*
%TO.P,J1,39,Pin_39*%
%TO.N,/~{Refresh}*%
X109728000Y-83566000D03*
%TO.P,J1,37,Pin_37*%
%TO.N,/~{M1}*%
X112268000Y-83566000D03*
%TO.P,J1,35,Pin_35*%
%TO.N,+5V*%
X114808000Y-83566000D03*
%TO.P,J1,33,Pin_33*%
%TO.N,/A12*%
X117348000Y-83566000D03*
%TO.P,J1,31,Pin_31*%
%TO.N,/A6*%
X119888000Y-83566000D03*
%TO.P,J1,29,Pin_29*%
%TO.N,/A4*%
X122428000Y-83566000D03*
%TO.P,J1,27,Pin_27*%
%TO.N,/A2*%
X124968000Y-83566000D03*
%TO.P,J1,25,Pin_25*%
%TO.N,/A0*%
X127508000Y-83566000D03*
%TO.P,J1,23,Pin_23*%
%TO.N,/D1*%
X130048000Y-83566000D03*
%TO.P,J1,21,Pin_21*%
%TO.N,GND*%
X132588000Y-83566000D03*
%TO.P,J1,19,Pin_19*%
X135128000Y-83566000D03*
%TO.P,J1,17,Pin_17*%
%TO.N,/D4*%
X137668000Y-83566000D03*
%TO.P,J1,15,Pin_15*%
%TO.N,/D6*%
X140208000Y-83566000D03*
%TO.P,J1,13,Pin_13*%
%TO.N,/~{CE}*%
X142748000Y-83566000D03*
%TO.P,J1,11,Pin_11*%
%TO.N,/~{M0-7}*%
X145288000Y-83566000D03*
%TO.P,J1,9,Pin_9*%
%TO.N,/A9*%
X147828000Y-83566000D03*
%TO.P,J1,7,Pin_7*%
%TO.N,/A13*%
X150368000Y-83566000D03*
%TO.P,J1,5,Pin_5*%
%TO.N,/~{M8-B}*%
X152908000Y-83566000D03*
%TO.P,J1,3,Pin_3*%
%TO.N,/~{MReq}*%
X155448000Y-83566000D03*
%TO.P,J1,1,Pin_1*%
%TO.N,+5V*%
X157988000Y-83566000D03*
%TD*%
D20*
%TO.N,GND*%
X105714800Y-74625200D03*
X101346000Y-77216000D03*
X126142799Y-70145400D03*
X125603400Y-64218600D03*
X122682000Y-73660000D03*
X117856000Y-72390000D03*
%TO.N,/BA1*%
X122911000Y-46083000D03*
%TO.N,/BA2*%
X125625500Y-46337000D03*
%TO.N,/BA4*%
X127229000Y-54973000D03*
X130277000Y-50871500D03*
%TO.N,/~{Wr}*%
X152808500Y-72245000D03*
%TO.N,/A0*%
X128499000Y-77325000D03*
%TO.N,+5V*%
X128346600Y-49385000D03*
%TO.N,/A1*%
X113811635Y-69622134D03*
%TO.N,/A2*%
X113745498Y-70967600D03*
X124943000Y-77579000D03*
%TO.N,/A3*%
X119481600Y-59465500D03*
X114096800Y-67818000D03*
%TO.N,/A4*%
X122919952Y-78078048D03*
X111893500Y-68275200D03*
X114021000Y-58021000D03*
%TO.N,/A5*%
X111103500Y-55858500D03*
X109957000Y-63392500D03*
X110953697Y-65987099D03*
%TO.N,/A6*%
X109982000Y-67310000D03*
X119105299Y-76313299D03*
X106401000Y-65133000D03*
%TO.N,/A7*%
X106502600Y-67876200D03*
X109957000Y-71991000D03*
%TO.N,/A9*%
X149168500Y-77071000D03*
%TO.N,/A12*%
X137033400Y-52890200D03*
X120954800Y-71374000D03*
X133037000Y-52941000D03*
X124693299Y-69700701D03*
X119735600Y-73298500D03*
X123041965Y-55074704D03*
X124943000Y-59037000D03*
%TO.N,/A13*%
X150851000Y-76563000D03*
%TO.N,/A14*%
X155931000Y-74277000D03*
X153632500Y-77325000D03*
%TO.N,/~{M8-B}*%
X140970000Y-38100000D03*
X155249099Y-72614301D03*
%TO.N,/D1*%
X130772500Y-77851000D03*
%TO.N,/D3*%
X129540000Y-40005000D03*
%TO.N,/D4*%
X137464800Y-77393800D03*
%TO.N,/BA0*%
X137160000Y-42019000D03*
%TO.N,/D6*%
X140639800Y-77419200D03*
%TO.N,/~{CE}*%
X140691000Y-73007000D03*
%TO.N,/~{Rd}*%
X151359000Y-68943000D03*
X147295000Y-67927000D03*
%TO.N,/~{MReq}*%
X156172500Y-77579000D03*
%TO.N,/~{MC-F}*%
X98527000Y-77579000D03*
X103861000Y-61323000D03*
%TD*%
D21*
%TO.N,GND*%
X121948097Y-73710800D02*
X120585797Y-72348500D01*
X103831800Y-70922600D02*
X105181800Y-69572600D01*
X146025000Y-45410200D02*
X144556800Y-43942000D01*
X125705000Y-32621000D02*
X127055000Y-31271000D01*
X144556800Y-43942000D02*
X144556800Y-37175296D01*
X146025000Y-48750000D02*
X146025000Y-51290000D01*
X117856000Y-72339200D02*
X117856000Y-72390000D01*
X125603400Y-61718103D02*
X136031503Y-51290000D01*
X126914199Y-70916800D02*
X126142799Y-70145400D01*
X114621400Y-37354600D02*
X115545000Y-36431000D01*
X117856000Y-72390000D02*
X117805200Y-72390000D01*
X122682000Y-73660000D02*
X122631200Y-73660000D01*
X117805200Y-72390000D02*
X115214400Y-74980800D01*
X131640799Y-47002801D02*
X139052401Y-47002801D01*
X105714800Y-74625200D02*
X103831800Y-72742200D01*
X115214400Y-74980800D02*
X106070400Y-74980800D01*
X144556800Y-37175296D02*
X144267152Y-36885648D01*
X138405000Y-51290000D02*
X146025000Y-51290000D01*
X115545000Y-36431000D02*
X118085000Y-36431000D01*
X105181800Y-69572600D02*
X102911000Y-67301800D01*
X135128000Y-76403200D02*
X133146800Y-74422000D01*
X120625000Y-36431000D02*
X118085000Y-36431000D01*
X106070400Y-74980800D02*
X105714800Y-74625200D01*
X126142799Y-70145400D02*
X126142799Y-70148401D01*
X138652503Y-31271000D02*
X144267152Y-36885648D01*
X106905000Y-47527000D02*
X114195000Y-47527000D01*
X146025000Y-48750000D02*
X146025000Y-45410200D01*
X100617600Y-67301800D02*
X99339400Y-68580000D01*
X114195000Y-37781000D02*
X114621400Y-37354600D01*
X114195000Y-47527000D02*
X114195000Y-37781000D01*
X132588000Y-83566000D02*
X132588000Y-74980800D01*
X122631200Y-73660000D02*
X122580400Y-73710800D01*
X125603400Y-64218600D02*
X125603400Y-61718103D01*
X102911000Y-67301800D02*
X100617600Y-67301800D01*
X142036800Y-49987200D02*
X142036800Y-51290000D01*
X132588000Y-74980800D02*
X133146800Y-74422000D01*
X122580400Y-73710800D02*
X121948097Y-73710800D01*
X123165000Y-36431000D02*
X120625000Y-36431000D01*
X126142799Y-70148401D02*
X122682000Y-73609200D01*
X103831800Y-72742200D02*
X103831800Y-70922600D01*
X133146800Y-74422000D02*
X133146800Y-70916800D01*
X130840800Y-47802800D02*
X131640799Y-47002801D01*
X102911000Y-67301800D02*
X102911000Y-51521000D01*
X99339400Y-68580000D02*
X99339400Y-75209400D01*
X136031503Y-51290000D02*
X138405000Y-51290000D01*
X120585797Y-72348500D02*
X117846700Y-72348500D01*
X139052401Y-47002801D02*
X142036800Y-49987200D01*
X102911000Y-51521000D02*
X106905000Y-47527000D01*
X99339400Y-75209400D02*
X101346000Y-77216000D01*
X117846700Y-72348500D02*
X117856000Y-72339200D01*
X135128000Y-83566000D02*
X135128000Y-76403200D01*
X114195000Y-47527000D02*
X115545000Y-48877000D01*
X123165000Y-36431000D02*
X123165000Y-35161000D01*
X133146800Y-70916800D02*
X126914199Y-70916800D01*
X127055000Y-31271000D02*
X138652503Y-31271000D01*
X123165000Y-35161000D02*
X125705000Y-32621000D01*
X122682000Y-73609200D02*
X122682000Y-73660000D01*
D22*
%TO.N,/BA1*%
X126684000Y-45612000D02*
X128245000Y-44051000D01*
X122911000Y-46083000D02*
X123382000Y-45612000D01*
X123382000Y-45612000D02*
X126684000Y-45612000D01*
%TO.N,/BA2*%
X127212396Y-45720000D02*
X129116000Y-45720000D01*
X125625500Y-46337000D02*
X125900500Y-46062000D01*
X126870396Y-46062000D02*
X127212396Y-45720000D01*
X125900500Y-46062000D02*
X126870396Y-46062000D01*
X129116000Y-45720000D02*
X130785000Y-44051000D01*
%TO.N,/BA4*%
X130277000Y-51163000D02*
X126975000Y-54465000D01*
X126975000Y-54465000D02*
X126975000Y-54719000D01*
X126975000Y-54719000D02*
X127229000Y-54973000D01*
X130277000Y-50871500D02*
X130277000Y-51163000D01*
%TO.N,/~{Wr}*%
X152808500Y-72245000D02*
X152173500Y-71610000D01*
X152173500Y-71610000D02*
X146025000Y-71610000D01*
%TO.N,/A0*%
X128499000Y-77325000D02*
X127508000Y-78316000D01*
X127508000Y-78316000D02*
X127508000Y-83566000D01*
D21*
%TO.N,+5V*%
X152502000Y-66530000D02*
X157988000Y-72016000D01*
X114808000Y-83566000D02*
X114808000Y-79883000D01*
X140155000Y-58120000D02*
X140155000Y-59700000D01*
X136482000Y-45974000D02*
X138405000Y-44051000D01*
X103465513Y-76047600D02*
X101142800Y-73724887D01*
X101142800Y-73724887D02*
X101142800Y-71969513D01*
X146025000Y-66530000D02*
X144275000Y-64780000D01*
X144275000Y-64780000D02*
X144275000Y-63200000D01*
X129057800Y-46964200D02*
X129057800Y-47085800D01*
X110972600Y-76047600D02*
X103465513Y-76047600D01*
X129057800Y-47085800D02*
X128340800Y-47802800D01*
X115545000Y-51417000D02*
X118067000Y-48895000D01*
X140155000Y-63430812D02*
X140155000Y-64780000D01*
X138405000Y-66530000D02*
X140155000Y-68280000D01*
X144275000Y-63200000D02*
X146025000Y-61450000D01*
X127449800Y-48895000D02*
X129057800Y-47287000D01*
X129057800Y-47287000D02*
X128346600Y-47998200D01*
X138405000Y-61680812D02*
X140155000Y-63430812D01*
X140155000Y-69860000D02*
X138405000Y-71610000D01*
X140155000Y-59700000D02*
X138405000Y-61450000D01*
X140155000Y-64780000D02*
X138405000Y-66530000D01*
X129057800Y-47287000D02*
X129057800Y-46964200D01*
X138405000Y-61450000D02*
X138405000Y-61680812D01*
X130048000Y-45974000D02*
X136482000Y-45974000D01*
X146025000Y-66530000D02*
X152502000Y-66530000D01*
X157988000Y-72016000D02*
X157988000Y-83566000D01*
X129057800Y-46964200D02*
X130048000Y-45974000D01*
X140155000Y-68280000D02*
X140155000Y-69860000D01*
X128346600Y-47998200D02*
X128346600Y-49385000D01*
X138405000Y-56370000D02*
X140155000Y-58120000D01*
X118067000Y-48895000D02*
X127449800Y-48895000D01*
X114808000Y-79883000D02*
X110972600Y-76047600D01*
D22*
%TO.N,/A1*%
X113175200Y-66486800D02*
X115545000Y-64117000D01*
X113811635Y-69622134D02*
X113175200Y-68985699D01*
X113175200Y-68985699D02*
X113175200Y-66486800D01*
%TO.N,/A2*%
X115545000Y-59037000D02*
X112725200Y-61856800D01*
X124968000Y-77604000D02*
X124943000Y-77579000D01*
X124968000Y-83566000D02*
X124968000Y-77604000D01*
X112725200Y-61856800D02*
X112725200Y-69947302D01*
X112725200Y-69947302D02*
X113745498Y-70967600D01*
%TO.N,/A3*%
X119481600Y-64711390D02*
X119481600Y-59465500D01*
X116374990Y-67818000D02*
X119481600Y-64711390D01*
X114096800Y-67818000D02*
X116374990Y-67818000D01*
%TO.N,/A4*%
X111893500Y-68275200D02*
X111893500Y-67951500D01*
X122919952Y-78078048D02*
X122428000Y-78570000D01*
X108059000Y-64117000D02*
X107925000Y-64117000D01*
X111893500Y-67951500D02*
X108059000Y-64117000D01*
X114021000Y-58021000D02*
X107925000Y-64117000D01*
X122428000Y-78570000D02*
X122428000Y-83566000D01*
%TO.N,/A5*%
X110953697Y-64389197D02*
X109957000Y-63392500D01*
X111103500Y-55858500D02*
X107925000Y-59037000D01*
X110953697Y-65987099D02*
X110953697Y-64389197D01*
%TO.N,/A6*%
X119888000Y-77096000D02*
X119888000Y-83566000D01*
X109982000Y-66723010D02*
X108500990Y-65242000D01*
X106510000Y-65242000D02*
X106401000Y-65133000D01*
X109982000Y-67310000D02*
X109982000Y-66723010D01*
X108500990Y-65242000D02*
X106510000Y-65242000D01*
X119105299Y-76313299D02*
X119888000Y-77096000D01*
%TO.N,/A7*%
X108595190Y-67876200D02*
X109957000Y-69238010D01*
X106502600Y-67876200D02*
X108595190Y-67876200D01*
X109957000Y-69238010D02*
X109957000Y-71991000D01*
%TO.N,Net-(U1-P=R)*%
X115545000Y-71737000D02*
X119133800Y-68148200D01*
X119133800Y-68148200D02*
X137483200Y-68148200D01*
X137483200Y-68148200D02*
X138405000Y-69070000D01*
%TO.N,/A9*%
X147828000Y-78411500D02*
X147828000Y-83566000D01*
X149168500Y-77071000D02*
X147828000Y-78411500D01*
%TO.N,/A12*%
X133037000Y-52941000D02*
X130785000Y-52941000D01*
X124181000Y-56213739D02*
X123041965Y-55074704D01*
X137770000Y-53195000D02*
X138405000Y-53830000D01*
X138405000Y-53830000D02*
X137973200Y-53830000D01*
X119735600Y-73298500D02*
X117348000Y-75686100D01*
X124693299Y-69700701D02*
X123020000Y-71374000D01*
X123020000Y-71374000D02*
X120954800Y-71374000D01*
X124943000Y-58783000D02*
X124943000Y-59037000D01*
X130785000Y-52941000D02*
X124943000Y-58783000D01*
X124943000Y-59037000D02*
X124181000Y-58275000D01*
X124181000Y-58275000D02*
X124181000Y-56213739D01*
X117348000Y-75686100D02*
X117348000Y-83566000D01*
X137973200Y-53830000D02*
X137033400Y-52890200D01*
%TO.N,/A13*%
X150368000Y-77046000D02*
X150368000Y-83566000D01*
X150851000Y-76563000D02*
X150368000Y-77046000D01*
%TO.N,/A14*%
X155043396Y-77325000D02*
X155931000Y-76437396D01*
X153632500Y-77325000D02*
X155043396Y-77325000D01*
X155931000Y-76437396D02*
X155931000Y-74277000D01*
%TO.N,/~{M8-B}*%
X153899000Y-73964400D02*
X153899000Y-75547000D01*
X138405000Y-36431000D02*
X139301000Y-36431000D01*
X153899000Y-75547000D02*
X152908000Y-76538000D01*
X152908000Y-76538000D02*
X152908000Y-83566000D01*
X139301000Y-36431000D02*
X140970000Y-38100000D01*
X155249099Y-72614301D02*
X153899000Y-73964400D01*
%TO.N,/D1*%
X130048000Y-78112000D02*
X130048000Y-83566000D01*
X130309000Y-77851000D02*
X130048000Y-78112000D01*
X130772500Y-77851000D02*
X130309000Y-77851000D01*
%TO.N,/D3*%
X132291000Y-40005000D02*
X135865000Y-36431000D01*
X129540000Y-40005000D02*
X132291000Y-40005000D01*
%TO.N,/D4*%
X137668000Y-77597000D02*
X137668000Y-83566000D01*
X137464800Y-77393800D02*
X137668000Y-77597000D01*
%TO.N,/BA0*%
X142036800Y-41097200D02*
X138081800Y-41097200D01*
X127000000Y-42019000D02*
X137160000Y-42019000D01*
X125705000Y-44051000D02*
X125705000Y-43314000D01*
X138081800Y-41097200D02*
X137160000Y-42019000D01*
X125705000Y-43314000D02*
X127000000Y-42019000D01*
%TO.N,/D6*%
X140639800Y-77419200D02*
X140642310Y-77421710D01*
X140642310Y-83131690D02*
X140208000Y-83566000D01*
X140642310Y-77421710D02*
X140642310Y-83131690D01*
%TO.N,/~{CE}*%
X140691000Y-73007000D02*
X142723000Y-75039000D01*
X142723000Y-83541000D02*
X142748000Y-83566000D01*
X142723000Y-75039000D02*
X142723000Y-83541000D01*
%TO.N,/~{Rd}*%
X147295000Y-67927000D02*
X150343000Y-67927000D01*
X150343000Y-67927000D02*
X151359000Y-68943000D01*
%TO.N,/~{MReq}*%
X155448000Y-83566000D02*
X155448000Y-78303500D01*
X155448000Y-78303500D02*
X156172500Y-77579000D01*
%TO.N,/~{MC-F}*%
X120033000Y-50147000D02*
X137008000Y-50147000D01*
X103861000Y-61323000D02*
X105022000Y-60162000D01*
X109450000Y-59502990D02*
X109450000Y-59460000D01*
X117003000Y-55082000D02*
X118110000Y-53975000D01*
X108790990Y-60162000D02*
X109450000Y-59502990D01*
X137008000Y-50147000D02*
X138405000Y-48750000D01*
X97028000Y-79078000D02*
X98527000Y-77579000D01*
X105022000Y-60162000D02*
X108790990Y-60162000D01*
X118110000Y-52070000D02*
X120033000Y-50147000D01*
X113828000Y-55082000D02*
X117003000Y-55082000D01*
X118110000Y-53975000D02*
X118110000Y-52070000D01*
X97028000Y-83566000D02*
X97028000Y-79078000D01*
X109450000Y-59460000D02*
X113828000Y-55082000D01*
%TD*%
%TA.AperFunction,Conductor*%
%TO.N,GND*%
G36*
X117757359Y-36192955D02*
G01*
X117699835Y-36305852D01*
X117680014Y-36431000D01*
X117699835Y-36556148D01*
X117757359Y-36669045D01*
X117769314Y-36681000D01*
X115860686Y-36681000D01*
X115872641Y-36669045D01*
X115930165Y-36556148D01*
X115949986Y-36431000D01*
X115930165Y-36305852D01*
X115872641Y-36192955D01*
X115860686Y-36181000D01*
X117769314Y-36181000D01*
X117757359Y-36192955D01*
G37*
%TD.AperFunction*%
%TA.AperFunction,Conductor*%
G36*
X120297359Y-36192955D02*
G01*
X120239835Y-36305852D01*
X120220014Y-36431000D01*
X120239835Y-36556148D01*
X120297359Y-36669045D01*
X120309314Y-36681000D01*
X118400686Y-36681000D01*
X118412641Y-36669045D01*
X118470165Y-36556148D01*
X118489986Y-36431000D01*
X118470165Y-36305852D01*
X118412641Y-36192955D01*
X118400686Y-36181000D01*
X120309314Y-36181000D01*
X120297359Y-36192955D01*
G37*
%TD.AperFunction*%
%TA.AperFunction,Conductor*%
G36*
X122837359Y-36192955D02*
G01*
X122779835Y-36305852D01*
X122760014Y-36431000D01*
X122779835Y-36556148D01*
X122837359Y-36669045D01*
X122849314Y-36681000D01*
X120940686Y-36681000D01*
X120952641Y-36669045D01*
X121010165Y-36556148D01*
X121029986Y-36431000D01*
X121010165Y-36305852D01*
X120952641Y-36192955D01*
X120940686Y-36181000D01*
X122849314Y-36181000D01*
X122837359Y-36192955D01*
G37*
%TD.AperFunction*%
%TA.AperFunction,Conductor*%
G36*
X159462539Y-28968185D02*
G01*
X159508294Y-29020989D01*
X159519500Y-29072500D01*
X159519500Y-78616000D01*
X159499815Y-78683039D01*
X159447011Y-78728794D01*
X159395500Y-78740000D01*
X159115394Y-78740000D01*
X159048355Y-78720315D01*
X159037034Y-78712102D01*
X158955209Y-78645383D01*
X158905087Y-78619201D01*
X158854780Y-78570714D01*
X158838500Y-78509293D01*
X158838500Y-72053087D01*
X158838705Y-72048052D01*
X158843201Y-71992836D01*
X158842967Y-71991122D01*
X158832270Y-71912607D01*
X158823514Y-71832090D01*
X158823513Y-71832088D01*
X158823513Y-71832084D01*
X158823280Y-71831026D01*
X158818507Y-71810663D01*
X158818227Y-71809536D01*
X158818227Y-71809532D01*
X158790294Y-71733499D01*
X158764444Y-71656779D01*
X158764441Y-71656774D01*
X158763950Y-71655712D01*
X158754930Y-71636886D01*
X158754434Y-71635886D01*
X158748181Y-71626104D01*
X158710806Y-71567631D01*
X158669070Y-71498264D01*
X158669069Y-71498263D01*
X158669068Y-71498261D01*
X158668409Y-71497395D01*
X158655541Y-71480934D01*
X158654802Y-71480014D01*
X158654801Y-71480013D01*
X158654800Y-71480011D01*
X158597539Y-71422750D01*
X158541849Y-71363959D01*
X158541088Y-71363312D01*
X158523881Y-71349092D01*
X155835140Y-68660351D01*
X153129607Y-65954818D01*
X153126204Y-65951126D01*
X153090336Y-65908899D01*
X153025891Y-65859909D01*
X152962759Y-65809162D01*
X152962758Y-65809161D01*
X152962754Y-65809158D01*
X152962748Y-65809155D01*
X152961854Y-65808583D01*
X152944019Y-65797520D01*
X152943064Y-65796946D01*
X152869560Y-65762939D01*
X152797027Y-65726966D01*
X152795981Y-65726582D01*
X152776160Y-65719602D01*
X152775164Y-65719266D01*
X152696073Y-65701858D01*
X152617494Y-65682315D01*
X152616584Y-65682191D01*
X152595506Y-65679610D01*
X152594501Y-65679501D01*
X152594497Y-65679500D01*
X152594492Y-65679500D01*
X152513531Y-65679500D01*
X152432564Y-65677306D01*
X152431520Y-65677391D01*
X152409352Y-65679500D01*
X147465048Y-65679500D01*
X147398009Y-65659815D01*
X147377371Y-65643185D01*
X147264139Y-65529953D01*
X147264138Y-65529952D01*
X147264137Y-65529951D01*
X147077734Y-65399432D01*
X147077728Y-65399429D01*
X147048966Y-65386017D01*
X147019724Y-65372381D01*
X146967285Y-65326210D01*
X146948133Y-65259017D01*
X146968348Y-65192135D01*
X147019725Y-65147618D01*
X147037728Y-65139223D01*
X147077734Y-65120568D01*
X147264139Y-64990047D01*
X147425047Y-64829139D01*
X147555568Y-64642734D01*
X147651739Y-64436496D01*
X147710635Y-64216692D01*
X147730468Y-63990000D01*
X147730346Y-63988610D01*
X147723934Y-63915318D01*
X147710635Y-63763308D01*
X147651739Y-63543504D01*
X147555568Y-63337266D01*
X147425047Y-63150861D01*
X147425045Y-63150858D01*
X147264141Y-62989954D01*
X147077734Y-62859432D01*
X147077728Y-62859429D01*
X147030834Y-62837562D01*
X147019724Y-62832381D01*
X146967285Y-62786210D01*
X146948133Y-62719017D01*
X146968348Y-62652135D01*
X147019725Y-62607618D01*
X147077734Y-62580568D01*
X147264139Y-62450047D01*
X147425047Y-62289139D01*
X147555568Y-62102734D01*
X147651739Y-61896496D01*
X147710635Y-61676692D01*
X147730468Y-61450000D01*
X147710635Y-61223308D01*
X147651739Y-61003504D01*
X147555568Y-60797266D01*
X147425047Y-60610861D01*
X147425045Y-60610858D01*
X147264141Y-60449954D01*
X147077734Y-60319432D01*
X147077728Y-60319429D01*
X147019725Y-60292382D01*
X146967285Y-60246210D01*
X146948133Y-60179017D01*
X146968348Y-60112135D01*
X147019725Y-60067618D01*
X147019828Y-60067570D01*
X147077734Y-60040568D01*
X147264139Y-59910047D01*
X147425047Y-59749139D01*
X147555568Y-59562734D01*
X147651739Y-59356496D01*
X147710635Y-59136692D01*
X147730468Y-58910000D01*
X147710635Y-58683308D01*
X147664419Y-58510825D01*
X147651741Y-58463511D01*
X147651738Y-58463502D01*
X147627684Y-58411918D01*
X147555568Y-58257266D01*
X147425047Y-58070861D01*
X147425045Y-58070858D01*
X147264141Y-57909954D01*
X147077734Y-57779432D01*
X147077728Y-57779429D01*
X147037726Y-57760776D01*
X147019724Y-57752381D01*
X146967285Y-57706210D01*
X146948133Y-57639017D01*
X146968348Y-57572135D01*
X147019725Y-57527618D01*
X147077734Y-57500568D01*
X147264139Y-57370047D01*
X147425047Y-57209139D01*
X147555568Y-57022734D01*
X147651739Y-56816496D01*
X147710635Y-56596692D01*
X147730468Y-56370000D01*
X147710635Y-56143308D01*
X147651739Y-55923504D01*
X147555568Y-55717266D01*
X147449660Y-55566013D01*
X147425045Y-55530858D01*
X147264141Y-55369954D01*
X147077734Y-55239432D01*
X147077728Y-55239429D01*
X147019725Y-55212382D01*
X146967285Y-55166210D01*
X146948133Y-55099017D01*
X146968348Y-55032135D01*
X147019725Y-54987618D01*
X147077734Y-54960568D01*
X147264139Y-54830047D01*
X147425047Y-54669139D01*
X147555568Y-54482734D01*
X147651739Y-54276496D01*
X147710635Y-54056692D01*
X147730468Y-53830000D01*
X147710635Y-53603308D01*
X147651739Y-53383504D01*
X147555568Y-53177266D01*
X147425047Y-52990861D01*
X147425045Y-52990858D01*
X147264141Y-52829954D01*
X147077734Y-52699432D01*
X147077732Y-52699431D01*
X147053184Y-52687984D01*
X147019132Y-52672105D01*
X146966694Y-52625934D01*
X146947542Y-52558740D01*
X146967758Y-52491859D01*
X147019134Y-52447341D01*
X147077484Y-52420132D01*
X147177642Y-52350000D01*
X153244473Y-52350000D01*
X153264563Y-52682136D01*
X153264563Y-52682141D01*
X153264564Y-52682142D01*
X153324544Y-53009441D01*
X153324545Y-53009445D01*
X153324546Y-53009449D01*
X153423530Y-53327104D01*
X153423534Y-53327116D01*
X153423537Y-53327123D01*
X153560102Y-53630557D01*
X153732246Y-53915318D01*
X153732251Y-53915326D01*
X153937460Y-54177255D01*
X154172744Y-54412539D01*
X154434673Y-54617748D01*
X154434678Y-54617751D01*
X154434682Y-54617754D01*
X154719443Y-54789898D01*
X155022877Y-54926463D01*
X155022890Y-54926467D01*
X155022895Y-54926469D01*
X155219132Y-54987618D01*
X155340559Y-55025456D01*
X155667858Y-55085436D01*
X155845740Y-55096196D01*
X155916892Y-55100500D01*
X155916894Y-55100500D01*
X156083108Y-55100500D01*
X156145365Y-55096734D01*
X156332142Y-55085436D01*
X156659441Y-55025456D01*
X156977123Y-54926463D01*
X157280557Y-54789898D01*
X157565318Y-54617754D01*
X157575558Y-54609732D01*
X157691948Y-54518546D01*
X157827252Y-54412542D01*
X158062542Y-54177252D01*
X158229458Y-53964199D01*
X158267748Y-53915326D01*
X158267748Y-53915324D01*
X158267754Y-53915318D01*
X158439898Y-53630557D01*
X158576463Y-53327123D01*
X158583586Y-53304266D01*
X158597854Y-53258477D01*
X158675456Y-53009441D01*
X158735436Y-52682142D01*
X158755527Y-52350000D01*
X158735436Y-52017858D01*
X158675456Y-51690559D01*
X158624815Y-51528045D01*
X158576469Y-51372895D01*
X158576467Y-51372890D01*
X158576463Y-51372877D01*
X158439898Y-51069443D01*
X158267754Y-50784682D01*
X158267751Y-50784678D01*
X158267748Y-50784673D01*
X158062539Y-50522744D01*
X157827255Y-50287460D01*
X157565326Y-50082251D01*
X157562453Y-50080514D01*
X157280557Y-49910102D01*
X156977123Y-49773537D01*
X156977116Y-49773534D01*
X156977104Y-49773530D01*
X156659449Y-49674546D01*
X156659445Y-49674545D01*
X156659441Y-49674544D01*
X156332142Y-49614564D01*
X156332141Y-49614563D01*
X156332136Y-49614563D01*
X156083108Y-49599500D01*
X156083106Y-49599500D01*
X155916894Y-49599500D01*
X155916892Y-49599500D01*
X155667863Y-49614563D01*
X155667858Y-49614564D01*
X155340559Y-49674544D01*
X155340556Y-49674544D01*
X155340550Y-49674546D01*
X155022895Y-49773530D01*
X155022879Y-49773536D01*
X155022877Y-49773537D01*
X154924109Y-49817989D01*
X154719447Y-49910100D01*
X154719445Y-49910101D01*
X154434673Y-50082251D01*
X154172744Y-50287460D01*
X153937460Y-50522744D01*
X153732251Y-50784673D01*
X153619914Y-50970502D01*
X153560102Y-51069443D01*
X153483438Y-51239784D01*
X153423536Y-51372880D01*
X153423530Y-51372895D01*
X153324546Y-51690550D01*
X153324544Y-51690556D01*
X153324544Y-51690559D01*
X153292852Y-51863496D01*
X153264563Y-52017863D01*
X153244473Y-52350000D01*
X147177642Y-52350000D01*
X147263820Y-52289657D01*
X147424657Y-52128820D01*
X147555134Y-51942482D01*
X147651265Y-51736326D01*
X147651269Y-51736317D01*
X147703872Y-51540000D01*
X146340686Y-51540000D01*
X146352641Y-51528045D01*
X146410165Y-51415148D01*
X146429986Y-51290000D01*
X146410165Y-51164852D01*
X146352641Y-51051955D01*
X146340686Y-51040000D01*
X147703872Y-51040000D01*
X147703872Y-51039999D01*
X147651269Y-50843682D01*
X147651265Y-50843673D01*
X147555134Y-50637517D01*
X147424657Y-50451179D01*
X147263820Y-50290342D01*
X147077481Y-50159865D01*
X147077479Y-50159864D01*
X147018543Y-50132382D01*
X146966103Y-50086210D01*
X146946951Y-50019017D01*
X146967166Y-49952136D01*
X147018543Y-49907618D01*
X147077479Y-49880135D01*
X147077481Y-49880134D01*
X147263820Y-49749657D01*
X147424657Y-49588820D01*
X147555134Y-49402482D01*
X147651265Y-49196326D01*
X147651269Y-49196317D01*
X147703872Y-49000000D01*
X146340686Y-49000000D01*
X146352641Y-48988045D01*
X146410165Y-48875148D01*
X146429986Y-48750000D01*
X146410165Y-48624852D01*
X146352641Y-48511955D01*
X146340686Y-48500000D01*
X147703872Y-48500000D01*
X147703872Y-48499999D01*
X147651269Y-48303682D01*
X147651265Y-48303673D01*
X147555134Y-48097517D01*
X147424657Y-47911179D01*
X147263820Y-47750342D01*
X147077482Y-47619865D01*
X146871326Y-47523734D01*
X146871317Y-47523730D01*
X146651610Y-47464860D01*
X146651599Y-47464858D01*
X146481763Y-47450000D01*
X146275000Y-47450000D01*
X146275000Y-48434314D01*
X146263045Y-48422359D01*
X146150148Y-48364835D01*
X146056481Y-48350000D01*
X145993519Y-48350000D01*
X145899852Y-48364835D01*
X145786955Y-48422359D01*
X145775000Y-48434314D01*
X145775000Y-47450000D01*
X145568237Y-47450000D01*
X145398400Y-47464858D01*
X145398389Y-47464860D01*
X145178682Y-47523730D01*
X145178673Y-47523734D01*
X144972517Y-47619865D01*
X144786179Y-47750342D01*
X144625342Y-47911179D01*
X144494865Y-48097517D01*
X144398734Y-48303673D01*
X144398730Y-48303682D01*
X144346127Y-48499999D01*
X144346128Y-48500000D01*
X145709314Y-48500000D01*
X145697359Y-48511955D01*
X145639835Y-48624852D01*
X145620014Y-48750000D01*
X145639835Y-48875148D01*
X145697359Y-48988045D01*
X145709314Y-49000000D01*
X144346128Y-49000000D01*
X144398730Y-49196317D01*
X144398734Y-49196326D01*
X144494865Y-49402482D01*
X144625342Y-49588820D01*
X144786179Y-49749657D01*
X144972517Y-49880134D01*
X145031457Y-49907618D01*
X145083896Y-49953790D01*
X145103048Y-50020984D01*
X145082832Y-50087865D01*
X145031457Y-50132382D01*
X144972517Y-50159865D01*
X144786179Y-50290342D01*
X144625342Y-50451179D01*
X144494865Y-50637517D01*
X144398734Y-50843673D01*
X144398730Y-50843682D01*
X144346127Y-51039999D01*
X144346128Y-51040000D01*
X145709314Y-51040000D01*
X145697359Y-51051955D01*
X145639835Y-51164852D01*
X145620014Y-51290000D01*
X145639835Y-51415148D01*
X145697359Y-51528045D01*
X145709314Y-51540000D01*
X144346128Y-51540000D01*
X144398730Y-51736317D01*
X144398734Y-51736326D01*
X144494865Y-51942482D01*
X144625342Y-52128820D01*
X144786179Y-52289657D01*
X144972518Y-52420134D01*
X144972520Y-52420135D01*
X145030865Y-52447342D01*
X145083305Y-52493514D01*
X145102457Y-52560707D01*
X145082242Y-52627589D01*
X145030867Y-52672105D01*
X144996816Y-52687984D01*
X144972264Y-52699433D01*
X144785858Y-52829954D01*
X144624954Y-52990858D01*
X144494432Y-53177265D01*
X144494431Y-53177267D01*
X144398261Y-53383502D01*
X144398258Y-53383511D01*
X144339366Y-53603302D01*
X144339364Y-53603313D01*
X144319532Y-53829998D01*
X144319532Y-53830001D01*
X144339364Y-54056686D01*
X144339366Y-54056697D01*
X144398258Y-54276488D01*
X144398261Y-54276497D01*
X144494431Y-54482732D01*
X144494432Y-54482734D01*
X144624954Y-54669141D01*
X144785858Y-54830045D01*
X144785861Y-54830047D01*
X144972266Y-54960568D01*
X145030275Y-54987618D01*
X145082714Y-55033791D01*
X145101866Y-55100984D01*
X145081650Y-55167865D01*
X145030275Y-55212382D01*
X144972267Y-55239431D01*
X144972265Y-55239432D01*
X144785858Y-55369954D01*
X144624954Y-55530858D01*
X144494432Y-55717265D01*
X144494431Y-55717267D01*
X144398261Y-55923502D01*
X144398258Y-55923511D01*
X144339366Y-56143302D01*
X144339364Y-56143313D01*
X144319532Y-56369998D01*
X144319532Y-56370001D01*
X144339364Y-56596686D01*
X144339366Y-56596697D01*
X144398258Y-56816488D01*
X144398261Y-56816497D01*
X144494431Y-57022732D01*
X144494432Y-57022734D01*
X144624954Y-57209141D01*
X144785858Y-57370045D01*
X144785861Y-57370047D01*
X144972266Y-57500568D01*
X145030275Y-57527618D01*
X145082714Y-57573791D01*
X145101866Y-57640984D01*
X145081650Y-57707865D01*
X145030275Y-57752382D01*
X144972267Y-57779431D01*
X144972265Y-57779432D01*
X144785858Y-57909954D01*
X144624954Y-58070858D01*
X144494432Y-58257265D01*
X144494431Y-58257267D01*
X144398261Y-58463502D01*
X144398258Y-58463511D01*
X144339366Y-58683302D01*
X144339364Y-58683313D01*
X144319532Y-58909998D01*
X144319532Y-58910001D01*
X144339364Y-59136686D01*
X144339366Y-59136697D01*
X144398258Y-59356488D01*
X144398261Y-59356497D01*
X144494431Y-59562732D01*
X144494432Y-59562734D01*
X144624954Y-59749141D01*
X144785858Y-59910045D01*
X144825068Y-59937500D01*
X144972266Y-60040568D01*
X145030172Y-60067570D01*
X145030275Y-60067618D01*
X145082714Y-60113791D01*
X145101866Y-60180984D01*
X145081650Y-60247865D01*
X145030275Y-60292382D01*
X144972267Y-60319431D01*
X144972265Y-60319432D01*
X144785858Y-60449954D01*
X144624954Y-60610858D01*
X144494432Y-60797265D01*
X144494431Y-60797267D01*
X144398261Y-61003502D01*
X144398258Y-61003511D01*
X144339366Y-61223302D01*
X144339364Y-61223313D01*
X144319532Y-61449998D01*
X144319532Y-61450001D01*
X144339364Y-61676686D01*
X144339366Y-61676697D01*
X144374967Y-61809562D01*
X144373304Y-61879412D01*
X144342873Y-61929336D01*
X143699830Y-62572380D01*
X143696127Y-62575794D01*
X143679125Y-62590235D01*
X143657802Y-62608349D01*
X143653898Y-62611665D01*
X143604909Y-62676108D01*
X143554155Y-62739249D01*
X143553649Y-62740041D01*
X143542469Y-62758066D01*
X143541944Y-62758938D01*
X143507939Y-62832439D01*
X143471963Y-62904980D01*
X143471582Y-62906017D01*
X143464580Y-62925906D01*
X143464267Y-62926833D01*
X143446858Y-63005926D01*
X143427314Y-63084513D01*
X143427191Y-63085416D01*
X143424607Y-63106516D01*
X143424500Y-63107501D01*
X143424500Y-63188468D01*
X143422306Y-63269438D01*
X143422389Y-63270447D01*
X143424500Y-63292649D01*
X143424500Y-64742911D01*
X143424295Y-64747945D01*
X143419798Y-64803163D01*
X143430729Y-64883392D01*
X143439486Y-64963913D01*
X143439710Y-64964930D01*
X143444525Y-64985473D01*
X143444773Y-64986470D01*
X143459095Y-65025453D01*
X143472700Y-65062486D01*
X143497535Y-65136192D01*
X143498557Y-65139223D01*
X143499001Y-65140185D01*
X143508146Y-65159266D01*
X143508564Y-65160109D01*
X143508567Y-65160114D01*
X143508568Y-65160116D01*
X143535438Y-65202154D01*
X143552184Y-65228353D01*
X143593930Y-65297736D01*
X143594538Y-65298536D01*
X143607578Y-65315216D01*
X143608201Y-65315991D01*
X143665458Y-65373248D01*
X143721149Y-65432040D01*
X143721950Y-65432720D01*
X143739118Y-65446907D01*
X144342873Y-66050662D01*
X144376358Y-66111985D01*
X144374967Y-66170436D01*
X144339366Y-66303302D01*
X144339364Y-66303313D01*
X144319532Y-66529998D01*
X144319532Y-66530001D01*
X144339364Y-66756686D01*
X144339366Y-66756697D01*
X144398258Y-66976488D01*
X144398261Y-66976497D01*
X144494431Y-67182732D01*
X144494432Y-67182734D01*
X144624954Y-67369141D01*
X144785858Y-67530045D01*
X144796554Y-67537534D01*
X144972266Y-67660568D01*
X145030275Y-67687618D01*
X145082714Y-67733791D01*
X145101866Y-67800984D01*
X145081650Y-67867865D01*
X145030275Y-67912382D01*
X144972267Y-67939431D01*
X144972265Y-67939432D01*
X144785858Y-68069954D01*
X144624954Y-68230858D01*
X144494432Y-68417265D01*
X144494431Y-68417267D01*
X144398261Y-68623502D01*
X144398258Y-68623511D01*
X144339366Y-68843302D01*
X144339364Y-68843313D01*
X144319532Y-69069998D01*
X144319532Y-69070001D01*
X144339364Y-69296686D01*
X144339366Y-69296697D01*
X144398258Y-69516488D01*
X144398261Y-69516497D01*
X144494431Y-69722732D01*
X144494432Y-69722734D01*
X144624954Y-69909141D01*
X144785858Y-70070045D01*
X144810462Y-70087273D01*
X144854087Y-70141849D01*
X144861281Y-70211348D01*
X144829758Y-70273703D01*
X144769529Y-70309117D01*
X144752593Y-70312138D01*
X144717516Y-70315908D01*
X144582671Y-70366202D01*
X144582664Y-70366206D01*
X144467455Y-70452452D01*
X144467452Y-70452455D01*
X144381206Y-70567664D01*
X144381202Y-70567671D01*
X144330908Y-70702517D01*
X144324501Y-70762116D01*
X144324501Y-70762123D01*
X144324500Y-70762135D01*
X144324500Y-72457870D01*
X144324501Y-72457876D01*
X144330908Y-72517483D01*
X144381202Y-72652328D01*
X144381206Y-72652335D01*
X144467452Y-72767544D01*
X144467455Y-72767547D01*
X144582664Y-72853793D01*
X144582671Y-72853797D01*
X144717517Y-72904091D01*
X144717516Y-72904091D01*
X144724444Y-72904835D01*
X144777127Y-72910500D01*
X147272872Y-72910499D01*
X147332483Y-72904091D01*
X147467331Y-72853796D01*
X147582546Y-72767546D01*
X147668796Y-72652331D01*
X147719091Y-72517483D01*
X147725500Y-72457873D01*
X147725500Y-72359500D01*
X147745185Y-72292461D01*
X147797989Y-72246706D01*
X147849500Y-72235500D01*
X151790391Y-72235500D01*
X151857430Y-72255185D01*
X151903185Y-72307989D01*
X151913711Y-72346536D01*
X151922826Y-72433256D01*
X151922827Y-72433259D01*
X151981318Y-72613277D01*
X151981321Y-72613284D01*
X152075967Y-72777216D01*
X152182592Y-72895635D01*
X152202629Y-72917888D01*
X152355765Y-73029148D01*
X152355770Y-73029151D01*
X152528692Y-73106142D01*
X152528697Y-73106144D01*
X152713854Y-73145500D01*
X152713855Y-73145500D01*
X152903144Y-73145500D01*
X152903146Y-73145500D01*
X153088303Y-73106144D01*
X153261230Y-73029151D01*
X153414371Y-72917888D01*
X153541033Y-72777216D01*
X153635679Y-72613284D01*
X153694174Y-72433256D01*
X153713960Y-72245000D01*
X153694174Y-72056744D01*
X153635679Y-71876716D01*
X153541033Y-71712784D01*
X153414371Y-71572112D01*
X153410823Y-71569534D01*
X153261234Y-71460851D01*
X153261229Y-71460848D01*
X153088307Y-71383857D01*
X153088302Y-71383855D01*
X152942501Y-71352865D01*
X152903146Y-71344500D01*
X152903145Y-71344500D01*
X152843953Y-71344500D01*
X152776914Y-71324815D01*
X152756272Y-71308181D01*
X152674303Y-71226212D01*
X152664480Y-71213950D01*
X152664259Y-71214134D01*
X152659286Y-71208123D01*
X152635455Y-71185744D01*
X152608864Y-71160773D01*
X152598419Y-71150328D01*
X152587975Y-71139883D01*
X152582486Y-71135625D01*
X152578061Y-71131847D01*
X152544082Y-71099938D01*
X152544080Y-71099936D01*
X152544077Y-71099935D01*
X152526529Y-71090288D01*
X152510263Y-71079604D01*
X152494436Y-71067327D01*
X152494435Y-71067326D01*
X152494433Y-71067325D01*
X152451668Y-71048818D01*
X152446422Y-71046248D01*
X152405593Y-71023803D01*
X152405592Y-71023802D01*
X152386193Y-71018822D01*
X152367781Y-71012518D01*
X152349398Y-71004562D01*
X152349392Y-71004560D01*
X152303374Y-70997272D01*
X152297652Y-70996087D01*
X152252521Y-70984500D01*
X152252519Y-70984500D01*
X152232484Y-70984500D01*
X152213086Y-70982973D01*
X152205662Y-70981797D01*
X152193305Y-70979840D01*
X152193304Y-70979840D01*
X152146916Y-70984225D01*
X152141078Y-70984500D01*
X147849499Y-70984500D01*
X147782460Y-70964815D01*
X147736705Y-70912011D01*
X147725499Y-70860500D01*
X147725499Y-70762129D01*
X147725498Y-70762123D01*
X147725497Y-70762116D01*
X147719091Y-70702517D01*
X147718566Y-70701110D01*
X147668797Y-70567671D01*
X147668793Y-70567664D01*
X147582547Y-70452455D01*
X147582544Y-70452452D01*
X147467335Y-70366206D01*
X147467328Y-70366202D01*
X147332482Y-70315908D01*
X147332483Y-70315908D01*
X147297404Y-70312137D01*
X147232853Y-70285399D01*
X147193005Y-70228006D01*
X147190512Y-70158181D01*
X147226165Y-70098092D01*
X147239539Y-70087272D01*
X147253269Y-70077658D01*
X147264139Y-70070047D01*
X147425047Y-69909139D01*
X147555568Y-69722734D01*
X147651739Y-69516496D01*
X147710635Y-69296692D01*
X147730468Y-69070000D01*
X147730425Y-69069513D01*
X147723261Y-68987622D01*
X147710635Y-68843308D01*
X147709096Y-68837564D01*
X147710759Y-68767715D01*
X147749921Y-68709853D01*
X147755986Y-68705153D01*
X147817650Y-68660351D01*
X147900871Y-68599888D01*
X147903788Y-68596647D01*
X147906600Y-68593526D01*
X147966087Y-68556879D01*
X147998748Y-68552500D01*
X150032548Y-68552500D01*
X150099587Y-68572185D01*
X150120229Y-68588819D01*
X150420038Y-68888629D01*
X150453523Y-68949952D01*
X150455678Y-68963348D01*
X150462454Y-69027812D01*
X150473326Y-69131256D01*
X150473327Y-69131259D01*
X150531818Y-69311277D01*
X150531821Y-69311284D01*
X150626467Y-69475216D01*
X150714152Y-69572600D01*
X150753129Y-69615888D01*
X150906265Y-69727148D01*
X150906270Y-69727151D01*
X151079192Y-69804142D01*
X151079197Y-69804144D01*
X151264354Y-69843500D01*
X151264355Y-69843500D01*
X151453644Y-69843500D01*
X151453646Y-69843500D01*
X151638803Y-69804144D01*
X151811730Y-69727151D01*
X151964871Y-69615888D01*
X152091533Y-69475216D01*
X152186179Y-69311284D01*
X152244674Y-69131256D01*
X152264460Y-68943000D01*
X152244674Y-68754744D01*
X152186179Y-68574716D01*
X152091533Y-68410784D01*
X151964871Y-68270112D01*
X151964870Y-68270111D01*
X151811734Y-68158851D01*
X151811729Y-68158848D01*
X151638807Y-68081857D01*
X151638802Y-68081855D01*
X151493001Y-68050865D01*
X151453646Y-68042500D01*
X151453645Y-68042500D01*
X151394452Y-68042500D01*
X151327413Y-68022815D01*
X151306771Y-68006181D01*
X150892772Y-67592181D01*
X150859287Y-67530858D01*
X150864271Y-67461166D01*
X150906143Y-67405233D01*
X150971607Y-67380816D01*
X150980453Y-67380500D01*
X152098349Y-67380500D01*
X152165388Y-67400185D01*
X152186030Y-67416819D01*
X157101181Y-72331969D01*
X157134666Y-72393292D01*
X157137500Y-72419650D01*
X157137500Y-76986654D01*
X157117815Y-77053693D01*
X157065011Y-77099448D01*
X156995853Y-77109392D01*
X156932297Y-77080367D01*
X156908890Y-77052018D01*
X156908855Y-77052044D01*
X156908437Y-77051468D01*
X156906113Y-77048654D01*
X156905080Y-77046866D01*
X156905033Y-77046784D01*
X156778371Y-76906112D01*
X156770245Y-76900208D01*
X156625234Y-76794851D01*
X156625230Y-76794849D01*
X156597002Y-76782281D01*
X156543768Y-76737032D01*
X156523447Y-76670183D01*
X156533640Y-76619755D01*
X156536438Y-76613291D01*
X156543729Y-76567249D01*
X156544908Y-76561558D01*
X156556500Y-76516415D01*
X156556500Y-76496379D01*
X156558027Y-76476978D01*
X156561160Y-76457200D01*
X156557062Y-76413846D01*
X156556775Y-76410811D01*
X156556500Y-76404973D01*
X156556500Y-74975687D01*
X156576185Y-74908648D01*
X156588350Y-74892715D01*
X156606891Y-74872122D01*
X156663533Y-74809216D01*
X156758179Y-74645284D01*
X156816674Y-74465256D01*
X156836460Y-74277000D01*
X156816674Y-74088744D01*
X156758179Y-73908716D01*
X156663533Y-73744784D01*
X156536871Y-73604112D01*
X156536870Y-73604111D01*
X156383734Y-73492851D01*
X156383729Y-73492848D01*
X156210807Y-73415857D01*
X156210802Y-73415855D01*
X156024970Y-73376356D01*
X155963488Y-73343164D01*
X155929712Y-73282001D01*
X155934364Y-73212286D01*
X155958600Y-73172095D01*
X155981632Y-73146517D01*
X156076278Y-72982585D01*
X156134773Y-72802557D01*
X156154559Y-72614301D01*
X156134773Y-72426045D01*
X156076278Y-72246017D01*
X155981632Y-72082085D01*
X155854970Y-71941413D01*
X155844577Y-71933862D01*
X155701833Y-71830152D01*
X155701828Y-71830149D01*
X155528906Y-71753158D01*
X155528901Y-71753156D01*
X155383100Y-71722166D01*
X155343745Y-71713801D01*
X155154453Y-71713801D01*
X155121996Y-71720699D01*
X154969296Y-71753156D01*
X154969291Y-71753158D01*
X154796369Y-71830149D01*
X154796364Y-71830152D01*
X154643228Y-71941412D01*
X154516565Y-72082086D01*
X154421920Y-72246016D01*
X154421917Y-72246023D01*
X154374067Y-72393292D01*
X154363425Y-72426045D01*
X154353212Y-72523216D01*
X154345778Y-72593950D01*
X154319193Y-72658564D01*
X154310138Y-72668669D01*
X153515208Y-73463599D01*
X153502951Y-73473420D01*
X153503134Y-73473641D01*
X153497123Y-73478613D01*
X153449772Y-73529036D01*
X153428889Y-73549919D01*
X153428877Y-73549932D01*
X153424621Y-73555417D01*
X153420837Y-73559847D01*
X153388937Y-73593818D01*
X153388936Y-73593820D01*
X153379284Y-73611376D01*
X153368610Y-73627626D01*
X153356329Y-73643461D01*
X153356324Y-73643468D01*
X153337815Y-73686238D01*
X153335245Y-73691484D01*
X153312803Y-73732306D01*
X153307822Y-73751707D01*
X153301521Y-73770110D01*
X153293562Y-73788502D01*
X153293561Y-73788505D01*
X153286271Y-73834527D01*
X153285087Y-73840246D01*
X153273501Y-73885372D01*
X153273500Y-73885382D01*
X153273500Y-73905416D01*
X153271973Y-73924815D01*
X153268840Y-73944594D01*
X153268840Y-73944595D01*
X153273225Y-73990983D01*
X153273500Y-73996821D01*
X153273500Y-75236546D01*
X153253815Y-75303585D01*
X153237181Y-75324227D01*
X152524208Y-76037199D01*
X152511951Y-76047020D01*
X152512134Y-76047241D01*
X152506123Y-76052213D01*
X152458772Y-76102636D01*
X152437889Y-76123519D01*
X152437877Y-76123532D01*
X152433621Y-76129017D01*
X152429837Y-76133447D01*
X152397937Y-76167418D01*
X152397936Y-76167420D01*
X152388284Y-76184976D01*
X152377610Y-76201226D01*
X152365329Y-76217061D01*
X152365324Y-76217068D01*
X152346815Y-76259838D01*
X152344245Y-76265084D01*
X152321803Y-76305906D01*
X152316822Y-76325307D01*
X152310521Y-76343710D01*
X152302562Y-76362102D01*
X152302561Y-76362105D01*
X152295271Y-76408127D01*
X152294087Y-76413846D01*
X152282501Y-76458972D01*
X152282500Y-76458982D01*
X152282500Y-76479016D01*
X152280973Y-76498413D01*
X152280249Y-76502983D01*
X152277840Y-76518194D01*
X152277840Y-76518195D01*
X152282225Y-76564583D01*
X152282500Y-76570421D01*
X152282500Y-78413871D01*
X152262815Y-78480910D01*
X152210011Y-78526665D01*
X152192612Y-78533087D01*
X152111147Y-78556397D01*
X151940786Y-78645386D01*
X151858966Y-78712102D01*
X151794570Y-78739211D01*
X151780606Y-78740000D01*
X151495394Y-78740000D01*
X151428355Y-78720315D01*
X151417034Y-78712102D01*
X151335213Y-78645386D01*
X151335209Y-78645384D01*
X151335208Y-78645383D01*
X151164855Y-78556398D01*
X151164852Y-78556397D01*
X151083388Y-78533087D01*
X151024350Y-78495719D01*
X150994887Y-78432365D01*
X150993500Y-78413871D01*
X150993500Y-77553741D01*
X151013185Y-77486702D01*
X151065989Y-77440947D01*
X151091710Y-77432453D01*
X151130803Y-77424144D01*
X151303730Y-77347151D01*
X151456871Y-77235888D01*
X151583533Y-77095216D01*
X151678179Y-76931284D01*
X151736674Y-76751256D01*
X151756460Y-76563000D01*
X151736674Y-76374744D01*
X151678179Y-76194716D01*
X151583533Y-76030784D01*
X151456871Y-75890112D01*
X151432805Y-75872627D01*
X151303734Y-75778851D01*
X151303729Y-75778848D01*
X151130807Y-75701857D01*
X151130802Y-75701855D01*
X150985001Y-75670865D01*
X150945646Y-75662500D01*
X150756354Y-75662500D01*
X150723897Y-75669398D01*
X150571197Y-75701855D01*
X150571192Y-75701857D01*
X150398270Y-75778848D01*
X150398265Y-75778851D01*
X150245129Y-75890111D01*
X150118466Y-76030785D01*
X150023821Y-76194715D01*
X150023819Y-76194719D01*
X149975235Y-76344246D01*
X149935797Y-76401921D01*
X149871438Y-76429119D01*
X149802592Y-76417204D01*
X149779760Y-76401750D01*
X149779629Y-76401932D01*
X149621234Y-76286851D01*
X149621229Y-76286848D01*
X149448307Y-76209857D01*
X149448302Y-76209855D01*
X149298318Y-76177976D01*
X149263146Y-76170500D01*
X149073854Y-76170500D01*
X149041397Y-76177398D01*
X148888697Y-76209855D01*
X148888692Y-76209857D01*
X148715770Y-76286848D01*
X148715765Y-76286851D01*
X148562629Y-76398111D01*
X148435966Y-76538785D01*
X148341321Y-76702715D01*
X148341318Y-76702722D01*
X148290758Y-76858332D01*
X148282826Y-76882744D01*
X148265179Y-77050649D01*
X148238594Y-77115263D01*
X148229539Y-77125368D01*
X147444208Y-77910699D01*
X147431951Y-77920520D01*
X147432134Y-77920741D01*
X147426123Y-77925713D01*
X147378772Y-77976136D01*
X147357889Y-77997019D01*
X147357877Y-77997032D01*
X147353621Y-78002517D01*
X147349837Y-78006947D01*
X147317937Y-78040918D01*
X147317936Y-78040920D01*
X147308284Y-78058476D01*
X147297610Y-78074726D01*
X147285329Y-78090561D01*
X147285324Y-78090568D01*
X147266815Y-78133338D01*
X147264245Y-78138584D01*
X147241803Y-78179406D01*
X147236822Y-78198807D01*
X147230521Y-78217210D01*
X147222562Y-78235602D01*
X147222561Y-78235605D01*
X147215271Y-78281627D01*
X147214087Y-78287346D01*
X147202501Y-78332472D01*
X147202500Y-78332482D01*
X147202500Y-78352516D01*
X147200973Y-78371915D01*
X147197840Y-78391694D01*
X147197839Y-78391696D01*
X147198915Y-78403071D01*
X147185626Y-78471665D01*
X147137361Y-78522186D01*
X147109578Y-78533954D01*
X147031150Y-78556395D01*
X146860786Y-78645386D01*
X146778966Y-78712102D01*
X146714570Y-78739211D01*
X146700606Y-78740000D01*
X146415394Y-78740000D01*
X146348355Y-78720315D01*
X146337034Y-78712102D01*
X146255213Y-78645386D01*
X146255209Y-78645384D01*
X146255208Y-78645383D01*
X146084855Y-78556398D01*
X146084849Y-78556396D01*
X145900073Y-78503525D01*
X145809315Y-78495456D01*
X145787309Y-78493500D01*
X145787307Y-78493500D01*
X145787306Y-78493500D01*
X145359330Y-78493500D01*
X144788692Y-78493501D01*
X144761075Y-78495956D01*
X144675926Y-78503525D01*
X144491148Y-78556396D01*
X144320786Y-78645386D01*
X144238966Y-78712102D01*
X144174570Y-78739211D01*
X144160606Y-78740000D01*
X143875394Y-78740000D01*
X143808355Y-78720315D01*
X143797034Y-78712102D01*
X143715213Y-78645386D01*
X143715209Y-78645384D01*
X143715208Y-78645383D01*
X143544855Y-78556398D01*
X143544854Y-78556397D01*
X143544849Y-78556395D01*
X143438387Y-78525932D01*
X143379350Y-78488565D01*
X143349887Y-78425211D01*
X143348500Y-78406717D01*
X143348500Y-75121742D01*
X143350224Y-75106122D01*
X143349939Y-75106096D01*
X143350671Y-75098340D01*
X143350673Y-75098333D01*
X143348500Y-75029185D01*
X143348500Y-74999650D01*
X143347631Y-74992772D01*
X143347172Y-74986943D01*
X143345709Y-74940372D01*
X143340122Y-74921144D01*
X143336174Y-74902084D01*
X143333663Y-74882204D01*
X143316512Y-74838887D01*
X143314619Y-74833358D01*
X143301618Y-74788609D01*
X143301616Y-74788606D01*
X143291423Y-74771371D01*
X143282861Y-74753894D01*
X143275487Y-74735270D01*
X143275486Y-74735268D01*
X143248079Y-74697545D01*
X143244888Y-74692686D01*
X143221172Y-74652583D01*
X143221165Y-74652574D01*
X143207006Y-74638415D01*
X143194368Y-74623619D01*
X143182594Y-74607413D01*
X143146688Y-74577709D01*
X143142376Y-74573786D01*
X141629960Y-73061369D01*
X141596475Y-73000046D01*
X141594323Y-72986668D01*
X141576674Y-72818744D01*
X141520053Y-72644483D01*
X141518181Y-72638722D01*
X141518180Y-72638721D01*
X141518179Y-72638716D01*
X141423533Y-72474784D01*
X141296871Y-72334112D01*
X141296870Y-72334111D01*
X141143734Y-72222851D01*
X141143729Y-72222848D01*
X140970807Y-72145857D01*
X140970802Y-72145855D01*
X140825001Y-72114865D01*
X140785646Y-72106500D01*
X140596354Y-72106500D01*
X140563897Y-72113398D01*
X140411197Y-72145855D01*
X140411192Y-72145857D01*
X140238271Y-72222848D01*
X140196498Y-72253198D01*
X140130691Y-72276677D01*
X140062637Y-72260851D01*
X140013943Y-72210745D01*
X140000068Y-72142267D01*
X140011229Y-72100478D01*
X140031739Y-72056496D01*
X140090635Y-71836692D01*
X140108203Y-71635884D01*
X140110468Y-71610001D01*
X140110468Y-71609998D01*
X140101058Y-71502446D01*
X140090635Y-71383308D01*
X140055032Y-71250435D01*
X140056695Y-71180585D01*
X140087124Y-71130663D01*
X140730185Y-70487601D01*
X140733854Y-70484219D01*
X140776100Y-70448337D01*
X140825104Y-70383872D01*
X140875842Y-70320753D01*
X140875842Y-70320751D01*
X140875844Y-70320750D01*
X140876432Y-70319829D01*
X140887426Y-70302105D01*
X140888050Y-70301069D01*
X140888054Y-70301064D01*
X140922055Y-70227570D01*
X140958037Y-70155021D01*
X140958037Y-70155017D01*
X140958440Y-70153923D01*
X140965329Y-70134361D01*
X140965727Y-70133177D01*
X140965732Y-70133167D01*
X140983139Y-70054083D01*
X141002684Y-69975494D01*
X141002684Y-69975492D01*
X141002833Y-69974400D01*
X141005371Y-69953677D01*
X141005500Y-69952497D01*
X141005500Y-69871530D01*
X141007459Y-69799199D01*
X141007693Y-69790568D01*
X141007692Y-69790567D01*
X141007693Y-69790563D01*
X141007608Y-69789520D01*
X141005500Y-69767352D01*
X141005500Y-68317087D01*
X141005705Y-68312052D01*
X141010201Y-68256836D01*
X141008689Y-68245741D01*
X140999270Y-68176607D01*
X140990514Y-68096090D01*
X140990513Y-68096088D01*
X140990513Y-68096084D01*
X140990280Y-68095026D01*
X140985507Y-68074663D01*
X140985227Y-68073536D01*
X140985227Y-68073532D01*
X140978846Y-68056164D01*
X140957294Y-67997499D01*
X140952371Y-67982888D01*
X140931444Y-67920779D01*
X140931441Y-67920774D01*
X140930950Y-67919712D01*
X140921930Y-67900886D01*
X140921434Y-67899886D01*
X140900966Y-67867865D01*
X140877806Y-67831631D01*
X140836070Y-67762264D01*
X140836069Y-67762263D01*
X140836068Y-67762261D01*
X140835409Y-67761395D01*
X140822541Y-67744934D01*
X140821802Y-67744014D01*
X140821801Y-67744013D01*
X140821800Y-67744011D01*
X140764539Y-67686750D01*
X140708849Y-67627959D01*
X140708088Y-67627312D01*
X140690881Y-67613092D01*
X140087126Y-67009337D01*
X140053641Y-66948014D01*
X140055032Y-66889562D01*
X140056605Y-66883692D01*
X140090635Y-66756692D01*
X140110468Y-66530000D01*
X140090635Y-66303308D01*
X140055032Y-66170435D01*
X140056695Y-66100585D01*
X140087124Y-66050663D01*
X140730185Y-65407601D01*
X140733854Y-65404219D01*
X140776100Y-65368337D01*
X140825104Y-65303872D01*
X140875842Y-65240753D01*
X140875842Y-65240751D01*
X140875844Y-65240750D01*
X140876432Y-65239829D01*
X140887426Y-65222105D01*
X140888050Y-65221069D01*
X140888054Y-65221064D01*
X140922055Y-65147570D01*
X140958037Y-65075021D01*
X140958037Y-65075017D01*
X140958440Y-65073923D01*
X140965329Y-65054361D01*
X140965727Y-65053177D01*
X140965732Y-65053167D01*
X140983139Y-64974083D01*
X141002684Y-64895494D01*
X141002684Y-64895492D01*
X141002833Y-64894400D01*
X141005371Y-64873677D01*
X141005500Y-64872497D01*
X141005500Y-64791530D01*
X141006817Y-64742911D01*
X141007693Y-64710568D01*
X141007692Y-64710567D01*
X141007693Y-64710563D01*
X141007608Y-64709520D01*
X141005500Y-64687352D01*
X141005500Y-63467899D01*
X141005705Y-63462864D01*
X141010201Y-63407648D01*
X141005364Y-63372149D01*
X140999270Y-63327419D01*
X140990514Y-63246902D01*
X140990513Y-63246900D01*
X140990513Y-63246896D01*
X140990280Y-63245838D01*
X140985507Y-63225475D01*
X140985227Y-63224348D01*
X140985227Y-63224344D01*
X140957294Y-63148311D01*
X140931444Y-63071591D01*
X140931441Y-63071586D01*
X140930950Y-63070524D01*
X140921930Y-63051698D01*
X140921434Y-63050698D01*
X140877806Y-62982443D01*
X140837146Y-62914865D01*
X140836070Y-62913076D01*
X140836069Y-62913075D01*
X140836068Y-62913073D01*
X140835409Y-62912207D01*
X140822541Y-62895746D01*
X140821802Y-62894826D01*
X140821801Y-62894825D01*
X140821800Y-62894823D01*
X140764539Y-62837562D01*
X140708849Y-62778771D01*
X140708088Y-62778124D01*
X140690881Y-62763904D01*
X140026902Y-62099925D01*
X139993417Y-62038602D01*
X139998401Y-61968910D01*
X140002201Y-61959839D01*
X140016425Y-61929336D01*
X140031739Y-61896496D01*
X140090635Y-61676692D01*
X140110468Y-61450000D01*
X140090635Y-61223308D01*
X140055032Y-61090435D01*
X140056695Y-61020585D01*
X140087124Y-60970663D01*
X140730185Y-60327601D01*
X140733854Y-60324219D01*
X140776100Y-60288337D01*
X140825104Y-60223872D01*
X140875842Y-60160753D01*
X140875842Y-60160751D01*
X140875844Y-60160750D01*
X140876432Y-60159829D01*
X140887426Y-60142105D01*
X140888050Y-60141069D01*
X140888054Y-60141064D01*
X140922055Y-60067570D01*
X140958037Y-59995021D01*
X140958037Y-59995017D01*
X140958440Y-59993923D01*
X140965329Y-59974361D01*
X140965727Y-59973177D01*
X140965732Y-59973167D01*
X140983139Y-59894083D01*
X141002684Y-59815494D01*
X141002684Y-59815492D01*
X141002833Y-59814400D01*
X141005371Y-59793677D01*
X141005500Y-59792497D01*
X141005500Y-59711530D01*
X141007065Y-59653756D01*
X141007693Y-59630568D01*
X141007692Y-59630567D01*
X141007693Y-59630563D01*
X141007608Y-59629520D01*
X141005500Y-59607352D01*
X141005500Y-58157087D01*
X141005705Y-58152052D01*
X141010201Y-58096836D01*
X141007276Y-58075370D01*
X140999270Y-58016607D01*
X140990514Y-57936090D01*
X140990513Y-57936088D01*
X140990513Y-57936084D01*
X140990280Y-57935026D01*
X140985507Y-57914663D01*
X140985227Y-57913536D01*
X140985227Y-57913532D01*
X140964352Y-57856712D01*
X140957294Y-57837499D01*
X140931444Y-57760779D01*
X140931441Y-57760774D01*
X140930950Y-57759712D01*
X140921930Y-57740886D01*
X140921434Y-57739886D01*
X140900966Y-57707865D01*
X140877806Y-57671631D01*
X140836070Y-57602264D01*
X140836069Y-57602263D01*
X140836068Y-57602261D01*
X140835409Y-57601395D01*
X140822541Y-57584934D01*
X140821802Y-57584014D01*
X140821801Y-57584013D01*
X140821800Y-57584011D01*
X140764539Y-57526750D01*
X140708849Y-57467959D01*
X140708088Y-57467312D01*
X140690881Y-57453092D01*
X140087126Y-56849337D01*
X140053641Y-56788014D01*
X140055032Y-56729562D01*
X140056605Y-56723692D01*
X140090635Y-56596692D01*
X140110468Y-56370000D01*
X140090635Y-56143308D01*
X140031739Y-55923504D01*
X139935568Y-55717266D01*
X139829660Y-55566013D01*
X139805045Y-55530858D01*
X139644141Y-55369954D01*
X139457734Y-55239432D01*
X139457728Y-55239429D01*
X139399725Y-55212382D01*
X139347285Y-55166210D01*
X139328133Y-55099017D01*
X139348348Y-55032135D01*
X139399725Y-54987618D01*
X139457734Y-54960568D01*
X139644139Y-54830047D01*
X139805047Y-54669139D01*
X139935568Y-54482734D01*
X140031739Y-54276496D01*
X140090635Y-54056692D01*
X140110468Y-53830000D01*
X140090635Y-53603308D01*
X140031739Y-53383504D01*
X139935568Y-53177266D01*
X139805047Y-52990861D01*
X139805045Y-52990858D01*
X139644141Y-52829954D01*
X139457734Y-52699432D01*
X139457732Y-52699431D01*
X139433184Y-52687984D01*
X139399132Y-52672105D01*
X139346694Y-52625934D01*
X139327542Y-52558740D01*
X139347758Y-52491859D01*
X139399134Y-52447341D01*
X139457484Y-52420132D01*
X139643820Y-52289657D01*
X139804657Y-52128820D01*
X139935134Y-51942482D01*
X140031265Y-51736326D01*
X140031269Y-51736317D01*
X140083872Y-51540000D01*
X138720686Y-51540000D01*
X138732641Y-51528045D01*
X138790165Y-51415148D01*
X138809986Y-51290000D01*
X138790165Y-51164852D01*
X138732641Y-51051955D01*
X138720686Y-51040000D01*
X140083872Y-51040000D01*
X140083872Y-51039999D01*
X140031269Y-50843682D01*
X140031265Y-50843673D01*
X139935134Y-50637517D01*
X139804657Y-50451179D01*
X139643820Y-50290342D01*
X139457482Y-50159865D01*
X139399133Y-50132657D01*
X139346694Y-50086484D01*
X139327542Y-50019291D01*
X139347758Y-49952410D01*
X139399129Y-49907895D01*
X139457734Y-49880568D01*
X139644139Y-49750047D01*
X139805047Y-49589139D01*
X139935568Y-49402734D01*
X140031739Y-49196496D01*
X140090635Y-48976692D01*
X140110468Y-48750000D01*
X140090635Y-48523308D01*
X140031739Y-48303504D01*
X139935568Y-48097266D01*
X139805270Y-47911179D01*
X139805045Y-47910858D01*
X139644141Y-47749954D01*
X139457734Y-47619432D01*
X139457732Y-47619431D01*
X139251497Y-47523261D01*
X139251488Y-47523258D01*
X139031697Y-47464366D01*
X139031687Y-47464364D01*
X138861784Y-47449500D01*
X137948216Y-47449500D01*
X137778312Y-47464364D01*
X137778302Y-47464366D01*
X137558511Y-47523258D01*
X137558502Y-47523261D01*
X137352267Y-47619431D01*
X137352265Y-47619432D01*
X137165858Y-47749954D01*
X137004954Y-47910858D01*
X136874432Y-48097265D01*
X136874431Y-48097267D01*
X136778261Y-48303502D01*
X136778258Y-48303511D01*
X136719366Y-48523302D01*
X136719364Y-48523313D01*
X136699532Y-48749998D01*
X136699532Y-48750001D01*
X136719364Y-48976686D01*
X136719366Y-48976697D01*
X136778258Y-49196488D01*
X136778260Y-49196492D01*
X136778261Y-49196496D01*
X136808883Y-49262165D01*
X136835588Y-49319433D01*
X136846080Y-49388510D01*
X136817560Y-49452295D01*
X136810891Y-49459516D01*
X136785231Y-49485178D01*
X136723909Y-49518665D01*
X136697546Y-49521500D01*
X129375429Y-49521500D01*
X129308390Y-49501815D01*
X129262635Y-49449011D01*
X129253246Y-49391498D01*
X129252060Y-49391498D01*
X129252060Y-49385002D01*
X129252060Y-49385000D01*
X129232274Y-49196744D01*
X129203169Y-49107168D01*
X129197100Y-49068850D01*
X129197100Y-48837048D01*
X129216785Y-48770009D01*
X129233414Y-48749371D01*
X129340847Y-48641939D01*
X129471368Y-48455534D01*
X129478693Y-48439823D01*
X129524862Y-48387386D01*
X129592054Y-48368232D01*
X129658936Y-48388445D01*
X129703457Y-48439823D01*
X129710665Y-48455281D01*
X129710666Y-48455283D01*
X129761773Y-48528271D01*
X129761773Y-48528272D01*
X130442845Y-47847199D01*
X130455635Y-47927948D01*
X130513159Y-48040845D01*
X130602755Y-48130441D01*
X130715652Y-48187965D01*
X130796399Y-48200753D01*
X130115326Y-48881825D01*
X130115326Y-48881826D01*
X130188312Y-48932931D01*
X130188316Y-48932933D01*
X130394473Y-49029065D01*
X130394482Y-49029069D01*
X130614189Y-49087939D01*
X130614200Y-49087941D01*
X130840798Y-49107766D01*
X130840802Y-49107766D01*
X131067399Y-49087941D01*
X131067410Y-49087939D01*
X131287117Y-49029069D01*
X131287131Y-49029064D01*
X131493278Y-48932936D01*
X131566272Y-48881825D01*
X130885201Y-48200753D01*
X130965948Y-48187965D01*
X131078845Y-48130441D01*
X131168441Y-48040845D01*
X131225965Y-47927948D01*
X131238753Y-47847200D01*
X131919825Y-48528272D01*
X131970936Y-48455278D01*
X132067064Y-48249131D01*
X132067069Y-48249117D01*
X132125939Y-48029410D01*
X132125941Y-48029399D01*
X132145766Y-47802802D01*
X132145766Y-47802797D01*
X132125941Y-47576200D01*
X132125939Y-47576189D01*
X132067069Y-47356482D01*
X132067065Y-47356473D01*
X131970933Y-47150317D01*
X131879421Y-47019624D01*
X131857094Y-46953418D01*
X131874104Y-46885650D01*
X131925052Y-46837837D01*
X131980996Y-46824500D01*
X136444913Y-46824500D01*
X136449948Y-46824705D01*
X136469562Y-46826301D01*
X136505167Y-46829201D01*
X136585392Y-46818270D01*
X136665910Y-46809514D01*
X136665914Y-46809512D01*
X136667036Y-46809266D01*
X136687307Y-46804515D01*
X136688462Y-46804228D01*
X136688462Y-46804227D01*
X136688468Y-46804227D01*
X136764486Y-46776299D01*
X136841221Y-46750444D01*
X136841227Y-46750439D01*
X136842351Y-46749920D01*
X136861123Y-46740923D01*
X136862112Y-46740433D01*
X136862116Y-46740432D01*
X136930353Y-46696815D01*
X136999736Y-46655070D01*
X136999741Y-46655065D01*
X137000669Y-46654360D01*
X137017076Y-46641533D01*
X137017986Y-46640802D01*
X137017986Y-46640801D01*
X137017989Y-46640800D01*
X137046617Y-46612170D01*
X137075248Y-46583541D01*
X137114867Y-46546011D01*
X137134041Y-46527849D01*
X137134044Y-46527845D01*
X137134751Y-46527012D01*
X137148905Y-46509882D01*
X137925663Y-45733124D01*
X137986984Y-45699641D01*
X138045435Y-45701032D01*
X138096502Y-45714715D01*
X138178308Y-45736635D01*
X138340230Y-45750801D01*
X138404998Y-45756468D01*
X138405000Y-45756468D01*
X138405002Y-45756468D01*
X138461673Y-45751509D01*
X138631692Y-45736635D01*
X138851496Y-45677739D01*
X139057734Y-45581568D01*
X139244139Y-45451047D01*
X139405047Y-45290139D01*
X139535568Y-45103734D01*
X139631739Y-44897496D01*
X139690635Y-44677692D01*
X139705500Y-44507784D01*
X139705500Y-43942001D01*
X140751332Y-43942001D01*
X140771164Y-44168686D01*
X140771166Y-44168697D01*
X140830058Y-44388488D01*
X140830061Y-44388497D01*
X140926231Y-44594732D01*
X140926232Y-44594734D01*
X141056754Y-44781141D01*
X141217658Y-44942045D01*
X141217661Y-44942047D01*
X141404066Y-45072568D01*
X141610304Y-45168739D01*
X141830108Y-45227635D01*
X141992030Y-45241801D01*
X142056798Y-45247468D01*
X142056800Y-45247468D01*
X142056802Y-45247468D01*
X142113473Y-45242509D01*
X142283492Y-45227635D01*
X142503296Y-45168739D01*
X142709534Y-45072568D01*
X142895939Y-44942047D01*
X143056847Y-44781139D01*
X143187368Y-44594734D01*
X143194693Y-44579023D01*
X143240862Y-44526586D01*
X143308054Y-44507432D01*
X143374936Y-44527645D01*
X143419457Y-44579023D01*
X143426665Y-44594481D01*
X143426666Y-44594483D01*
X143477773Y-44667471D01*
X143477774Y-44667472D01*
X144158846Y-43986399D01*
X144171635Y-44067148D01*
X144229159Y-44180045D01*
X144318755Y-44269641D01*
X144431652Y-44327165D01*
X144512399Y-44339953D01*
X143831326Y-45021025D01*
X143831326Y-45021026D01*
X143904312Y-45072131D01*
X143904316Y-45072133D01*
X144110473Y-45168265D01*
X144110482Y-45168269D01*
X144330189Y-45227139D01*
X144330200Y-45227141D01*
X144556798Y-45246966D01*
X144556802Y-45246966D01*
X144783399Y-45227141D01*
X144783410Y-45227139D01*
X145003117Y-45168269D01*
X145003131Y-45168264D01*
X145209278Y-45072136D01*
X145282272Y-45021025D01*
X144601201Y-44339953D01*
X144681948Y-44327165D01*
X144794845Y-44269641D01*
X144884441Y-44180045D01*
X144941965Y-44067148D01*
X144954753Y-43986400D01*
X145635825Y-44667472D01*
X145686936Y-44594478D01*
X145783064Y-44388331D01*
X145783069Y-44388317D01*
X145841939Y-44168610D01*
X145841941Y-44168599D01*
X145861766Y-43942002D01*
X145861766Y-43941997D01*
X145841941Y-43715400D01*
X145841939Y-43715389D01*
X145783069Y-43495682D01*
X145783065Y-43495673D01*
X145686933Y-43289516D01*
X145686931Y-43289512D01*
X145635826Y-43216526D01*
X145635825Y-43216526D01*
X144954753Y-43897598D01*
X144941965Y-43816852D01*
X144884441Y-43703955D01*
X144794845Y-43614359D01*
X144681948Y-43556835D01*
X144601200Y-43544046D01*
X145282272Y-42862974D01*
X145282271Y-42862973D01*
X145209283Y-42811866D01*
X145209281Y-42811865D01*
X145003126Y-42715734D01*
X145003117Y-42715730D01*
X144783410Y-42656860D01*
X144783399Y-42656858D01*
X144556802Y-42637034D01*
X144556798Y-42637034D01*
X144330200Y-42656858D01*
X144330189Y-42656860D01*
X144110482Y-42715730D01*
X144110473Y-42715734D01*
X143904313Y-42811868D01*
X143831327Y-42862972D01*
X143831326Y-42862973D01*
X144512400Y-43544046D01*
X144431652Y-43556835D01*
X144318755Y-43614359D01*
X144229159Y-43703955D01*
X144171635Y-43816852D01*
X144158846Y-43897599D01*
X143477773Y-43216526D01*
X143477772Y-43216527D01*
X143426668Y-43289512D01*
X143419456Y-43304979D01*
X143373282Y-43357417D01*
X143306088Y-43376567D01*
X143239207Y-43356350D01*
X143194693Y-43304976D01*
X143187368Y-43289266D01*
X143056847Y-43102861D01*
X143056845Y-43102858D01*
X142895941Y-42941954D01*
X142709534Y-42811432D01*
X142709532Y-42811431D01*
X142503297Y-42715261D01*
X142503288Y-42715258D01*
X142283497Y-42656366D01*
X142283493Y-42656365D01*
X142283492Y-42656365D01*
X142283491Y-42656364D01*
X142283486Y-42656364D01*
X142056802Y-42636532D01*
X142056798Y-42636532D01*
X141830113Y-42656364D01*
X141830102Y-42656366D01*
X141610311Y-42715258D01*
X141610302Y-42715261D01*
X141404067Y-42811431D01*
X141404065Y-42811432D01*
X141217658Y-42941954D01*
X141056754Y-43102858D01*
X140926232Y-43289265D01*
X140926231Y-43289267D01*
X140830061Y-43495502D01*
X140830058Y-43495511D01*
X140771166Y-43715302D01*
X140771164Y-43715313D01*
X140751332Y-43941998D01*
X140751332Y-43942001D01*
X139705500Y-43942001D01*
X139705500Y-43594216D01*
X139690635Y-43424308D01*
X139631739Y-43204504D01*
X139535568Y-42998266D01*
X139405047Y-42811861D01*
X139405045Y-42811858D01*
X139244141Y-42650954D01*
X139057734Y-42520432D01*
X139057732Y-42520431D01*
X138851497Y-42424261D01*
X138851488Y-42424258D01*
X138631697Y-42365366D01*
X138631693Y-42365365D01*
X138631692Y-42365365D01*
X138631691Y-42365364D01*
X138631686Y-42365364D01*
X138405002Y-42345532D01*
X138404998Y-42345532D01*
X138175547Y-42365606D01*
X138107047Y-42351839D01*
X138056864Y-42303224D01*
X138040931Y-42235195D01*
X138044944Y-42213749D01*
X138044322Y-42213617D01*
X138045672Y-42207261D01*
X138045674Y-42207256D01*
X138063321Y-42039344D01*
X138089904Y-41974734D01*
X138098941Y-41964648D01*
X138304573Y-41759016D01*
X138365895Y-41725534D01*
X138392253Y-41722700D01*
X140943058Y-41722700D01*
X141010097Y-41742385D01*
X141042012Y-41771973D01*
X141145820Y-41909438D01*
X141310237Y-42059323D01*
X141310239Y-42059325D01*
X141499395Y-42176445D01*
X141499396Y-42176445D01*
X141499399Y-42176447D01*
X141706860Y-42256818D01*
X141925557Y-42297700D01*
X141925559Y-42297700D01*
X142148041Y-42297700D01*
X142148043Y-42297700D01*
X142366740Y-42256818D01*
X142574201Y-42176447D01*
X142763362Y-42059324D01*
X142927781Y-41909436D01*
X143061858Y-41731889D01*
X143161029Y-41532728D01*
X143221915Y-41318736D01*
X143242443Y-41097200D01*
X145911157Y-41097200D01*
X145931684Y-41318735D01*
X145931685Y-41318737D01*
X145992569Y-41532723D01*
X145992575Y-41532738D01*
X146091738Y-41731883D01*
X146091743Y-41731891D01*
X146225820Y-41909438D01*
X146390237Y-42059323D01*
X146390239Y-42059325D01*
X146579395Y-42176445D01*
X146579396Y-42176445D01*
X146579399Y-42176447D01*
X146786860Y-42256818D01*
X147005557Y-42297700D01*
X147005559Y-42297700D01*
X147228041Y-42297700D01*
X147228043Y-42297700D01*
X147446740Y-42256818D01*
X147654201Y-42176447D01*
X147843362Y-42059324D01*
X148007781Y-41909436D01*
X148141858Y-41731889D01*
X148241029Y-41532728D01*
X148301915Y-41318736D01*
X148322443Y-41097200D01*
X148301915Y-40875664D01*
X148241029Y-40661672D01*
X148229046Y-40637607D01*
X148141861Y-40462516D01*
X148141856Y-40462508D01*
X148007779Y-40284961D01*
X147843362Y-40135076D01*
X147843360Y-40135074D01*
X147654204Y-40017954D01*
X147654198Y-40017952D01*
X147446740Y-39937582D01*
X147228043Y-39896700D01*
X147005557Y-39896700D01*
X146786860Y-39937582D01*
X146655664Y-39988407D01*
X146579401Y-40017952D01*
X146579395Y-40017954D01*
X146390239Y-40135074D01*
X146390237Y-40135076D01*
X146225820Y-40284961D01*
X146091743Y-40462508D01*
X146091738Y-40462516D01*
X145992575Y-40661661D01*
X145992569Y-40661676D01*
X145931685Y-40875662D01*
X145931684Y-40875664D01*
X145911157Y-41097199D01*
X145911157Y-41097200D01*
X143242443Y-41097200D01*
X143221915Y-40875664D01*
X143161029Y-40661672D01*
X143149046Y-40637607D01*
X143061861Y-40462516D01*
X143061856Y-40462508D01*
X142927779Y-40284961D01*
X142763362Y-40135076D01*
X142763360Y-40135074D01*
X142574204Y-40017954D01*
X142574198Y-40017952D01*
X142366740Y-39937582D01*
X142148043Y-39896700D01*
X141925557Y-39896700D01*
X141706860Y-39937582D01*
X141575664Y-39988407D01*
X141499401Y-40017952D01*
X141499395Y-40017954D01*
X141310239Y-40135074D01*
X141310237Y-40135076D01*
X141145820Y-40284961D01*
X141042012Y-40422427D01*
X140985903Y-40464063D01*
X140943058Y-40471700D01*
X138164538Y-40471700D01*
X138148921Y-40469976D01*
X138148894Y-40470262D01*
X138141132Y-40469527D01*
X138072004Y-40471700D01*
X138042450Y-40471700D01*
X138041729Y-40471790D01*
X138035557Y-40472569D01*
X138029745Y-40473026D01*
X137983173Y-40474490D01*
X137983172Y-40474490D01*
X137963929Y-40480081D01*
X137944879Y-40484025D01*
X137925011Y-40486534D01*
X137881684Y-40503688D01*
X137876158Y-40505579D01*
X137831414Y-40518579D01*
X137831410Y-40518581D01*
X137814166Y-40528779D01*
X137796705Y-40537333D01*
X137778074Y-40544710D01*
X137778062Y-40544717D01*
X137740370Y-40572102D01*
X137735487Y-40575309D01*
X137695380Y-40599029D01*
X137681214Y-40613195D01*
X137666424Y-40625827D01*
X137650214Y-40637604D01*
X137650211Y-40637607D01*
X137620510Y-40673509D01*
X137616577Y-40677831D01*
X137212228Y-41082181D01*
X137150905Y-41115666D01*
X137124547Y-41118500D01*
X137065354Y-41118500D01*
X137032897Y-41125398D01*
X136880197Y-41157855D01*
X136880192Y-41157857D01*
X136707270Y-41234848D01*
X136707265Y-41234851D01*
X136554130Y-41346110D01*
X136554126Y-41346114D01*
X136548400Y-41352474D01*
X136488913Y-41389121D01*
X136456252Y-41393500D01*
X127082743Y-41393500D01*
X127067122Y-41391775D01*
X127067095Y-41392061D01*
X127059333Y-41391326D01*
X126990172Y-41393500D01*
X126960649Y-41393500D01*
X126953778Y-41394367D01*
X126947959Y-41394825D01*
X126901374Y-41396289D01*
X126901368Y-41396290D01*
X126882126Y-41401880D01*
X126863087Y-41405823D01*
X126843217Y-41408334D01*
X126843203Y-41408337D01*
X126799883Y-41425488D01*
X126794358Y-41427380D01*
X126749613Y-41440380D01*
X126749610Y-41440381D01*
X126732366Y-41450579D01*
X126714905Y-41459133D01*
X126696274Y-41466510D01*
X126696262Y-41466517D01*
X126658570Y-41493902D01*
X126653687Y-41497109D01*
X126613580Y-41520829D01*
X126599414Y-41534995D01*
X126584624Y-41547627D01*
X126568414Y-41559404D01*
X126568411Y-41559407D01*
X126538710Y-41595309D01*
X126534777Y-41599631D01*
X125823014Y-42311393D01*
X125761691Y-42344878D01*
X125724527Y-42347240D01*
X125705003Y-42345532D01*
X125704998Y-42345532D01*
X125478313Y-42365364D01*
X125478302Y-42365366D01*
X125258511Y-42424258D01*
X125258502Y-42424261D01*
X125052267Y-42520431D01*
X125052265Y-42520432D01*
X124865858Y-42650954D01*
X124704954Y-42811858D01*
X124574432Y-42998265D01*
X124574431Y-42998267D01*
X124547382Y-43056275D01*
X124501209Y-43108714D01*
X124434016Y-43127866D01*
X124367135Y-43107650D01*
X124322618Y-43056275D01*
X124295568Y-42998267D01*
X124295567Y-42998265D01*
X124256137Y-42941953D01*
X124165047Y-42811861D01*
X124165045Y-42811858D01*
X124004141Y-42650954D01*
X123817734Y-42520432D01*
X123817732Y-42520431D01*
X123611497Y-42424261D01*
X123611488Y-42424258D01*
X123391697Y-42365366D01*
X123391693Y-42365365D01*
X123391692Y-42365365D01*
X123391691Y-42365364D01*
X123391686Y-42365364D01*
X123165002Y-42345532D01*
X123164998Y-42345532D01*
X122938313Y-42365364D01*
X122938302Y-42365366D01*
X122718511Y-42424258D01*
X122718502Y-42424261D01*
X122512267Y-42520431D01*
X122512265Y-42520432D01*
X122325858Y-42650954D01*
X122164954Y-42811858D01*
X122034432Y-42998265D01*
X122034431Y-42998267D01*
X122007382Y-43056275D01*
X121961209Y-43108714D01*
X121894016Y-43127866D01*
X121827135Y-43107650D01*
X121782618Y-43056275D01*
X121755568Y-42998267D01*
X121755567Y-42998265D01*
X121716137Y-42941953D01*
X121625047Y-42811861D01*
X121625045Y-42811858D01*
X121464141Y-42650954D01*
X121277734Y-42520432D01*
X121277732Y-42520431D01*
X121071497Y-42424261D01*
X121071488Y-42424258D01*
X120851697Y-42365366D01*
X120851693Y-42365365D01*
X120851692Y-42365365D01*
X120851691Y-42365364D01*
X120851686Y-42365364D01*
X120625002Y-42345532D01*
X120624998Y-42345532D01*
X120398313Y-42365364D01*
X120398302Y-42365366D01*
X120178511Y-42424258D01*
X120178502Y-42424261D01*
X119972267Y-42520431D01*
X119972265Y-42520432D01*
X119785858Y-42650954D01*
X119624954Y-42811858D01*
X119494432Y-42998265D01*
X119494431Y-42998267D01*
X119467382Y-43056275D01*
X119421209Y-43108714D01*
X119354016Y-43127866D01*
X119287135Y-43107650D01*
X119242618Y-43056275D01*
X119215568Y-42998267D01*
X119215567Y-42998265D01*
X119176137Y-42941953D01*
X119085047Y-42811861D01*
X119085045Y-42811858D01*
X118924141Y-42650954D01*
X118737734Y-42520432D01*
X118737732Y-42520431D01*
X118531497Y-42424261D01*
X118531488Y-42424258D01*
X118311697Y-42365366D01*
X118311693Y-42365365D01*
X118311692Y-42365365D01*
X118311691Y-42365364D01*
X118311686Y-42365364D01*
X118085002Y-42345532D01*
X118084998Y-42345532D01*
X117858313Y-42365364D01*
X117858302Y-42365366D01*
X117638511Y-42424258D01*
X117638502Y-42424261D01*
X117432267Y-42520431D01*
X117432265Y-42520432D01*
X117245858Y-42650954D01*
X117084954Y-42811858D01*
X116954432Y-42998265D01*
X116954431Y-42998267D01*
X116927382Y-43056275D01*
X116881209Y-43108714D01*
X116814016Y-43127866D01*
X116747135Y-43107650D01*
X116702618Y-43056275D01*
X116675568Y-42998267D01*
X116675567Y-42998265D01*
X116636137Y-42941953D01*
X116545047Y-42811861D01*
X116545045Y-42811858D01*
X116384141Y-42650954D01*
X116197734Y-42520432D01*
X116197732Y-42520431D01*
X115991497Y-42424261D01*
X115991488Y-42424258D01*
X115771697Y-42365366D01*
X115771693Y-42365365D01*
X115771692Y-42365365D01*
X115771691Y-42365364D01*
X115771686Y-42365364D01*
X115545002Y-42345532D01*
X115544998Y-42345532D01*
X115318313Y-42365364D01*
X115318302Y-42365366D01*
X115098511Y-42424258D01*
X115098502Y-42424261D01*
X114892267Y-42520431D01*
X114892265Y-42520432D01*
X114705858Y-42650954D01*
X114544954Y-42811858D01*
X114414432Y-42998265D01*
X114414431Y-42998267D01*
X114318261Y-43204502D01*
X114318258Y-43204511D01*
X114259366Y-43424302D01*
X114259364Y-43424312D01*
X114244500Y-43594216D01*
X114244500Y-44507784D01*
X114259364Y-44677687D01*
X114259366Y-44677697D01*
X114318258Y-44897488D01*
X114318261Y-44897497D01*
X114414431Y-45103732D01*
X114414432Y-45103734D01*
X114544954Y-45290141D01*
X114705858Y-45451045D01*
X114752693Y-45483839D01*
X114892266Y-45581568D01*
X115098504Y-45677739D01*
X115098509Y-45677740D01*
X115098511Y-45677741D01*
X115151415Y-45691916D01*
X115318308Y-45736635D01*
X115480230Y-45750801D01*
X115544998Y-45756468D01*
X115545000Y-45756468D01*
X115545002Y-45756468D01*
X115601673Y-45751509D01*
X115771692Y-45736635D01*
X115991496Y-45677739D01*
X116197734Y-45581568D01*
X116384139Y-45451047D01*
X116545047Y-45290139D01*
X116675568Y-45103734D01*
X116702618Y-45045724D01*
X116748790Y-44993285D01*
X116815983Y-44974133D01*
X116882865Y-44994348D01*
X116927381Y-45045724D01*
X116939899Y-45072568D01*
X116954429Y-45103728D01*
X116954432Y-45103734D01*
X117084954Y-45290141D01*
X117245858Y-45451045D01*
X117292693Y-45483839D01*
X117432266Y-45581568D01*
X117638504Y-45677739D01*
X117638509Y-45677740D01*
X117638511Y-45677741D01*
X117691415Y-45691916D01*
X117858308Y-45736635D01*
X118020230Y-45750801D01*
X118084998Y-45756468D01*
X118085000Y-45756468D01*
X118085002Y-45756468D01*
X118141673Y-45751509D01*
X118311692Y-45736635D01*
X118531496Y-45677739D01*
X118737734Y-45581568D01*
X118924139Y-45451047D01*
X119085047Y-45290139D01*
X119215568Y-45103734D01*
X119242618Y-45045724D01*
X119288790Y-44993285D01*
X119355983Y-44974133D01*
X119422865Y-44994348D01*
X119467381Y-45045724D01*
X119479899Y-45072568D01*
X119494429Y-45103728D01*
X119494432Y-45103734D01*
X119624954Y-45290141D01*
X119785858Y-45451045D01*
X119832693Y-45483839D01*
X119972266Y-45581568D01*
X120178504Y-45677739D01*
X120178509Y-45677740D01*
X120178511Y-45677741D01*
X120231415Y-45691916D01*
X120398308Y-45736635D01*
X120560230Y-45750801D01*
X120624998Y-45756468D01*
X120625000Y-45756468D01*
X120625002Y-45756468D01*
X120681673Y-45751509D01*
X120851692Y-45736635D01*
X121071496Y-45677739D01*
X121277734Y-45581568D01*
X121464139Y-45451047D01*
X121625047Y-45290139D01*
X121755568Y-45103734D01*
X121782618Y-45045724D01*
X121828790Y-44993285D01*
X121895983Y-44974133D01*
X121962865Y-44994348D01*
X122007381Y-45045724D01*
X122019899Y-45072568D01*
X122034429Y-45103728D01*
X122034432Y-45103734D01*
X122164954Y-45290141D01*
X122212349Y-45337536D01*
X122245834Y-45398859D01*
X122240850Y-45468551D01*
X122216820Y-45508187D01*
X122178468Y-45550782D01*
X122178464Y-45550787D01*
X122083821Y-45714715D01*
X122083818Y-45714722D01*
X122025327Y-45894740D01*
X122025326Y-45894744D01*
X122005540Y-46083000D01*
X122025326Y-46271256D01*
X122025327Y-46271259D01*
X122083818Y-46451277D01*
X122083821Y-46451284D01*
X122178467Y-46615216D01*
X122294827Y-46744446D01*
X122305129Y-46755888D01*
X122458265Y-46867148D01*
X122458270Y-46867151D01*
X122631192Y-46944142D01*
X122631197Y-46944144D01*
X122816354Y-46983500D01*
X122816355Y-46983500D01*
X123005644Y-46983500D01*
X123005646Y-46983500D01*
X123190803Y-46944144D01*
X123363730Y-46867151D01*
X123516871Y-46755888D01*
X123643533Y-46615216D01*
X123738179Y-46451284D01*
X123779802Y-46323181D01*
X123819239Y-46265507D01*
X123883598Y-46238308D01*
X123897733Y-46237500D01*
X124597932Y-46237500D01*
X124664971Y-46257185D01*
X124710726Y-46309989D01*
X124721252Y-46348535D01*
X124739826Y-46525256D01*
X124739827Y-46525259D01*
X124798318Y-46705277D01*
X124798321Y-46705284D01*
X124892967Y-46869216D01*
X124960431Y-46944142D01*
X125019629Y-47009888D01*
X125172765Y-47121148D01*
X125172770Y-47121151D01*
X125345692Y-47198142D01*
X125345697Y-47198144D01*
X125530854Y-47237500D01*
X125530855Y-47237500D01*
X125720144Y-47237500D01*
X125720146Y-47237500D01*
X125905303Y-47198144D01*
X126078230Y-47121151D01*
X126231371Y-47009888D01*
X126358033Y-46869216D01*
X126426606Y-46750444D01*
X126427151Y-46749500D01*
X126477718Y-46701285D01*
X126534538Y-46687500D01*
X126787653Y-46687500D01*
X126803273Y-46689224D01*
X126803300Y-46688939D01*
X126811056Y-46689671D01*
X126811063Y-46689673D01*
X126880210Y-46687500D01*
X126909746Y-46687500D01*
X126916624Y-46686630D01*
X126922437Y-46686172D01*
X126969023Y-46684709D01*
X126988265Y-46679117D01*
X127007308Y-46675174D01*
X127027188Y-46672664D01*
X127070518Y-46655507D01*
X127076042Y-46653617D01*
X127079792Y-46652527D01*
X127120786Y-46640618D01*
X127138025Y-46630422D01*
X127155499Y-46621862D01*
X127174123Y-46614488D01*
X127174123Y-46614487D01*
X127174128Y-46614486D01*
X127211845Y-46587082D01*
X127216701Y-46583892D01*
X127256816Y-46560170D01*
X127270982Y-46546003D01*
X127285777Y-46533368D01*
X127301980Y-46521596D01*
X127301979Y-46521596D01*
X127301983Y-46521594D01*
X127331690Y-46485683D01*
X127335614Y-46481372D01*
X127435170Y-46381818D01*
X127496493Y-46348334D01*
X127522850Y-46345500D01*
X127829416Y-46345500D01*
X127896455Y-46365185D01*
X127942210Y-46417989D01*
X127952154Y-46487147D01*
X127923129Y-46550703D01*
X127881821Y-46581882D01*
X127688067Y-46672231D01*
X127688065Y-46672232D01*
X127501658Y-46802754D01*
X127340754Y-46963658D01*
X127210232Y-47150065D01*
X127210231Y-47150067D01*
X127114061Y-47356302D01*
X127114058Y-47356311D01*
X127055166Y-47576102D01*
X127055164Y-47576113D01*
X127035332Y-47802798D01*
X127035332Y-47802800D01*
X127044684Y-47909692D01*
X127030917Y-47978192D01*
X126982302Y-48028375D01*
X126921156Y-48044500D01*
X118104087Y-48044500D01*
X118099052Y-48044295D01*
X118043835Y-48039798D01*
X118043828Y-48039799D01*
X117963607Y-48050729D01*
X117883092Y-48059485D01*
X117882131Y-48059697D01*
X117861471Y-48064538D01*
X117860541Y-48064770D01*
X117860533Y-48064772D01*
X117860532Y-48064773D01*
X117784499Y-48092705D01*
X117707775Y-48118557D01*
X117706796Y-48119010D01*
X117687697Y-48128162D01*
X117686884Y-48128565D01*
X117618632Y-48172192D01*
X117549256Y-48213935D01*
X117548520Y-48214494D01*
X117531828Y-48227542D01*
X117531014Y-48228197D01*
X117473750Y-48285459D01*
X117414956Y-48341153D01*
X117414322Y-48341899D01*
X117400093Y-48359116D01*
X117346502Y-48412707D01*
X117285179Y-48446192D01*
X117215487Y-48441208D01*
X117159554Y-48399336D01*
X117146439Y-48377431D01*
X117075134Y-48224517D01*
X116944657Y-48038179D01*
X116783820Y-47877342D01*
X116597482Y-47746865D01*
X116391326Y-47650734D01*
X116391317Y-47650730D01*
X116171610Y-47591860D01*
X116171599Y-47591858D01*
X116001763Y-47577000D01*
X115795000Y-47577000D01*
X115795000Y-48561314D01*
X115783045Y-48549359D01*
X115670148Y-48491835D01*
X115576481Y-48477000D01*
X115513519Y-48477000D01*
X115419852Y-48491835D01*
X115306955Y-48549359D01*
X115295000Y-48561314D01*
X115295000Y-47577000D01*
X115088237Y-47577000D01*
X114918400Y-47591858D01*
X114918389Y-47591860D01*
X114698682Y-47650730D01*
X114698673Y-47650734D01*
X114492517Y-47746865D01*
X114306179Y-47877342D01*
X114145342Y-48038179D01*
X114014865Y-48224517D01*
X113918734Y-48430673D01*
X113918730Y-48430682D01*
X113866127Y-48626999D01*
X113866128Y-48627000D01*
X115229314Y-48627000D01*
X115217359Y-48638955D01*
X115159835Y-48751852D01*
X115140014Y-48877000D01*
X115159835Y-49002148D01*
X115217359Y-49115045D01*
X115229314Y-49127000D01*
X113866128Y-49127000D01*
X113918730Y-49323317D01*
X113918734Y-49323326D01*
X114014865Y-49529482D01*
X114145342Y-49715820D01*
X114306179Y-49876657D01*
X114492518Y-50007134D01*
X114492520Y-50007135D01*
X114550865Y-50034342D01*
X114603305Y-50080514D01*
X114622457Y-50147707D01*
X114602242Y-50214589D01*
X114550867Y-50259105D01*
X114492268Y-50286431D01*
X114492264Y-50286433D01*
X114305858Y-50416954D01*
X114144954Y-50577858D01*
X114014432Y-50764265D01*
X114014431Y-50764267D01*
X113918261Y-50970502D01*
X113918258Y-50970511D01*
X113859366Y-51190302D01*
X113859364Y-51190313D01*
X113839532Y-51416998D01*
X113839532Y-51417001D01*
X113859364Y-51643686D01*
X113859366Y-51643697D01*
X113918258Y-51863488D01*
X113918261Y-51863497D01*
X114014431Y-52069732D01*
X114014432Y-52069734D01*
X114144954Y-52256141D01*
X114305858Y-52417045D01*
X114305861Y-52417047D01*
X114492266Y-52547568D01*
X114546194Y-52572715D01*
X114550275Y-52574618D01*
X114602714Y-52620791D01*
X114621866Y-52687984D01*
X114601650Y-52754865D01*
X114550275Y-52799382D01*
X114492267Y-52826431D01*
X114492265Y-52826432D01*
X114305858Y-52956954D01*
X114144954Y-53117858D01*
X114014432Y-53304265D01*
X114014431Y-53304267D01*
X113918261Y-53510502D01*
X113918258Y-53510511D01*
X113859366Y-53730302D01*
X113859364Y-53730313D01*
X113839532Y-53956998D01*
X113839532Y-53957001D01*
X113859364Y-54183686D01*
X113859366Y-54183697D01*
X113890965Y-54301627D01*
X113889302Y-54371477D01*
X113850139Y-54429339D01*
X113786703Y-54456745D01*
X113786172Y-54456812D01*
X113781757Y-54457369D01*
X113775946Y-54457826D01*
X113729373Y-54459290D01*
X113710129Y-54464881D01*
X113691079Y-54468825D01*
X113671211Y-54471334D01*
X113627884Y-54488488D01*
X113622358Y-54490379D01*
X113577614Y-54503379D01*
X113577610Y-54503381D01*
X113560366Y-54513579D01*
X113542905Y-54522133D01*
X113524274Y-54529510D01*
X113524262Y-54529517D01*
X113486570Y-54556902D01*
X113481687Y-54560109D01*
X113441580Y-54583829D01*
X113427414Y-54597995D01*
X113412624Y-54610627D01*
X113396414Y-54622404D01*
X113396411Y-54622407D01*
X113366710Y-54658309D01*
X113362777Y-54662631D01*
X112207809Y-55817599D01*
X112146486Y-55851084D01*
X112076794Y-55846100D01*
X112020861Y-55804228D01*
X111996808Y-55742882D01*
X111989174Y-55670244D01*
X111930679Y-55490216D01*
X111836033Y-55326284D01*
X111709371Y-55185612D01*
X111706793Y-55183739D01*
X111556234Y-55074351D01*
X111556229Y-55074348D01*
X111383307Y-54997357D01*
X111383302Y-54997355D01*
X111237501Y-54966365D01*
X111198146Y-54958000D01*
X111008854Y-54958000D01*
X110976397Y-54964898D01*
X110823697Y-54997355D01*
X110823692Y-54997357D01*
X110650770Y-55074348D01*
X110650765Y-55074351D01*
X110497629Y-55185611D01*
X110370966Y-55326285D01*
X110276321Y-55490215D01*
X110276318Y-55490222D01*
X110217827Y-55670240D01*
X110217826Y-55670244D01*
X110204769Y-55794475D01*
X110200179Y-55838149D01*
X110173594Y-55902763D01*
X110164539Y-55912868D01*
X109804021Y-56273386D01*
X109742698Y-56306871D01*
X109673006Y-56301887D01*
X109617073Y-56260015D01*
X109596565Y-56217798D01*
X109551741Y-56050511D01*
X109551738Y-56050502D01*
X109516626Y-55975204D01*
X109455568Y-55844266D01*
X109333715Y-55670240D01*
X109325045Y-55657858D01*
X109164141Y-55496954D01*
X108977734Y-55366432D01*
X108977728Y-55366429D01*
X108919725Y-55339382D01*
X108867285Y-55293210D01*
X108848133Y-55226017D01*
X108868348Y-55159135D01*
X108919725Y-55114618D01*
X108977734Y-55087568D01*
X109164139Y-54957047D01*
X109325047Y-54796139D01*
X109455568Y-54609734D01*
X109551739Y-54403496D01*
X109610635Y-54183692D01*
X109630468Y-53957000D01*
X109629462Y-53945507D01*
X109616920Y-53802144D01*
X109610635Y-53730308D01*
X109551739Y-53510504D01*
X109455568Y-53304266D01*
X109325047Y-53117861D01*
X109325045Y-53117858D01*
X109164141Y-52956954D01*
X108977734Y-52826432D01*
X108977728Y-52826429D01*
X108919725Y-52799382D01*
X108867285Y-52753210D01*
X108848133Y-52686017D01*
X108868348Y-52619135D01*
X108919725Y-52574618D01*
X108923806Y-52572715D01*
X108977734Y-52547568D01*
X109164139Y-52417047D01*
X109325047Y-52256139D01*
X109455568Y-52069734D01*
X109551739Y-51863496D01*
X109610635Y-51643692D01*
X109630468Y-51417000D01*
X109610635Y-51190308D01*
X109551739Y-50970504D01*
X109455568Y-50764266D01*
X109325047Y-50577861D01*
X109325045Y-50577858D01*
X109164141Y-50416954D01*
X108977734Y-50286432D01*
X108977728Y-50286429D01*
X108919725Y-50259382D01*
X108867285Y-50213210D01*
X108848133Y-50146017D01*
X108868348Y-50079135D01*
X108919725Y-50034618D01*
X108920317Y-50034342D01*
X108977734Y-50007568D01*
X109164139Y-49877047D01*
X109325047Y-49716139D01*
X109455568Y-49529734D01*
X109551739Y-49323496D01*
X109610635Y-49103692D01*
X109630468Y-48877000D01*
X109610635Y-48650308D01*
X109558446Y-48455534D01*
X109551741Y-48430511D01*
X109551738Y-48430502D01*
X109532126Y-48388445D01*
X109455568Y-48224266D01*
X109325047Y-48037861D01*
X109325045Y-48037858D01*
X109164141Y-47876954D01*
X108977734Y-47746432D01*
X108977732Y-47746431D01*
X108771497Y-47650261D01*
X108771488Y-47650258D01*
X108551697Y-47591366D01*
X108551687Y-47591364D01*
X108381784Y-47576500D01*
X107468216Y-47576500D01*
X107298312Y-47591364D01*
X107298302Y-47591366D01*
X107078511Y-47650258D01*
X107078502Y-47650261D01*
X106872267Y-47746431D01*
X106872265Y-47746432D01*
X106685858Y-47876954D01*
X106524954Y-48037858D01*
X106394432Y-48224265D01*
X106394431Y-48224267D01*
X106298261Y-48430502D01*
X106298258Y-48430511D01*
X106239366Y-48650302D01*
X106239364Y-48650313D01*
X106219532Y-48876998D01*
X106219532Y-48877001D01*
X106239364Y-49103686D01*
X106239366Y-49103697D01*
X106298258Y-49323488D01*
X106298261Y-49323497D01*
X106394431Y-49529732D01*
X106394432Y-49529734D01*
X106524954Y-49716141D01*
X106685858Y-49877045D01*
X106700285Y-49887147D01*
X106872266Y-50007568D01*
X106901037Y-50020984D01*
X106930275Y-50034618D01*
X106982714Y-50080791D01*
X107001866Y-50147984D01*
X106981650Y-50214865D01*
X106930275Y-50259382D01*
X106872267Y-50286431D01*
X106872265Y-50286432D01*
X106685858Y-50416954D01*
X106524954Y-50577858D01*
X106394432Y-50764265D01*
X106394431Y-50764267D01*
X106298261Y-50970502D01*
X106298258Y-50970511D01*
X106239366Y-51190302D01*
X106239364Y-51190313D01*
X106219532Y-51416998D01*
X106219532Y-51417001D01*
X106239364Y-51643686D01*
X106239366Y-51643697D01*
X106298258Y-51863488D01*
X106298261Y-51863497D01*
X106394431Y-52069732D01*
X106394432Y-52069734D01*
X106524954Y-52256141D01*
X106685858Y-52417045D01*
X106685861Y-52417047D01*
X106872266Y-52547568D01*
X106926194Y-52572715D01*
X106930275Y-52574618D01*
X106982714Y-52620791D01*
X107001866Y-52687984D01*
X106981650Y-52754865D01*
X106930275Y-52799382D01*
X106872267Y-52826431D01*
X106872265Y-52826432D01*
X106685858Y-52956954D01*
X106524954Y-53117858D01*
X106394432Y-53304265D01*
X106394431Y-53304267D01*
X106298261Y-53510502D01*
X106298258Y-53510511D01*
X106239366Y-53730302D01*
X106239364Y-53730313D01*
X106219532Y-53956998D01*
X106219532Y-53957001D01*
X106239364Y-54183686D01*
X106239366Y-54183697D01*
X106298258Y-54403488D01*
X106298261Y-54403497D01*
X106394431Y-54609732D01*
X106394432Y-54609734D01*
X106524954Y-54796141D01*
X106685858Y-54957045D01*
X106690892Y-54960570D01*
X106872266Y-55087568D01*
X106899999Y-55100500D01*
X106930275Y-55114618D01*
X106982714Y-55160791D01*
X107001866Y-55227984D01*
X106981650Y-55294865D01*
X106930275Y-55339382D01*
X106872267Y-55366431D01*
X106872265Y-55366432D01*
X106685858Y-55496954D01*
X106524954Y-55657858D01*
X106394432Y-55844265D01*
X106394431Y-55844267D01*
X106298261Y-56050502D01*
X106298258Y-56050511D01*
X106239366Y-56270302D01*
X106239364Y-56270313D01*
X106219532Y-56496998D01*
X106219532Y-56497001D01*
X106239364Y-56723686D01*
X106239366Y-56723697D01*
X106298258Y-56943488D01*
X106298261Y-56943497D01*
X106394431Y-57149732D01*
X106394432Y-57149734D01*
X106524954Y-57336141D01*
X106685858Y-57497045D01*
X106690892Y-57500570D01*
X106872266Y-57627568D01*
X106901037Y-57640984D01*
X106930275Y-57654618D01*
X106982714Y-57700791D01*
X107001866Y-57767984D01*
X106981650Y-57834865D01*
X106930275Y-57879382D01*
X106872267Y-57906431D01*
X106872265Y-57906432D01*
X106685858Y-58036954D01*
X106524954Y-58197858D01*
X106394432Y-58384265D01*
X106394431Y-58384267D01*
X106298261Y-58590502D01*
X106298258Y-58590511D01*
X106239366Y-58810302D01*
X106239364Y-58810313D01*
X106219532Y-59036998D01*
X106219532Y-59037001D01*
X106239364Y-59263686D01*
X106239366Y-59263697D01*
X106270638Y-59380407D01*
X106268975Y-59450257D01*
X106229812Y-59508119D01*
X106165583Y-59535623D01*
X106150863Y-59536500D01*
X105104743Y-59536500D01*
X105089122Y-59534775D01*
X105089096Y-59535061D01*
X105081334Y-59534327D01*
X105081333Y-59534327D01*
X105012186Y-59536500D01*
X104982649Y-59536500D01*
X104975766Y-59537369D01*
X104969949Y-59537826D01*
X104923373Y-59539290D01*
X104904129Y-59544881D01*
X104885079Y-59548825D01*
X104865211Y-59551334D01*
X104821884Y-59568488D01*
X104816358Y-59570379D01*
X104771614Y-59583379D01*
X104771610Y-59583381D01*
X104754366Y-59593579D01*
X104736905Y-59602133D01*
X104718274Y-59609510D01*
X104718262Y-59609517D01*
X104680570Y-59636902D01*
X104675687Y-59640109D01*
X104635580Y-59663829D01*
X104621414Y-59677995D01*
X104606624Y-59690627D01*
X104590414Y-59702404D01*
X104590411Y-59702407D01*
X104560710Y-59738309D01*
X104556777Y-59742631D01*
X103913228Y-60386181D01*
X103851905Y-60419666D01*
X103825547Y-60422500D01*
X103766354Y-60422500D01*
X103733897Y-60429398D01*
X103581197Y-60461855D01*
X103581192Y-60461857D01*
X103408270Y-60538848D01*
X103408265Y-60538851D01*
X103255129Y-60650111D01*
X103128466Y-60790785D01*
X103033821Y-60954715D01*
X103033818Y-60954722D01*
X102976701Y-61130511D01*
X102975326Y-61134744D01*
X102955540Y-61323000D01*
X102975326Y-61511256D01*
X102975327Y-61511259D01*
X103033818Y-61691277D01*
X103033821Y-61691284D01*
X103128467Y-61855216D01*
X103222670Y-61959839D01*
X103255129Y-61995888D01*
X103408265Y-62107148D01*
X103408270Y-62107151D01*
X103581192Y-62184142D01*
X103581197Y-62184144D01*
X103766354Y-62223500D01*
X103766355Y-62223500D01*
X103955644Y-62223500D01*
X103955646Y-62223500D01*
X104140803Y-62184144D01*
X104313730Y-62107151D01*
X104466871Y-61995888D01*
X104593533Y-61855216D01*
X104688179Y-61691284D01*
X104746674Y-61511256D01*
X104764321Y-61343344D01*
X104790904Y-61278734D01*
X104799950Y-61268639D01*
X105244772Y-60823819D01*
X105306095Y-60790334D01*
X105332453Y-60787500D01*
X106263566Y-60787500D01*
X106330605Y-60807185D01*
X106376360Y-60859989D01*
X106386304Y-60929147D01*
X106375948Y-60963904D01*
X106326733Y-61069447D01*
X106298262Y-61130502D01*
X106298258Y-61130511D01*
X106239366Y-61350302D01*
X106239364Y-61350313D01*
X106219532Y-61576998D01*
X106219532Y-61577001D01*
X106239364Y-61803686D01*
X106239366Y-61803697D01*
X106298258Y-62023488D01*
X106298261Y-62023497D01*
X106394431Y-62229732D01*
X106394432Y-62229734D01*
X106524954Y-62416141D01*
X106685858Y-62577045D01*
X106690892Y-62580570D01*
X106872266Y-62707568D01*
X106901037Y-62720984D01*
X106930275Y-62734618D01*
X106982714Y-62780791D01*
X107001866Y-62847984D01*
X106981650Y-62914865D01*
X106930275Y-62959382D01*
X106872267Y-62986431D01*
X106872265Y-62986432D01*
X106685858Y-63116954D01*
X106524954Y-63277858D01*
X106394432Y-63464265D01*
X106394431Y-63464267D01*
X106298261Y-63670502D01*
X106298258Y-63670511D01*
X106239366Y-63890302D01*
X106239364Y-63890313D01*
X106219532Y-64116998D01*
X106219532Y-64117006D01*
X106221475Y-64139223D01*
X106207707Y-64207723D01*
X106159090Y-64257904D01*
X106123738Y-64271315D01*
X106121201Y-64271854D01*
X106121192Y-64271857D01*
X105948270Y-64348848D01*
X105948265Y-64348851D01*
X105795129Y-64460111D01*
X105668466Y-64600785D01*
X105573821Y-64764715D01*
X105573818Y-64764722D01*
X105515327Y-64944740D01*
X105515326Y-64944744D01*
X105495540Y-65133000D01*
X105515326Y-65321256D01*
X105515327Y-65321259D01*
X105573818Y-65501277D01*
X105573821Y-65501284D01*
X105668467Y-65665216D01*
X105787078Y-65796946D01*
X105795129Y-65805888D01*
X105948265Y-65917148D01*
X105948270Y-65917151D01*
X106121191Y-65994142D01*
X106121193Y-65994142D01*
X106121197Y-65994144D01*
X106221606Y-66015486D01*
X106283084Y-66048676D01*
X106316861Y-66109839D01*
X106312209Y-66179554D01*
X106308205Y-66189177D01*
X106298263Y-66210496D01*
X106298258Y-66210511D01*
X106239366Y-66430302D01*
X106239364Y-66430313D01*
X106219532Y-66656998D01*
X106219532Y-66657001D01*
X106239364Y-66883686D01*
X106239365Y-66883693D01*
X106241636Y-66892166D01*
X106239973Y-66962016D01*
X106200811Y-67019879D01*
X106172298Y-67037539D01*
X106049867Y-67092050D01*
X106049865Y-67092051D01*
X105896729Y-67203311D01*
X105770066Y-67343985D01*
X105675421Y-67507915D01*
X105675418Y-67507922D01*
X105622401Y-67671094D01*
X105616926Y-67687944D01*
X105597140Y-67876200D01*
X105616926Y-68064456D01*
X105616927Y-68064459D01*
X105645606Y-68152725D01*
X105647601Y-68222566D01*
X105611520Y-68282399D01*
X105548819Y-68313227D01*
X105495582Y-68310818D01*
X105408410Y-68287460D01*
X105408399Y-68287458D01*
X105181802Y-68267634D01*
X105181798Y-68267634D01*
X104955200Y-68287458D01*
X104955189Y-68287460D01*
X104735482Y-68346330D01*
X104735473Y-68346334D01*
X104529313Y-68442468D01*
X104456326Y-68493573D01*
X105137399Y-69174646D01*
X105056652Y-69187435D01*
X104943755Y-69244959D01*
X104854159Y-69334555D01*
X104796635Y-69447452D01*
X104783846Y-69528199D01*
X104102773Y-68847126D01*
X104102772Y-68847127D01*
X104051668Y-68920113D01*
X103955534Y-69126273D01*
X103955530Y-69126282D01*
X103896660Y-69345989D01*
X103896658Y-69346000D01*
X103876834Y-69572597D01*
X103876834Y-69572602D01*
X103896658Y-69799199D01*
X103896660Y-69799210D01*
X103955530Y-70018917D01*
X103955534Y-70018926D01*
X104051665Y-70225081D01*
X104051666Y-70225083D01*
X104102773Y-70298071D01*
X104102774Y-70298072D01*
X104783846Y-69616999D01*
X104796635Y-69697748D01*
X104854159Y-69810645D01*
X104943755Y-69900241D01*
X105056652Y-69957765D01*
X105137399Y-69970553D01*
X104456326Y-70651625D01*
X104456326Y-70651626D01*
X104529312Y-70702731D01*
X104529315Y-70702732D01*
X104544774Y-70709941D01*
X104597214Y-70756113D01*
X104616367Y-70823306D01*
X104596152Y-70890187D01*
X104544778Y-70934705D01*
X104529069Y-70942030D01*
X104529065Y-70942032D01*
X104342658Y-71072554D01*
X104181754Y-71233458D01*
X104051232Y-71419865D01*
X104051231Y-71419867D01*
X103955061Y-71626102D01*
X103955058Y-71626111D01*
X103896166Y-71845902D01*
X103896164Y-71845913D01*
X103876332Y-72072598D01*
X103876332Y-72072601D01*
X103896164Y-72299286D01*
X103896166Y-72299297D01*
X103955058Y-72519088D01*
X103955061Y-72519097D01*
X104051231Y-72725332D01*
X104051232Y-72725334D01*
X104181754Y-72911741D01*
X104342658Y-73072645D01*
X104342661Y-73072647D01*
X104529066Y-73203168D01*
X104735304Y-73299339D01*
X104955108Y-73358235D01*
X105100464Y-73370952D01*
X105181798Y-73378068D01*
X105181800Y-73378068D01*
X105181802Y-73378068D01*
X105244322Y-73372598D01*
X105408492Y-73358235D01*
X105628296Y-73299339D01*
X105834534Y-73203168D01*
X106020939Y-73072647D01*
X106181847Y-72911739D01*
X106312368Y-72725334D01*
X106352580Y-72639099D01*
X106398748Y-72586665D01*
X106465942Y-72567512D01*
X106532823Y-72587727D01*
X106552640Y-72603827D01*
X106685858Y-72737045D01*
X106727616Y-72766284D01*
X106872266Y-72867568D01*
X107078504Y-72963739D01*
X107298308Y-73022635D01*
X107468216Y-73037500D01*
X108381784Y-73037500D01*
X108551692Y-73022635D01*
X108771496Y-72963739D01*
X108977734Y-72867568D01*
X109164139Y-72737047D01*
X109210312Y-72690873D01*
X109271634Y-72657388D01*
X109341325Y-72662372D01*
X109370872Y-72678232D01*
X109476444Y-72754934D01*
X109504270Y-72775151D01*
X109677192Y-72852142D01*
X109677197Y-72852144D01*
X109862354Y-72891500D01*
X109862355Y-72891500D01*
X110051644Y-72891500D01*
X110051646Y-72891500D01*
X110236803Y-72852144D01*
X110409730Y-72775151D01*
X110562871Y-72663888D01*
X110689533Y-72523216D01*
X110784179Y-72359284D01*
X110842674Y-72179256D01*
X110862460Y-71991000D01*
X110842674Y-71802744D01*
X110784179Y-71622716D01*
X110689533Y-71458784D01*
X110654491Y-71419866D01*
X110614350Y-71375284D01*
X110584120Y-71312292D01*
X110582500Y-71292312D01*
X110582500Y-69320748D01*
X110584224Y-69305134D01*
X110583938Y-69305107D01*
X110584672Y-69297344D01*
X110582500Y-69228213D01*
X110582500Y-69198661D01*
X110582500Y-69198660D01*
X110581629Y-69191769D01*
X110581172Y-69185955D01*
X110580752Y-69172600D01*
X110579709Y-69139383D01*
X110578825Y-69136342D01*
X110574122Y-69120154D01*
X110570174Y-69101094D01*
X110568059Y-69084348D01*
X110567664Y-69081218D01*
X110550507Y-69037885D01*
X110548619Y-69032369D01*
X110535619Y-68987622D01*
X110525418Y-68970373D01*
X110516860Y-68952904D01*
X110509486Y-68934278D01*
X110509483Y-68934274D01*
X110509483Y-68934273D01*
X110482098Y-68896581D01*
X110478890Y-68891697D01*
X110455172Y-68851592D01*
X110455163Y-68851581D01*
X110441005Y-68837423D01*
X110428370Y-68822630D01*
X110416593Y-68806422D01*
X110380693Y-68776723D01*
X110376381Y-68772800D01*
X110021595Y-68418014D01*
X109988110Y-68356691D01*
X109993094Y-68286999D01*
X110034966Y-68231066D01*
X110083487Y-68209045D01*
X110261803Y-68171144D01*
X110261807Y-68171142D01*
X110261808Y-68171142D01*
X110320058Y-68145206D01*
X110434730Y-68094151D01*
X110587871Y-67982888D01*
X110714533Y-67842216D01*
X110714534Y-67842212D01*
X110714794Y-67841925D01*
X110774280Y-67805276D01*
X110844137Y-67806606D01*
X110894625Y-67837216D01*
X110987576Y-67930167D01*
X111021061Y-67991490D01*
X111017827Y-68056164D01*
X111007826Y-68086942D01*
X111007826Y-68086943D01*
X111006865Y-68096084D01*
X110988040Y-68275200D01*
X111007826Y-68463456D01*
X111007827Y-68463459D01*
X111066318Y-68643477D01*
X111066321Y-68643484D01*
X111160967Y-68807416D01*
X111241252Y-68896581D01*
X111287629Y-68948088D01*
X111440765Y-69059348D01*
X111440770Y-69059351D01*
X111613692Y-69136342D01*
X111613697Y-69136344D01*
X111798854Y-69175700D01*
X111798855Y-69175700D01*
X111975700Y-69175700D01*
X112042739Y-69195385D01*
X112088494Y-69248189D01*
X112099700Y-69299700D01*
X112099700Y-69864557D01*
X112097975Y-69880174D01*
X112098261Y-69880201D01*
X112097526Y-69887967D01*
X112099700Y-69957116D01*
X112099700Y-69986645D01*
X112099701Y-69986662D01*
X112100568Y-69993533D01*
X112101026Y-69999352D01*
X112102490Y-70045926D01*
X112102491Y-70045929D01*
X112108080Y-70065169D01*
X112112024Y-70084213D01*
X112114536Y-70104094D01*
X112126519Y-70134361D01*
X112131690Y-70147421D01*
X112133582Y-70152949D01*
X112146581Y-70197690D01*
X112156780Y-70214936D01*
X112165336Y-70232402D01*
X112172714Y-70251034D01*
X112197681Y-70285399D01*
X112200098Y-70288725D01*
X112203306Y-70293609D01*
X112227027Y-70333718D01*
X112227033Y-70333726D01*
X112241190Y-70347882D01*
X112253827Y-70362677D01*
X112265606Y-70378889D01*
X112300632Y-70407865D01*
X112301509Y-70408590D01*
X112305820Y-70412512D01*
X112684959Y-70791652D01*
X112806536Y-70913229D01*
X112840021Y-70974552D01*
X112842176Y-70987948D01*
X112845945Y-71023802D01*
X112859824Y-71155856D01*
X112859825Y-71155859D01*
X112918316Y-71335877D01*
X112918319Y-71335884D01*
X113012965Y-71499816D01*
X113112176Y-71610001D01*
X113139627Y-71640488D01*
X113292763Y-71751748D01*
X113292768Y-71751751D01*
X113465690Y-71828742D01*
X113465695Y-71828744D01*
X113650852Y-71868100D01*
X113650853Y-71868100D01*
X113720500Y-71868100D01*
X113787539Y-71887785D01*
X113833294Y-71940589D01*
X113844500Y-71992100D01*
X113844500Y-72584870D01*
X113844501Y-72584876D01*
X113850908Y-72644483D01*
X113901202Y-72779328D01*
X113901206Y-72779335D01*
X113987452Y-72894544D01*
X113987455Y-72894547D01*
X114102664Y-72980793D01*
X114102671Y-72980797D01*
X114237517Y-73031091D01*
X114237516Y-73031091D01*
X114244444Y-73031835D01*
X114297127Y-73037500D01*
X116792872Y-73037499D01*
X116852483Y-73031091D01*
X116987331Y-72980796D01*
X117102546Y-72894546D01*
X117188796Y-72779331D01*
X117239091Y-72644483D01*
X117245500Y-72584873D01*
X117245499Y-70972450D01*
X117265184Y-70905412D01*
X117281813Y-70884775D01*
X119356571Y-68810019D01*
X119417894Y-68776534D01*
X119444252Y-68773700D01*
X124055552Y-68773700D01*
X124122591Y-68793385D01*
X124168346Y-68846189D01*
X124178290Y-68915347D01*
X124149265Y-68978903D01*
X124128437Y-68998018D01*
X124087428Y-69027812D01*
X123960765Y-69168486D01*
X123866120Y-69332416D01*
X123866117Y-69332423D01*
X123807626Y-69512441D01*
X123807625Y-69512445D01*
X123789978Y-69680350D01*
X123763393Y-69744964D01*
X123754338Y-69755069D01*
X122797228Y-70712181D01*
X122735905Y-70745666D01*
X122709547Y-70748500D01*
X121658548Y-70748500D01*
X121591509Y-70728815D01*
X121566400Y-70707474D01*
X121560673Y-70701114D01*
X121560669Y-70701110D01*
X121407534Y-70589851D01*
X121407529Y-70589848D01*
X121234607Y-70512857D01*
X121234602Y-70512855D01*
X121077349Y-70479431D01*
X121049446Y-70473500D01*
X120860154Y-70473500D01*
X120832251Y-70479431D01*
X120674997Y-70512855D01*
X120674992Y-70512857D01*
X120502070Y-70589848D01*
X120502065Y-70589851D01*
X120348929Y-70701111D01*
X120222266Y-70841785D01*
X120127621Y-71005715D01*
X120127618Y-71005722D01*
X120074080Y-71170496D01*
X120069126Y-71185744D01*
X120049340Y-71374000D01*
X120069126Y-71562256D01*
X120069127Y-71562259D01*
X120127618Y-71742277D01*
X120127621Y-71742284D01*
X120222267Y-71906216D01*
X120343201Y-72040526D01*
X120348929Y-72046888D01*
X120502065Y-72158148D01*
X120502070Y-72158151D01*
X120674992Y-72235142D01*
X120674997Y-72235144D01*
X120860154Y-72274500D01*
X120860155Y-72274500D01*
X121049444Y-72274500D01*
X121049446Y-72274500D01*
X121234603Y-72235144D01*
X121407530Y-72158151D01*
X121560671Y-72046888D01*
X121563588Y-72043647D01*
X121566400Y-72040526D01*
X121625887Y-72003879D01*
X121658548Y-71999500D01*
X122937257Y-71999500D01*
X122952877Y-72001224D01*
X122952904Y-72000939D01*
X122960660Y-72001671D01*
X122960667Y-72001673D01*
X123029814Y-71999500D01*
X123059350Y-71999500D01*
X123066228Y-71998630D01*
X123072041Y-71998172D01*
X123118627Y-71996709D01*
X123137869Y-71991117D01*
X123156912Y-71987174D01*
X123176792Y-71984664D01*
X123220122Y-71967507D01*
X123225646Y-71965617D01*
X123229396Y-71964527D01*
X123270390Y-71952618D01*
X123287629Y-71942422D01*
X123305103Y-71933862D01*
X123323727Y-71926488D01*
X123323727Y-71926487D01*
X123323732Y-71926486D01*
X123361449Y-71899082D01*
X123366305Y-71895892D01*
X123406420Y-71872170D01*
X123420589Y-71857999D01*
X123435379Y-71845368D01*
X123451587Y-71833594D01*
X123481299Y-71797676D01*
X123485212Y-71793376D01*
X124641071Y-70637520D01*
X124702394Y-70604035D01*
X124728752Y-70601201D01*
X124787943Y-70601201D01*
X124787945Y-70601201D01*
X124973102Y-70561845D01*
X125146029Y-70484852D01*
X125299170Y-70373589D01*
X125425832Y-70232917D01*
X125520478Y-70068985D01*
X125578973Y-69888957D01*
X125598759Y-69700701D01*
X125578973Y-69512445D01*
X125520478Y-69332417D01*
X125425832Y-69168485D01*
X125299170Y-69027813D01*
X125292814Y-69023195D01*
X125258161Y-68998018D01*
X125215495Y-68942688D01*
X125209516Y-68873075D01*
X125242122Y-68811280D01*
X125302960Y-68776922D01*
X125331046Y-68773700D01*
X136590133Y-68773700D01*
X136657172Y-68793385D01*
X136702927Y-68846189D01*
X136713660Y-68908506D01*
X136708983Y-68961977D01*
X136699532Y-69069999D01*
X136699532Y-69070001D01*
X136719364Y-69296686D01*
X136719366Y-69296697D01*
X136778258Y-69516488D01*
X136778261Y-69516497D01*
X136874431Y-69722732D01*
X136874432Y-69722734D01*
X137004954Y-69909141D01*
X137165858Y-70070045D01*
X137205914Y-70098092D01*
X137352266Y-70200568D01*
X137410172Y-70227570D01*
X137410275Y-70227618D01*
X137462714Y-70273791D01*
X137481866Y-70340984D01*
X137461650Y-70407865D01*
X137410275Y-70452381D01*
X137410118Y-70452455D01*
X137352267Y-70479431D01*
X137352265Y-70479432D01*
X137165858Y-70609954D01*
X137116693Y-70659120D01*
X137055370Y-70692605D01*
X136985678Y-70687621D01*
X136929745Y-70645749D01*
X136909237Y-70603532D01*
X136908612Y-70601201D01*
X136873539Y-70470304D01*
X136777368Y-70264066D01*
X136646847Y-70077661D01*
X136646845Y-70077658D01*
X136485941Y-69916754D01*
X136299534Y-69786232D01*
X136299532Y-69786231D01*
X136093297Y-69690061D01*
X136093288Y-69690058D01*
X135873497Y-69631166D01*
X135873493Y-69631165D01*
X135873492Y-69631165D01*
X135873491Y-69631164D01*
X135873486Y-69631164D01*
X135646802Y-69611332D01*
X135646798Y-69611332D01*
X135420113Y-69631164D01*
X135420102Y-69631166D01*
X135200311Y-69690058D01*
X135200302Y-69690061D01*
X134994067Y-69786231D01*
X134994065Y-69786232D01*
X134807658Y-69916754D01*
X134646754Y-70077658D01*
X134516232Y-70264065D01*
X134516230Y-70264069D01*
X134508905Y-70279778D01*
X134462731Y-70332217D01*
X134395537Y-70351367D01*
X134328657Y-70331150D01*
X134284141Y-70279774D01*
X134276932Y-70264315D01*
X134276931Y-70264312D01*
X134225826Y-70191326D01*
X134225825Y-70191326D01*
X133544753Y-70872398D01*
X133531965Y-70791652D01*
X133474441Y-70678755D01*
X133384845Y-70589159D01*
X133271948Y-70531635D01*
X133191200Y-70518846D01*
X133872272Y-69837774D01*
X133872271Y-69837773D01*
X133799283Y-69786666D01*
X133799281Y-69786665D01*
X133593126Y-69690534D01*
X133593117Y-69690530D01*
X133373410Y-69631660D01*
X133373399Y-69631658D01*
X133146802Y-69611834D01*
X133146798Y-69611834D01*
X132920200Y-69631658D01*
X132920189Y-69631660D01*
X132700482Y-69690530D01*
X132700473Y-69690534D01*
X132494313Y-69786668D01*
X132421327Y-69837772D01*
X132421326Y-69837773D01*
X133102400Y-70518846D01*
X133021652Y-70531635D01*
X132908755Y-70589159D01*
X132819159Y-70678755D01*
X132761635Y-70791652D01*
X132748846Y-70872399D01*
X132067773Y-70191326D01*
X132067772Y-70191327D01*
X132016668Y-70264313D01*
X131920534Y-70470473D01*
X131920530Y-70470482D01*
X131861660Y-70690189D01*
X131861658Y-70690200D01*
X131841834Y-70916797D01*
X131841834Y-70916802D01*
X131861658Y-71143399D01*
X131861660Y-71143410D01*
X131920530Y-71363117D01*
X131920534Y-71363126D01*
X132016665Y-71569281D01*
X132016666Y-71569283D01*
X132067773Y-71642271D01*
X132067774Y-71642272D01*
X132748846Y-70961199D01*
X132761635Y-71041948D01*
X132819159Y-71154845D01*
X132908755Y-71244441D01*
X133021652Y-71301965D01*
X133102399Y-71314753D01*
X132421326Y-71995825D01*
X132421326Y-71995826D01*
X132494312Y-72046931D01*
X132494316Y-72046933D01*
X132700473Y-72143065D01*
X132700482Y-72143069D01*
X132920189Y-72201939D01*
X132920200Y-72201941D01*
X133146798Y-72221766D01*
X133146802Y-72221766D01*
X133373399Y-72201941D01*
X133373410Y-72201939D01*
X133593117Y-72143069D01*
X133593131Y-72143064D01*
X133799278Y-72046936D01*
X133872272Y-71995825D01*
X133191201Y-71314753D01*
X133271948Y-71301965D01*
X133384845Y-71244441D01*
X133474441Y-71154845D01*
X133531965Y-71041948D01*
X133544753Y-70961200D01*
X134225825Y-71642272D01*
X134276934Y-71569281D01*
X134284140Y-71553828D01*
X134330311Y-71501387D01*
X134397504Y-71482233D01*
X134464385Y-71502446D01*
X134508905Y-71553822D01*
X134516230Y-71569530D01*
X134516232Y-71569534D01*
X134646754Y-71755941D01*
X134807658Y-71916845D01*
X134807661Y-71916847D01*
X134994066Y-72047368D01*
X135200304Y-72143539D01*
X135420108Y-72202435D01*
X135582030Y-72216601D01*
X135646798Y-72222268D01*
X135646800Y-72222268D01*
X135646802Y-72222268D01*
X135703473Y-72217309D01*
X135873492Y-72202435D01*
X136093296Y-72143539D01*
X136299534Y-72047368D01*
X136485939Y-71916847D01*
X136535105Y-71867681D01*
X136596428Y-71834195D01*
X136666119Y-71839179D01*
X136722053Y-71881050D01*
X136742562Y-71923267D01*
X136778259Y-72056490D01*
X136778261Y-72056497D01*
X136874431Y-72262732D01*
X136874432Y-72262734D01*
X137004954Y-72449141D01*
X137165858Y-72610045D01*
X137207359Y-72639104D01*
X137352266Y-72740568D01*
X137558504Y-72836739D01*
X137778308Y-72895635D01*
X137948216Y-72910500D01*
X138861784Y-72910500D01*
X139031692Y-72895635D01*
X139251496Y-72836739D01*
X139457734Y-72740568D01*
X139637006Y-72615041D01*
X139703210Y-72592715D01*
X139770977Y-72609725D01*
X139818790Y-72660673D01*
X139831468Y-72729383D01*
X139826058Y-72754934D01*
X139805327Y-72818738D01*
X139805327Y-72818740D01*
X139805326Y-72818744D01*
X139785540Y-73007000D01*
X139805326Y-73195256D01*
X139805327Y-73195259D01*
X139863818Y-73375277D01*
X139863821Y-73375284D01*
X139958467Y-73539216D01*
X140031138Y-73619925D01*
X140085129Y-73679888D01*
X140238265Y-73791148D01*
X140238270Y-73791151D01*
X140411192Y-73868142D01*
X140411197Y-73868144D01*
X140596354Y-73907500D01*
X140655548Y-73907500D01*
X140722587Y-73927185D01*
X140743229Y-73943819D01*
X142061181Y-75261771D01*
X142094666Y-75323094D01*
X142097500Y-75349452D01*
X142097500Y-78421024D01*
X142077815Y-78488063D01*
X142025011Y-78533818D01*
X142007613Y-78540239D01*
X141951150Y-78556395D01*
X141780786Y-78645386D01*
X141698966Y-78712102D01*
X141634570Y-78739211D01*
X141620606Y-78740000D01*
X141391810Y-78740000D01*
X141324771Y-78720315D01*
X141279016Y-78667511D01*
X141267810Y-78616000D01*
X141267810Y-78115099D01*
X141287495Y-78048060D01*
X141299660Y-78032127D01*
X141372333Y-77951416D01*
X141466979Y-77787484D01*
X141525474Y-77607456D01*
X141545260Y-77419200D01*
X141525474Y-77230944D01*
X141466979Y-77050916D01*
X141372333Y-76886984D01*
X141245671Y-76746312D01*
X141245670Y-76746311D01*
X141092534Y-76635051D01*
X141092529Y-76635048D01*
X140919607Y-76558057D01*
X140919602Y-76558055D01*
X140755626Y-76523202D01*
X140734446Y-76518700D01*
X140545154Y-76518700D01*
X140523974Y-76523202D01*
X140359997Y-76558055D01*
X140359992Y-76558057D01*
X140187070Y-76635048D01*
X140187065Y-76635051D01*
X140033929Y-76746311D01*
X139907266Y-76886985D01*
X139812621Y-77050915D01*
X139812618Y-77050922D01*
X139754127Y-77230940D01*
X139754126Y-77230944D01*
X139734340Y-77419200D01*
X139754126Y-77607456D01*
X139754127Y-77607459D01*
X139812618Y-77787477D01*
X139812621Y-77787484D01*
X139907264Y-77951412D01*
X139907265Y-77951414D01*
X139907267Y-77951416D01*
X139984961Y-78037703D01*
X140015190Y-78100693D01*
X140016810Y-78120674D01*
X140016810Y-78369500D01*
X139997125Y-78436539D01*
X139944321Y-78482294D01*
X139892811Y-78493500D01*
X139708701Y-78493500D01*
X139708692Y-78493501D01*
X139681075Y-78495956D01*
X139595926Y-78503525D01*
X139411148Y-78556396D01*
X139240786Y-78645386D01*
X139158966Y-78712102D01*
X139094570Y-78739211D01*
X139080606Y-78740000D01*
X138795394Y-78740000D01*
X138728355Y-78720315D01*
X138717034Y-78712102D01*
X138635213Y-78645386D01*
X138635209Y-78645384D01*
X138635208Y-78645383D01*
X138464855Y-78556398D01*
X138464852Y-78556397D01*
X138383388Y-78533087D01*
X138324350Y-78495719D01*
X138294887Y-78432365D01*
X138293500Y-78413871D01*
X138293500Y-77777041D01*
X138299568Y-77738725D01*
X138350474Y-77582056D01*
X138370260Y-77393800D01*
X138350474Y-77205544D01*
X138291979Y-77025516D01*
X138197333Y-76861584D01*
X138070671Y-76720912D01*
X138070670Y-76720911D01*
X137917534Y-76609651D01*
X137917529Y-76609648D01*
X137744607Y-76532657D01*
X137744602Y-76532655D01*
X137583510Y-76498415D01*
X137559446Y-76493300D01*
X137370154Y-76493300D01*
X137349778Y-76497631D01*
X137184997Y-76532655D01*
X137184992Y-76532657D01*
X137012070Y-76609648D01*
X137012065Y-76609651D01*
X136858929Y-76720911D01*
X136732266Y-76861585D01*
X136637621Y-77025515D01*
X136637618Y-77025522D01*
X136588039Y-77178112D01*
X136579126Y-77205544D01*
X136559340Y-77393800D01*
X136579126Y-77582056D01*
X136579127Y-77582059D01*
X136637618Y-77762077D01*
X136637621Y-77762084D01*
X136732267Y-77926016D01*
X136796981Y-77997888D01*
X136858929Y-78066688D01*
X136991385Y-78162923D01*
X137034051Y-78218253D01*
X137042500Y-78263241D01*
X137042500Y-78413871D01*
X137022815Y-78480910D01*
X136970011Y-78526665D01*
X136952612Y-78533087D01*
X136871147Y-78556397D01*
X136700786Y-78645386D01*
X136618966Y-78712102D01*
X136554570Y-78739211D01*
X136540606Y-78740000D01*
X136254604Y-78740000D01*
X136187565Y-78720315D01*
X136176244Y-78712102D01*
X136094937Y-78645805D01*
X135924666Y-78556863D01*
X135739985Y-78504019D01*
X135627285Y-78494000D01*
X135627284Y-78494000D01*
X134628718Y-78494001D01*
X134628717Y-78494001D01*
X134516016Y-78504019D01*
X134331333Y-78556863D01*
X134161062Y-78645805D01*
X134079756Y-78712102D01*
X134015360Y-78739211D01*
X134001396Y-78740000D01*
X133714604Y-78740000D01*
X133647565Y-78720315D01*
X133636244Y-78712102D01*
X133554937Y-78645805D01*
X133384666Y-78556863D01*
X133199985Y-78504019D01*
X133087285Y-78494000D01*
X133087284Y-78494000D01*
X132088718Y-78494001D01*
X132088717Y-78494001D01*
X131976016Y-78504019D01*
X131791333Y-78556863D01*
X131621062Y-78645805D01*
X131539756Y-78712102D01*
X131475360Y-78739211D01*
X131461396Y-78740000D01*
X131461385Y-78740000D01*
X131394346Y-78720315D01*
X131348591Y-78667511D01*
X131338647Y-78598353D01*
X131367672Y-78534797D01*
X131378317Y-78523947D01*
X131378368Y-78523889D01*
X131378371Y-78523888D01*
X131505033Y-78383216D01*
X131599679Y-78219284D01*
X131658174Y-78039256D01*
X131677960Y-77851000D01*
X131658174Y-77662744D01*
X131599679Y-77482716D01*
X131505033Y-77318784D01*
X131378371Y-77178112D01*
X131373321Y-77174443D01*
X131225234Y-77066851D01*
X131225229Y-77066848D01*
X131052307Y-76989857D01*
X131052302Y-76989855D01*
X130896390Y-76956716D01*
X130867146Y-76950500D01*
X130677854Y-76950500D01*
X130648610Y-76956716D01*
X130492697Y-76989855D01*
X130492692Y-76989857D01*
X130319770Y-77066848D01*
X130319765Y-77066851D01*
X130166632Y-77178109D01*
X130166629Y-77178111D01*
X130166629Y-77178112D01*
X130141932Y-77205540D01*
X130113578Y-77237030D01*
X130065003Y-77267503D01*
X130065773Y-77269282D01*
X130058610Y-77272381D01*
X130041366Y-77282579D01*
X130023905Y-77291133D01*
X130005274Y-77298510D01*
X130005262Y-77298517D01*
X129967570Y-77325902D01*
X129962687Y-77329109D01*
X129922580Y-77352829D01*
X129908414Y-77366995D01*
X129893624Y-77379627D01*
X129877414Y-77391404D01*
X129877408Y-77391410D01*
X129847711Y-77427308D01*
X129843778Y-77431630D01*
X129664206Y-77611201D01*
X129651943Y-77621027D01*
X129652126Y-77621248D01*
X129646120Y-77626216D01*
X129598771Y-77676637D01*
X129577889Y-77697519D01*
X129577866Y-77697544D01*
X129577804Y-77697625D01*
X129577780Y-77697641D01*
X129575315Y-77700439D01*
X129575131Y-77700276D01*
X129575125Y-77700283D01*
X129575028Y-77700186D01*
X129574679Y-77699879D01*
X129521145Y-77738509D01*
X129451377Y-77742270D01*
X129390650Y-77707715D01*
X129358246Y-77645814D01*
X129361924Y-77583270D01*
X129384674Y-77513256D01*
X129404460Y-77325000D01*
X129384674Y-77136744D01*
X129326179Y-76956716D01*
X129231533Y-76792784D01*
X129104871Y-76652112D01*
X129104870Y-76652111D01*
X128951734Y-76540851D01*
X128951729Y-76540848D01*
X128778807Y-76463857D01*
X128778802Y-76463855D01*
X128618077Y-76429693D01*
X128593646Y-76424500D01*
X128404354Y-76424500D01*
X128382623Y-76429119D01*
X128219197Y-76463855D01*
X128219192Y-76463857D01*
X128046270Y-76540848D01*
X128046265Y-76540851D01*
X127893129Y-76652111D01*
X127766466Y-76792785D01*
X127671821Y-76956715D01*
X127671818Y-76956722D01*
X127617022Y-77125368D01*
X127613326Y-77136744D01*
X127595679Y-77304649D01*
X127569094Y-77369263D01*
X127560039Y-77379368D01*
X127124208Y-77815199D01*
X127111951Y-77825020D01*
X127112134Y-77825241D01*
X127106123Y-77830213D01*
X127058772Y-77880636D01*
X127037889Y-77901519D01*
X127037877Y-77901532D01*
X127033621Y-77907017D01*
X127029837Y-77911447D01*
X126997937Y-77945418D01*
X126997936Y-77945420D01*
X126988284Y-77962976D01*
X126977610Y-77979226D01*
X126965329Y-77995061D01*
X126965324Y-77995068D01*
X126946815Y-78037838D01*
X126944245Y-78043084D01*
X126921803Y-78083906D01*
X126916822Y-78103307D01*
X126910521Y-78121710D01*
X126902562Y-78140102D01*
X126902561Y-78140105D01*
X126895271Y-78186127D01*
X126894087Y-78191846D01*
X126882501Y-78236972D01*
X126882500Y-78236982D01*
X126882500Y-78257016D01*
X126880973Y-78276415D01*
X126877840Y-78296194D01*
X126877840Y-78296195D01*
X126882225Y-78342583D01*
X126882500Y-78348421D01*
X126882500Y-78413871D01*
X126862815Y-78480910D01*
X126810011Y-78526665D01*
X126792612Y-78533087D01*
X126711147Y-78556397D01*
X126540786Y-78645386D01*
X126458966Y-78712102D01*
X126394570Y-78739211D01*
X126380606Y-78740000D01*
X126095394Y-78740000D01*
X126028355Y-78720315D01*
X126017034Y-78712102D01*
X125935213Y-78645386D01*
X125935209Y-78645384D01*
X125935208Y-78645383D01*
X125764855Y-78556398D01*
X125764852Y-78556397D01*
X125683388Y-78533087D01*
X125624350Y-78495719D01*
X125594887Y-78432365D01*
X125593500Y-78413871D01*
X125593500Y-78249921D01*
X125613185Y-78182882D01*
X125625351Y-78166948D01*
X125628975Y-78162923D01*
X125675533Y-78111216D01*
X125770179Y-77947284D01*
X125828674Y-77767256D01*
X125848460Y-77579000D01*
X125828674Y-77390744D01*
X125770179Y-77210716D01*
X125675533Y-77046784D01*
X125548871Y-76906112D01*
X125540745Y-76900208D01*
X125395734Y-76794851D01*
X125395729Y-76794848D01*
X125222807Y-76717857D01*
X125222802Y-76717855D01*
X125052150Y-76681583D01*
X125037646Y-76678500D01*
X124848354Y-76678500D01*
X124833850Y-76681583D01*
X124663197Y-76717855D01*
X124663192Y-76717857D01*
X124490270Y-76794848D01*
X124490265Y-76794851D01*
X124337129Y-76906111D01*
X124210466Y-77046785D01*
X124115821Y-77210715D01*
X124115818Y-77210722D01*
X124062801Y-77373894D01*
X124057326Y-77390744D01*
X124037540Y-77579000D01*
X124057326Y-77767256D01*
X124057327Y-77767259D01*
X124115818Y-77947277D01*
X124115821Y-77947284D01*
X124210467Y-78111216D01*
X124297845Y-78208259D01*
X124310650Y-78222480D01*
X124340880Y-78285471D01*
X124342500Y-78305452D01*
X124342500Y-78413871D01*
X124322815Y-78480910D01*
X124270011Y-78526665D01*
X124252612Y-78533087D01*
X124171147Y-78556397D01*
X124000786Y-78645386D01*
X123918966Y-78712102D01*
X123854570Y-78739211D01*
X123840606Y-78740000D01*
X123792356Y-78740000D01*
X123725317Y-78720315D01*
X123679562Y-78667511D01*
X123669618Y-78598353D01*
X123684969Y-78554000D01*
X123696056Y-78534797D01*
X123747131Y-78446332D01*
X123805626Y-78266304D01*
X123825412Y-78078048D01*
X123805626Y-77889792D01*
X123747131Y-77709764D01*
X123652485Y-77545832D01*
X123525823Y-77405160D01*
X123525822Y-77405159D01*
X123372686Y-77293899D01*
X123372681Y-77293896D01*
X123199759Y-77216905D01*
X123199754Y-77216903D01*
X123053953Y-77185913D01*
X123014598Y-77177548D01*
X122825306Y-77177548D01*
X122792849Y-77184446D01*
X122640149Y-77216903D01*
X122640144Y-77216905D01*
X122467222Y-77293896D01*
X122467217Y-77293899D01*
X122314081Y-77405159D01*
X122187418Y-77545833D01*
X122092773Y-77709763D01*
X122092770Y-77709770D01*
X122037253Y-77880635D01*
X122034278Y-77889792D01*
X122027801Y-77951416D01*
X122016658Y-78057435D01*
X121990073Y-78122050D01*
X121983739Y-78129346D01*
X121982391Y-78130782D01*
X121978773Y-78134635D01*
X121973306Y-78140102D01*
X121957888Y-78155519D01*
X121957877Y-78155532D01*
X121953621Y-78161017D01*
X121949837Y-78165447D01*
X121917937Y-78199418D01*
X121917936Y-78199420D01*
X121908284Y-78216976D01*
X121897610Y-78233226D01*
X121885329Y-78249061D01*
X121885324Y-78249068D01*
X121866815Y-78291838D01*
X121864245Y-78297084D01*
X121841803Y-78337906D01*
X121836822Y-78357307D01*
X121830521Y-78375710D01*
X121822562Y-78394102D01*
X121822561Y-78394107D01*
X121817088Y-78428660D01*
X121787158Y-78491794D01*
X121728727Y-78528476D01*
X121631147Y-78556397D01*
X121460786Y-78645386D01*
X121378966Y-78712102D01*
X121314570Y-78739211D01*
X121300606Y-78740000D01*
X121015394Y-78740000D01*
X120948355Y-78720315D01*
X120937034Y-78712102D01*
X120855213Y-78645386D01*
X120855209Y-78645384D01*
X120855208Y-78645383D01*
X120684855Y-78556398D01*
X120684852Y-78556397D01*
X120603388Y-78533087D01*
X120544350Y-78495719D01*
X120514887Y-78432365D01*
X120513500Y-78413871D01*
X120513500Y-77178737D01*
X120515224Y-77163123D01*
X120514938Y-77163096D01*
X120515672Y-77155333D01*
X120513500Y-77086202D01*
X120513500Y-77056651D01*
X120513500Y-77056650D01*
X120512629Y-77049759D01*
X120512172Y-77043945D01*
X120510709Y-76997374D01*
X120510709Y-76997372D01*
X120505120Y-76978137D01*
X120501174Y-76959084D01*
X120500090Y-76950500D01*
X120498664Y-76939208D01*
X120481501Y-76895859D01*
X120479614Y-76890346D01*
X120478637Y-76886984D01*
X120466617Y-76845610D01*
X120456421Y-76828369D01*
X120447860Y-76810893D01*
X120446308Y-76806975D01*
X120440486Y-76792268D01*
X120440486Y-76792267D01*
X120426931Y-76773611D01*
X120413083Y-76754550D01*
X120409900Y-76749705D01*
X120386170Y-76709579D01*
X120386165Y-76709573D01*
X120372005Y-76695413D01*
X120359370Y-76680620D01*
X120347593Y-76664412D01*
X120311693Y-76634713D01*
X120307381Y-76630790D01*
X120044259Y-76367668D01*
X120010774Y-76306345D01*
X120008622Y-76292967D01*
X119990973Y-76125043D01*
X119932478Y-75945015D01*
X119837832Y-75781083D01*
X119711170Y-75640411D01*
X119711169Y-75640410D01*
X119558033Y-75529150D01*
X119558028Y-75529147D01*
X119385106Y-75452156D01*
X119385101Y-75452154D01*
X119239300Y-75421164D01*
X119199945Y-75412799D01*
X119010653Y-75412799D01*
X118978196Y-75419697D01*
X118825496Y-75452154D01*
X118825491Y-75452156D01*
X118789653Y-75468112D01*
X118720402Y-75477396D01*
X118657126Y-75447766D01*
X118619914Y-75388631D01*
X118620580Y-75318764D01*
X118651535Y-75267154D01*
X119683372Y-74235319D01*
X119744695Y-74201834D01*
X119771053Y-74199000D01*
X119830244Y-74199000D01*
X119830246Y-74199000D01*
X120015403Y-74159644D01*
X120188330Y-74082651D01*
X120341471Y-73971388D01*
X120468133Y-73830716D01*
X120562779Y-73666784D01*
X120621274Y-73486756D01*
X120641060Y-73298500D01*
X120621274Y-73110244D01*
X120562779Y-72930216D01*
X120468133Y-72766284D01*
X120341471Y-72625612D01*
X120324503Y-72613284D01*
X120188334Y-72514351D01*
X120188329Y-72514348D01*
X120015407Y-72437357D01*
X120015402Y-72437355D01*
X119869601Y-72406365D01*
X119830246Y-72398000D01*
X119640954Y-72398000D01*
X119608497Y-72404898D01*
X119455797Y-72437355D01*
X119455792Y-72437357D01*
X119282870Y-72514348D01*
X119282865Y-72514351D01*
X119129729Y-72625611D01*
X119003066Y-72766285D01*
X118908421Y-72930215D01*
X118908418Y-72930222D01*
X118862142Y-73072647D01*
X118849926Y-73110244D01*
X118836156Y-73241263D01*
X118832279Y-73278149D01*
X118805694Y-73342763D01*
X118796639Y-73352868D01*
X116964208Y-75185299D01*
X116951951Y-75195120D01*
X116952134Y-75195341D01*
X116946123Y-75200313D01*
X116898772Y-75250736D01*
X116877889Y-75271619D01*
X116877877Y-75271632D01*
X116873621Y-75277117D01*
X116869837Y-75281547D01*
X116837937Y-75315518D01*
X116837936Y-75315520D01*
X116828284Y-75333076D01*
X116817610Y-75349326D01*
X116805329Y-75365161D01*
X116805324Y-75365168D01*
X116786815Y-75407938D01*
X116784245Y-75413184D01*
X116761803Y-75454006D01*
X116756822Y-75473407D01*
X116750521Y-75491810D01*
X116742562Y-75510202D01*
X116742561Y-75510205D01*
X116735271Y-75556227D01*
X116734087Y-75561946D01*
X116722501Y-75607072D01*
X116722500Y-75607082D01*
X116722500Y-75627116D01*
X116720973Y-75646515D01*
X116717840Y-75666294D01*
X116717840Y-75666295D01*
X116722225Y-75712683D01*
X116722500Y-75718521D01*
X116722500Y-78413871D01*
X116702815Y-78480910D01*
X116650011Y-78526665D01*
X116632612Y-78533087D01*
X116551147Y-78556397D01*
X116380786Y-78645386D01*
X116298966Y-78712102D01*
X116234570Y-78739211D01*
X116220606Y-78740000D01*
X115935394Y-78740000D01*
X115868355Y-78720315D01*
X115857034Y-78712102D01*
X115775213Y-78645386D01*
X115775209Y-78645384D01*
X115775208Y-78645383D01*
X115604855Y-78556398D01*
X115604849Y-78556396D01*
X115420073Y-78503525D01*
X115329315Y-78495456D01*
X115307309Y-78493500D01*
X115307307Y-78493500D01*
X114672651Y-78493500D01*
X114605612Y-78473815D01*
X114584970Y-78457181D01*
X113096554Y-76968765D01*
X111600207Y-75472418D01*
X111596804Y-75468726D01*
X111560936Y-75426499D01*
X111496491Y-75377509D01*
X111433359Y-75326762D01*
X111433358Y-75326761D01*
X111433354Y-75326758D01*
X111433348Y-75326755D01*
X111432454Y-75326183D01*
X111414619Y-75315120D01*
X111413664Y-75314546D01*
X111340160Y-75280539D01*
X111267627Y-75244566D01*
X111266581Y-75244182D01*
X111246760Y-75237202D01*
X111245764Y-75236866D01*
X111166673Y-75219458D01*
X111088094Y-75199915D01*
X111087184Y-75199791D01*
X111066106Y-75197210D01*
X111065101Y-75197101D01*
X111065097Y-75197100D01*
X111065092Y-75197100D01*
X110984131Y-75197100D01*
X110903164Y-75194906D01*
X110902120Y-75194991D01*
X110879952Y-75197100D01*
X103869163Y-75197100D01*
X103802124Y-75177415D01*
X103781482Y-75160781D01*
X102065829Y-73445127D01*
X102032344Y-73383804D01*
X102037328Y-73314112D01*
X102079200Y-73258179D01*
X102110171Y-73241266D01*
X102185131Y-73213309D01*
X102300346Y-73127059D01*
X102386596Y-73011844D01*
X102436891Y-72876996D01*
X102443300Y-72817386D01*
X102443299Y-71121641D01*
X102436891Y-71062030D01*
X102431963Y-71048818D01*
X102386597Y-70927184D01*
X102386593Y-70927177D01*
X102300347Y-70811968D01*
X102300344Y-70811965D01*
X102185135Y-70725719D01*
X102185128Y-70725715D01*
X102050282Y-70675421D01*
X102050283Y-70675421D01*
X101990683Y-70669014D01*
X101990681Y-70669013D01*
X101990673Y-70669013D01*
X101990664Y-70669013D01*
X101987348Y-70668835D01*
X101987427Y-70667360D01*
X101926015Y-70649328D01*
X101880260Y-70596524D01*
X101872769Y-70553035D01*
X101187201Y-69867466D01*
X101267948Y-69854678D01*
X101380845Y-69797154D01*
X101470441Y-69707558D01*
X101527965Y-69594661D01*
X101540753Y-69513913D01*
X102221825Y-70194985D01*
X102272936Y-70121991D01*
X102369064Y-69915844D01*
X102369069Y-69915830D01*
X102427939Y-69696123D01*
X102427941Y-69696112D01*
X102447766Y-69469515D01*
X102447766Y-69469510D01*
X102427941Y-69242913D01*
X102427939Y-69242902D01*
X102369069Y-69023195D01*
X102369065Y-69023186D01*
X102272933Y-68817029D01*
X102272931Y-68817025D01*
X102221826Y-68744039D01*
X102221825Y-68744039D01*
X101540753Y-69425111D01*
X101527965Y-69344365D01*
X101470441Y-69231468D01*
X101380845Y-69141872D01*
X101267948Y-69084348D01*
X101187200Y-69071559D01*
X101868272Y-68390487D01*
X101868271Y-68390486D01*
X101795283Y-68339379D01*
X101795281Y-68339378D01*
X101589126Y-68243247D01*
X101589117Y-68243243D01*
X101369410Y-68184373D01*
X101369399Y-68184371D01*
X101142802Y-68164547D01*
X101142798Y-68164547D01*
X100916200Y-68184371D01*
X100916189Y-68184373D01*
X100696482Y-68243243D01*
X100696473Y-68243247D01*
X100490313Y-68339381D01*
X100417327Y-68390485D01*
X100417326Y-68390486D01*
X101098400Y-69071559D01*
X101017652Y-69084348D01*
X100904755Y-69141872D01*
X100815159Y-69231468D01*
X100757635Y-69344365D01*
X100744846Y-69425112D01*
X100063773Y-68744039D01*
X100063772Y-68744040D01*
X100012668Y-68817026D01*
X99916534Y-69023186D01*
X99916530Y-69023195D01*
X99857660Y-69242902D01*
X99857658Y-69242913D01*
X99837834Y-69469510D01*
X99837834Y-69469515D01*
X99857658Y-69696112D01*
X99857660Y-69696123D01*
X99916530Y-69915830D01*
X99916534Y-69915839D01*
X100012665Y-70121994D01*
X100012666Y-70121996D01*
X100063773Y-70194984D01*
X100063774Y-70194985D01*
X100744846Y-69513912D01*
X100757635Y-69594661D01*
X100815159Y-69707558D01*
X100904755Y-69797154D01*
X101017652Y-69854678D01*
X101098399Y-69867466D01*
X100412151Y-70553713D01*
X100402305Y-70602707D01*
X100353689Y-70652889D01*
X100298167Y-70667561D01*
X100298223Y-70668612D01*
X100298229Y-70668659D01*
X100298226Y-70668659D01*
X100298236Y-70668837D01*
X100294923Y-70669014D01*
X100235316Y-70675421D01*
X100100471Y-70725715D01*
X100100464Y-70725719D01*
X99985255Y-70811965D01*
X99985252Y-70811968D01*
X99899006Y-70927177D01*
X99899002Y-70927184D01*
X99848708Y-71062030D01*
X99844633Y-71099938D01*
X99842301Y-71121636D01*
X99842300Y-71121648D01*
X99842300Y-72817383D01*
X99842301Y-72817389D01*
X99848708Y-72876996D01*
X99899002Y-73011841D01*
X99899006Y-73011848D01*
X99985252Y-73127057D01*
X99985255Y-73127060D01*
X100100464Y-73213306D01*
X100100473Y-73213311D01*
X100211632Y-73254770D01*
X100267566Y-73296640D01*
X100291984Y-73362105D01*
X100292300Y-73370952D01*
X100292300Y-73687798D01*
X100292095Y-73692832D01*
X100287598Y-73748050D01*
X100298529Y-73828279D01*
X100307286Y-73908800D01*
X100307510Y-73909817D01*
X100312325Y-73930360D01*
X100312573Y-73931357D01*
X100340500Y-74007373D01*
X100366357Y-74084110D01*
X100366801Y-74085072D01*
X100375946Y-74104153D01*
X100376364Y-74104996D01*
X100419984Y-74173240D01*
X100461730Y-74242623D01*
X100462338Y-74243423D01*
X100475378Y-74260103D01*
X100476001Y-74260878D01*
X100533259Y-74318136D01*
X100588952Y-74376929D01*
X100589783Y-74377634D01*
X100606919Y-74391795D01*
X102837904Y-76622780D01*
X102841297Y-76626460D01*
X102859077Y-76647392D01*
X102877176Y-76668701D01*
X102877177Y-76668702D01*
X102894123Y-76681583D01*
X102941631Y-76717697D01*
X103004759Y-76768441D01*
X103004760Y-76768441D01*
X103004761Y-76768442D01*
X103005670Y-76769023D01*
X103023522Y-76780097D01*
X103024441Y-76780650D01*
X103024447Y-76780653D01*
X103024449Y-76780654D01*
X103089810Y-76810893D01*
X103097965Y-76814666D01*
X103170496Y-76850638D01*
X103171623Y-76851052D01*
X103191289Y-76857976D01*
X103192343Y-76858330D01*
X103192346Y-76858332D01*
X103231892Y-76867036D01*
X103271438Y-76875741D01*
X103350018Y-76895284D01*
X103351107Y-76895432D01*
X103371888Y-76897977D01*
X103373015Y-76898099D01*
X103373016Y-76898100D01*
X103373017Y-76898100D01*
X103453982Y-76898100D01*
X103534945Y-76900293D01*
X103534945Y-76900292D01*
X103534948Y-76900293D01*
X103535992Y-76900208D01*
X103558161Y-76898100D01*
X110568949Y-76898100D01*
X110635988Y-76917785D01*
X110656630Y-76934419D01*
X111415495Y-77693284D01*
X112004031Y-78281819D01*
X112037516Y-78343142D01*
X112032532Y-78412834D01*
X111990660Y-78468767D01*
X111925196Y-78493184D01*
X111916351Y-78493500D01*
X111768697Y-78493500D01*
X111768692Y-78493501D01*
X111741075Y-78495956D01*
X111655926Y-78503525D01*
X111471148Y-78556396D01*
X111300786Y-78645386D01*
X111218966Y-78712102D01*
X111154570Y-78739211D01*
X111140606Y-78740000D01*
X110855394Y-78740000D01*
X110788355Y-78720315D01*
X110777034Y-78712102D01*
X110695213Y-78645386D01*
X110695209Y-78645384D01*
X110695208Y-78645383D01*
X110524855Y-78556398D01*
X110524849Y-78556396D01*
X110340073Y-78503525D01*
X110249315Y-78495456D01*
X110227309Y-78493500D01*
X110227307Y-78493500D01*
X110227306Y-78493500D01*
X109799330Y-78493500D01*
X109228692Y-78493501D01*
X109201075Y-78495956D01*
X109115926Y-78503525D01*
X108931148Y-78556396D01*
X108760786Y-78645386D01*
X108678966Y-78712102D01*
X108614570Y-78739211D01*
X108600606Y-78740000D01*
X108315394Y-78740000D01*
X108248355Y-78720315D01*
X108237034Y-78712102D01*
X108155213Y-78645386D01*
X108155209Y-78645384D01*
X108155208Y-78645383D01*
X107984855Y-78556398D01*
X107984849Y-78556396D01*
X107800073Y-78503525D01*
X107709315Y-78495456D01*
X107687309Y-78493500D01*
X107687307Y-78493500D01*
X107687306Y-78493500D01*
X107259330Y-78493500D01*
X106688692Y-78493501D01*
X106661075Y-78495956D01*
X106575926Y-78503525D01*
X106391148Y-78556396D01*
X106220786Y-78645386D01*
X106138966Y-78712102D01*
X106074570Y-78739211D01*
X106060606Y-78740000D01*
X105775394Y-78740000D01*
X105708355Y-78720315D01*
X105697034Y-78712102D01*
X105615213Y-78645386D01*
X105615209Y-78645384D01*
X105615208Y-78645383D01*
X105444855Y-78556398D01*
X105444849Y-78556396D01*
X105260073Y-78503525D01*
X105169315Y-78495456D01*
X105147309Y-78493500D01*
X105147307Y-78493500D01*
X105147306Y-78493500D01*
X104719330Y-78493500D01*
X104148692Y-78493501D01*
X104121075Y-78495956D01*
X104035926Y-78503525D01*
X103851148Y-78556396D01*
X103680786Y-78645386D01*
X103598966Y-78712102D01*
X103534570Y-78739211D01*
X103520606Y-78740000D01*
X103235394Y-78740000D01*
X103168355Y-78720315D01*
X103157034Y-78712102D01*
X103075213Y-78645386D01*
X103075209Y-78645384D01*
X103075208Y-78645383D01*
X102904855Y-78556398D01*
X102904849Y-78556396D01*
X102720073Y-78503525D01*
X102629315Y-78495456D01*
X102607309Y-78493500D01*
X102607307Y-78493500D01*
X102607306Y-78493500D01*
X102179330Y-78493500D01*
X101608692Y-78493501D01*
X101581075Y-78495956D01*
X101495926Y-78503525D01*
X101311148Y-78556396D01*
X101140786Y-78645386D01*
X101058966Y-78712102D01*
X100994570Y-78739211D01*
X100980606Y-78740000D01*
X100695394Y-78740000D01*
X100628355Y-78720315D01*
X100617034Y-78712102D01*
X100535213Y-78645386D01*
X100535209Y-78645384D01*
X100535208Y-78645383D01*
X100364855Y-78556398D01*
X100364849Y-78556396D01*
X100180073Y-78503525D01*
X100089315Y-78495456D01*
X100067309Y-78493500D01*
X100067307Y-78493500D01*
X99181951Y-78493500D01*
X99114912Y-78473815D01*
X99069157Y-78421011D01*
X99059213Y-78351853D01*
X99088238Y-78288297D01*
X99109058Y-78269189D01*
X99132871Y-78251888D01*
X99259533Y-78111216D01*
X99354179Y-77947284D01*
X99412674Y-77767256D01*
X99432460Y-77579000D01*
X99412674Y-77390744D01*
X99354179Y-77210716D01*
X99259533Y-77046784D01*
X99132871Y-76906112D01*
X99124745Y-76900208D01*
X98979734Y-76794851D01*
X98979729Y-76794848D01*
X98806807Y-76717857D01*
X98806802Y-76717855D01*
X98636150Y-76681583D01*
X98621646Y-76678500D01*
X98432354Y-76678500D01*
X98417850Y-76681583D01*
X98247197Y-76717855D01*
X98247192Y-76717857D01*
X98074270Y-76794848D01*
X98074265Y-76794851D01*
X97921129Y-76906111D01*
X97794466Y-77046785D01*
X97699821Y-77210715D01*
X97699818Y-77210722D01*
X97646801Y-77373894D01*
X97641326Y-77390744D01*
X97631660Y-77482715D01*
X97623679Y-77558649D01*
X97597094Y-77623263D01*
X97588039Y-77633368D01*
X96764226Y-78457181D01*
X96702903Y-78490666D01*
X96676546Y-78493500D01*
X96528707Y-78493500D01*
X96528692Y-78493501D01*
X96494648Y-78496527D01*
X96415926Y-78503525D01*
X96231148Y-78556396D01*
X96060786Y-78645386D01*
X95978966Y-78712102D01*
X95914570Y-78739211D01*
X95900606Y-78740000D01*
X95620500Y-78740000D01*
X95553461Y-78720315D01*
X95507706Y-78667511D01*
X95496500Y-78616000D01*
X95496500Y-62350000D01*
X96244473Y-62350000D01*
X96264563Y-62682136D01*
X96264563Y-62682141D01*
X96264564Y-62682142D01*
X96324544Y-63009441D01*
X96324545Y-63009445D01*
X96324546Y-63009449D01*
X96423530Y-63327104D01*
X96423534Y-63327116D01*
X96423537Y-63327123D01*
X96560102Y-63630557D01*
X96717127Y-63890308D01*
X96732251Y-63915326D01*
X96937460Y-64177255D01*
X97172744Y-64412539D01*
X97434673Y-64617748D01*
X97434678Y-64617751D01*
X97434682Y-64617754D01*
X97719443Y-64789898D01*
X98022877Y-64926463D01*
X98022890Y-64926467D01*
X98022895Y-64926469D01*
X98175696Y-64974083D01*
X98340559Y-65025456D01*
X98667858Y-65085436D01*
X98845740Y-65096196D01*
X98916892Y-65100500D01*
X98916894Y-65100500D01*
X99083108Y-65100500D01*
X99145365Y-65096734D01*
X99332142Y-65085436D01*
X99659441Y-65025456D01*
X99977123Y-64926463D01*
X100280557Y-64789898D01*
X100565318Y-64617754D01*
X100572704Y-64611968D01*
X100730149Y-64488617D01*
X100827252Y-64412542D01*
X101062542Y-64177252D01*
X101267754Y-63915318D01*
X101439898Y-63630557D01*
X101576463Y-63327123D01*
X101675456Y-63009441D01*
X101735436Y-62682142D01*
X101755527Y-62350000D01*
X101735436Y-62017858D01*
X101675456Y-61690559D01*
X101627253Y-61535868D01*
X101576469Y-61372895D01*
X101576467Y-61372890D01*
X101576463Y-61372877D01*
X101439898Y-61069443D01*
X101267754Y-60784682D01*
X101267751Y-60784678D01*
X101267748Y-60784673D01*
X101062539Y-60522744D01*
X100827255Y-60287460D01*
X100565326Y-60082251D01*
X100565318Y-60082246D01*
X100280557Y-59910102D01*
X99977123Y-59773537D01*
X99977116Y-59773534D01*
X99977104Y-59773530D01*
X99659449Y-59674546D01*
X99659445Y-59674545D01*
X99659441Y-59674544D01*
X99332142Y-59614564D01*
X99332141Y-59614563D01*
X99332136Y-59614563D01*
X99083108Y-59599500D01*
X99083106Y-59599500D01*
X98916894Y-59599500D01*
X98916892Y-59599500D01*
X98667863Y-59614563D01*
X98667858Y-59614564D01*
X98340559Y-59674544D01*
X98340556Y-59674544D01*
X98340550Y-59674546D01*
X98022895Y-59773530D01*
X98022879Y-59773536D01*
X98022877Y-59773537D01*
X97839608Y-59856020D01*
X97719570Y-59910045D01*
X97719443Y-59910102D01*
X97627823Y-59965487D01*
X97434673Y-60082251D01*
X97172744Y-60287460D01*
X96937460Y-60522744D01*
X96732251Y-60784673D01*
X96560101Y-61069445D01*
X96560100Y-61069447D01*
X96532617Y-61130511D01*
X96424376Y-61371014D01*
X96423536Y-61372880D01*
X96423530Y-61372895D01*
X96324546Y-61690550D01*
X96324544Y-61690556D01*
X96324544Y-61690559D01*
X96286804Y-61896497D01*
X96264563Y-62017863D01*
X96244473Y-62350000D01*
X95496500Y-62350000D01*
X95496499Y-36887763D01*
X114245000Y-36887763D01*
X114259858Y-37057599D01*
X114259860Y-37057610D01*
X114318730Y-37277317D01*
X114318734Y-37277326D01*
X114414865Y-37483482D01*
X114545342Y-37669820D01*
X114706179Y-37830657D01*
X114892517Y-37961134D01*
X115098673Y-38057265D01*
X115098682Y-38057269D01*
X115294999Y-38109872D01*
X115295000Y-38109871D01*
X115295000Y-36746686D01*
X115306955Y-36758641D01*
X115419852Y-36816165D01*
X115513519Y-36831000D01*
X115576481Y-36831000D01*
X115670148Y-36816165D01*
X115783045Y-36758641D01*
X115795000Y-36746686D01*
X115795000Y-38109872D01*
X115991317Y-38057269D01*
X115991326Y-38057265D01*
X116197482Y-37961134D01*
X116383820Y-37830657D01*
X116544657Y-37669820D01*
X116675134Y-37483481D01*
X116675135Y-37483479D01*
X116702618Y-37424543D01*
X116748790Y-37372103D01*
X116815983Y-37352951D01*
X116882864Y-37373166D01*
X116927382Y-37424543D01*
X116954864Y-37483479D01*
X116954865Y-37483481D01*
X117085342Y-37669820D01*
X117246179Y-37830657D01*
X117432517Y-37961134D01*
X117638673Y-38057265D01*
X117638682Y-38057269D01*
X117834999Y-38109872D01*
X117835000Y-38109871D01*
X117835000Y-36746686D01*
X117846955Y-36758641D01*
X117959852Y-36816165D01*
X118053519Y-36831000D01*
X118116481Y-36831000D01*
X118210148Y-36816165D01*
X118323045Y-36758641D01*
X118335000Y-36746686D01*
X118335000Y-38109872D01*
X118531317Y-38057269D01*
X118531326Y-38057265D01*
X118737482Y-37961134D01*
X118923820Y-37830657D01*
X119084657Y-37669820D01*
X119215134Y-37483481D01*
X119215135Y-37483479D01*
X119242618Y-37424543D01*
X119288790Y-37372103D01*
X119355983Y-37352951D01*
X119422864Y-37373166D01*
X119467382Y-37424543D01*
X119494864Y-37483479D01*
X119494865Y-37483481D01*
X119625342Y-37669820D01*
X119786179Y-37830657D01*
X119972517Y-37961134D01*
X120178673Y-38057265D01*
X120178682Y-38057269D01*
X120374999Y-38109872D01*
X120375000Y-38109871D01*
X120375000Y-36746686D01*
X120386955Y-36758641D01*
X120499852Y-36816165D01*
X120593519Y-36831000D01*
X120656481Y-36831000D01*
X120750148Y-36816165D01*
X120863045Y-36758641D01*
X120875000Y-36746686D01*
X120875000Y-38109872D01*
X121071317Y-38057269D01*
X121071326Y-38057265D01*
X121277482Y-37961134D01*
X121463820Y-37830657D01*
X121624657Y-37669820D01*
X121755134Y-37483481D01*
X121755135Y-37483479D01*
X121782618Y-37424543D01*
X121828790Y-37372103D01*
X121895983Y-37352951D01*
X121962864Y-37373166D01*
X122007382Y-37424543D01*
X122034864Y-37483479D01*
X122034865Y-37483481D01*
X122165342Y-37669820D01*
X122326179Y-37830657D01*
X122512517Y-37961134D01*
X122718673Y-38057265D01*
X122718682Y-38057269D01*
X122914999Y-38109872D01*
X122915000Y-38109871D01*
X122915000Y-36746686D01*
X122926955Y-36758641D01*
X123039852Y-36816165D01*
X123133519Y-36831000D01*
X123196481Y-36831000D01*
X123290148Y-36816165D01*
X123403045Y-36758641D01*
X123415000Y-36746686D01*
X123415000Y-38109872D01*
X123611317Y-38057269D01*
X123611326Y-38057265D01*
X123817482Y-37961134D01*
X124003820Y-37830657D01*
X124164657Y-37669820D01*
X124295132Y-37483484D01*
X124322341Y-37425134D01*
X124368513Y-37372695D01*
X124435707Y-37353542D01*
X124502588Y-37373757D01*
X124547106Y-37425133D01*
X124574431Y-37483732D01*
X124574432Y-37483734D01*
X124704954Y-37670141D01*
X124865858Y-37831045D01*
X124865861Y-37831047D01*
X125052266Y-37961568D01*
X125258504Y-38057739D01*
X125478308Y-38116635D01*
X125640230Y-38130801D01*
X125704998Y-38136468D01*
X125705000Y-38136468D01*
X125705002Y-38136468D01*
X125761807Y-38131498D01*
X125931692Y-38116635D01*
X126151496Y-38057739D01*
X126357734Y-37961568D01*
X126544139Y-37831047D01*
X126705047Y-37670139D01*
X126835568Y-37483734D01*
X126862618Y-37425724D01*
X126908790Y-37373285D01*
X126975983Y-37354133D01*
X127042865Y-37374348D01*
X127087382Y-37425725D01*
X127114429Y-37483728D01*
X127114432Y-37483734D01*
X127244954Y-37670141D01*
X127405858Y-37831045D01*
X127405861Y-37831047D01*
X127592266Y-37961568D01*
X127798504Y-38057739D01*
X128018308Y-38116635D01*
X128180230Y-38130801D01*
X128244998Y-38136468D01*
X128245000Y-38136468D01*
X128245002Y-38136468D01*
X128301807Y-38131498D01*
X128471692Y-38116635D01*
X128691496Y-38057739D01*
X128897734Y-37961568D01*
X129084139Y-37831047D01*
X129245047Y-37670139D01*
X129375568Y-37483734D01*
X129402618Y-37425724D01*
X129448790Y-37373285D01*
X129515983Y-37354133D01*
X129582865Y-37374348D01*
X129627382Y-37425725D01*
X129654429Y-37483728D01*
X129654432Y-37483734D01*
X129784954Y-37670141D01*
X129945858Y-37831045D01*
X129945861Y-37831047D01*
X130132266Y-37961568D01*
X130338504Y-38057739D01*
X130558308Y-38116635D01*
X130720230Y-38130801D01*
X130784998Y-38136468D01*
X130785000Y-38136468D01*
X130785002Y-38136468D01*
X130841807Y-38131498D01*
X131011692Y-38116635D01*
X131231496Y-38057739D01*
X131437734Y-37961568D01*
X131624139Y-37831047D01*
X131785047Y-37670139D01*
X131915568Y-37483734D01*
X131942618Y-37425724D01*
X131988790Y-37373285D01*
X132055983Y-37354133D01*
X132122865Y-37374348D01*
X132167382Y-37425725D01*
X132194429Y-37483728D01*
X132194432Y-37483734D01*
X132324954Y-37670141D01*
X132485858Y-37831045D01*
X132485861Y-37831047D01*
X132672266Y-37961568D01*
X132878504Y-38057739D01*
X132878509Y-38057740D01*
X132878511Y-38057741D01*
X133045798Y-38102565D01*
X133105459Y-38138930D01*
X133135988Y-38201777D01*
X133127693Y-38271152D01*
X133101386Y-38310021D01*
X132068228Y-39343181D01*
X132006905Y-39376666D01*
X131980547Y-39379500D01*
X130243748Y-39379500D01*
X130176709Y-39359815D01*
X130151600Y-39338474D01*
X130145873Y-39332114D01*
X130145869Y-39332110D01*
X129992734Y-39220851D01*
X129992729Y-39220848D01*
X129819807Y-39143857D01*
X129819802Y-39143855D01*
X129674001Y-39112865D01*
X129634646Y-39104500D01*
X129445354Y-39104500D01*
X129412897Y-39111398D01*
X129260197Y-39143855D01*
X129260192Y-39143857D01*
X129087270Y-39220848D01*
X129087265Y-39220851D01*
X128934129Y-39332111D01*
X128807466Y-39472785D01*
X128712821Y-39636715D01*
X128712818Y-39636722D01*
X128654327Y-39816740D01*
X128654326Y-39816744D01*
X128634540Y-40005000D01*
X128654326Y-40193256D01*
X128654327Y-40193259D01*
X128712818Y-40373277D01*
X128712821Y-40373284D01*
X128807467Y-40537216D01*
X128897857Y-40637604D01*
X128934129Y-40677888D01*
X129087265Y-40789148D01*
X129087270Y-40789151D01*
X129260192Y-40866142D01*
X129260197Y-40866144D01*
X129445354Y-40905500D01*
X129445355Y-40905500D01*
X129634644Y-40905500D01*
X129634646Y-40905500D01*
X129819803Y-40866144D01*
X129992730Y-40789151D01*
X130145871Y-40677888D01*
X130149814Y-40673509D01*
X130151600Y-40671526D01*
X130211087Y-40634879D01*
X130243748Y-40630500D01*
X132208257Y-40630500D01*
X132223877Y-40632224D01*
X132223904Y-40631939D01*
X132231660Y-40632671D01*
X132231667Y-40632673D01*
X132300814Y-40630500D01*
X132330350Y-40630500D01*
X132337228Y-40629630D01*
X132343041Y-40629172D01*
X132389627Y-40627709D01*
X132408869Y-40622117D01*
X132427912Y-40618174D01*
X132447792Y-40615664D01*
X132491122Y-40598507D01*
X132496646Y-40596617D01*
X132500396Y-40595527D01*
X132541390Y-40583618D01*
X132558629Y-40573422D01*
X132576103Y-40564862D01*
X132594727Y-40557488D01*
X132594727Y-40557487D01*
X132594732Y-40557486D01*
X132632449Y-40530082D01*
X132637305Y-40526892D01*
X132677420Y-40503170D01*
X132691589Y-40488999D01*
X132706379Y-40476368D01*
X132722587Y-40464594D01*
X132752299Y-40428676D01*
X132756212Y-40424376D01*
X135155479Y-38025109D01*
X135216800Y-37991626D01*
X135286492Y-37996610D01*
X135295560Y-38000409D01*
X135418504Y-38057739D01*
X135638308Y-38116635D01*
X135800230Y-38130801D01*
X135864998Y-38136468D01*
X135865000Y-38136468D01*
X135865002Y-38136468D01*
X135921807Y-38131498D01*
X136091692Y-38116635D01*
X136311496Y-38057739D01*
X136517734Y-37961568D01*
X136704139Y-37831047D01*
X136865047Y-37670139D01*
X136882272Y-37645539D01*
X136936848Y-37601913D01*
X137006346Y-37594718D01*
X137068701Y-37626239D01*
X137104116Y-37686468D01*
X137107138Y-37703406D01*
X137110908Y-37738483D01*
X137161202Y-37873328D01*
X137161206Y-37873335D01*
X137247452Y-37988544D01*
X137247455Y-37988547D01*
X137362664Y-38074793D01*
X137362671Y-38074797D01*
X137497517Y-38125091D01*
X137497516Y-38125091D01*
X137504444Y-38125835D01*
X137557127Y-38131500D01*
X139252872Y-38131499D01*
X139312483Y-38125091D01*
X139447331Y-38074796D01*
X139562546Y-37988546D01*
X139648796Y-37873331D01*
X139648797Y-37873326D01*
X139652916Y-37867825D01*
X139708850Y-37825954D01*
X139778541Y-37820970D01*
X139839864Y-37854455D01*
X140031038Y-38045629D01*
X140064523Y-38106952D01*
X140066678Y-38120348D01*
X140074968Y-38199227D01*
X140084326Y-38288256D01*
X140084327Y-38288259D01*
X140142818Y-38468277D01*
X140142821Y-38468284D01*
X140237467Y-38632216D01*
X140364129Y-38772888D01*
X140517265Y-38884148D01*
X140517270Y-38884151D01*
X140690192Y-38961142D01*
X140690197Y-38961144D01*
X140875354Y-39000500D01*
X140875355Y-39000500D01*
X141064644Y-39000500D01*
X141064646Y-39000500D01*
X141249803Y-38961144D01*
X141422730Y-38884151D01*
X141575871Y-38772888D01*
X141702533Y-38632216D01*
X141797179Y-38468284D01*
X141855674Y-38288256D01*
X141875460Y-38100000D01*
X141855674Y-37911744D01*
X141797179Y-37731716D01*
X141702533Y-37567784D01*
X141575871Y-37427112D01*
X141573149Y-37425134D01*
X141422734Y-37315851D01*
X141422729Y-37315848D01*
X141249807Y-37238857D01*
X141249802Y-37238855D01*
X141104001Y-37207865D01*
X141064646Y-37199500D01*
X141064645Y-37199500D01*
X141005453Y-37199500D01*
X140938414Y-37179815D01*
X140917772Y-37163181D01*
X139801803Y-36047212D01*
X139791980Y-36034950D01*
X139791759Y-36035134D01*
X139786786Y-36029122D01*
X139744615Y-35989521D01*
X139709220Y-35929279D01*
X139705499Y-35899129D01*
X139705499Y-35183129D01*
X139705498Y-35183123D01*
X139699091Y-35123516D01*
X139648797Y-34988671D01*
X139648793Y-34988664D01*
X139562547Y-34873455D01*
X139562544Y-34873452D01*
X139447335Y-34787206D01*
X139447328Y-34787202D01*
X139312482Y-34736908D01*
X139312483Y-34736908D01*
X139252883Y-34730501D01*
X139252881Y-34730500D01*
X139252873Y-34730500D01*
X139252864Y-34730500D01*
X137557129Y-34730500D01*
X137557123Y-34730501D01*
X137497516Y-34736908D01*
X137362671Y-34787202D01*
X137362664Y-34787206D01*
X137247455Y-34873452D01*
X137247452Y-34873455D01*
X137161206Y-34988664D01*
X137161202Y-34988671D01*
X137110908Y-35123516D01*
X137107137Y-35158596D01*
X137080398Y-35223146D01*
X137023006Y-35262994D01*
X136953180Y-35265487D01*
X136893092Y-35229834D01*
X136882273Y-35216462D01*
X136865045Y-35191858D01*
X136704141Y-35030954D01*
X136517734Y-34900432D01*
X136517732Y-34900431D01*
X136311497Y-34804261D01*
X136311488Y-34804258D01*
X136091697Y-34745366D01*
X136091693Y-34745365D01*
X136091692Y-34745365D01*
X136091691Y-34745364D01*
X136091686Y-34745364D01*
X135865002Y-34725532D01*
X135864998Y-34725532D01*
X135638313Y-34745364D01*
X135638302Y-34745366D01*
X135418511Y-34804258D01*
X135418502Y-34804261D01*
X135212267Y-34900431D01*
X135212265Y-34900432D01*
X135025858Y-35030954D01*
X134864954Y-35191858D01*
X134734432Y-35378265D01*
X134734431Y-35378267D01*
X134707382Y-35436275D01*
X134661209Y-35488714D01*
X134594016Y-35507866D01*
X134527135Y-35487650D01*
X134482618Y-35436275D01*
X134455686Y-35378520D01*
X134455568Y-35378266D01*
X134325047Y-35191861D01*
X134325045Y-35191858D01*
X134164141Y-35030954D01*
X133977734Y-34900432D01*
X133977732Y-34900431D01*
X133771497Y-34804261D01*
X133771488Y-34804258D01*
X133551697Y-34745366D01*
X133551693Y-34745365D01*
X133551692Y-34745365D01*
X133551691Y-34745364D01*
X133551686Y-34745364D01*
X133325002Y-34725532D01*
X133324998Y-34725532D01*
X133098313Y-34745364D01*
X133098302Y-34745366D01*
X132878511Y-34804258D01*
X132878502Y-34804261D01*
X132672267Y-34900431D01*
X132672265Y-34900432D01*
X132485858Y-35030954D01*
X132324954Y-35191858D01*
X132194432Y-35378265D01*
X132194431Y-35378267D01*
X132167382Y-35436275D01*
X132121209Y-35488714D01*
X132054016Y-35507866D01*
X131987135Y-35487650D01*
X131942618Y-35436275D01*
X131915686Y-35378520D01*
X131915568Y-35378266D01*
X131785047Y-35191861D01*
X131785045Y-35191858D01*
X131624141Y-35030954D01*
X131437734Y-34900432D01*
X131437732Y-34900431D01*
X131231497Y-34804261D01*
X131231488Y-34804258D01*
X131011697Y-34745366D01*
X131011693Y-34745365D01*
X131011692Y-34745365D01*
X131011691Y-34745364D01*
X131011686Y-34745364D01*
X130785002Y-34725532D01*
X130784998Y-34725532D01*
X130558313Y-34745364D01*
X130558302Y-34745366D01*
X130338511Y-34804258D01*
X130338502Y-34804261D01*
X130132267Y-34900431D01*
X130132265Y-34900432D01*
X129945858Y-35030954D01*
X129784954Y-35191858D01*
X129654432Y-35378265D01*
X129654431Y-35378267D01*
X129627382Y-35436275D01*
X129581209Y-35488714D01*
X129514016Y-35507866D01*
X129447135Y-35487650D01*
X129402618Y-35436275D01*
X129375686Y-35378520D01*
X129375568Y-35378266D01*
X129245047Y-35191861D01*
X129245045Y-35191858D01*
X129084141Y-35030954D01*
X128897734Y-34900432D01*
X128897732Y-34900431D01*
X128691497Y-34804261D01*
X128691488Y-34804258D01*
X128471697Y-34745366D01*
X128471693Y-34745365D01*
X128471692Y-34745365D01*
X128471691Y-34745364D01*
X128471686Y-34745364D01*
X128245002Y-34725532D01*
X128244998Y-34725532D01*
X128018313Y-34745364D01*
X128018302Y-34745366D01*
X127798511Y-34804258D01*
X127798502Y-34804261D01*
X127592267Y-34900431D01*
X127592265Y-34900432D01*
X127405858Y-35030954D01*
X127244954Y-35191858D01*
X127114432Y-35378265D01*
X127114431Y-35378267D01*
X127087382Y-35436275D01*
X127041209Y-35488714D01*
X126974016Y-35507866D01*
X126907135Y-35487650D01*
X126862618Y-35436275D01*
X126835686Y-35378520D01*
X126835568Y-35378266D01*
X126705047Y-35191861D01*
X126705045Y-35191858D01*
X126544141Y-35030954D01*
X126357734Y-34900432D01*
X126357732Y-34900431D01*
X126151497Y-34804261D01*
X126151488Y-34804258D01*
X125931697Y-34745366D01*
X125931693Y-34745365D01*
X125931692Y-34745365D01*
X125931691Y-34745364D01*
X125931686Y-34745364D01*
X125705002Y-34725532D01*
X125704998Y-34725532D01*
X125478313Y-34745364D01*
X125478302Y-34745366D01*
X125258511Y-34804258D01*
X125258502Y-34804261D01*
X125052267Y-34900431D01*
X125052265Y-34900432D01*
X124865858Y-35030954D01*
X124704954Y-35191858D01*
X124574433Y-35378264D01*
X124574432Y-35378266D01*
X124574315Y-35378518D01*
X124547106Y-35436867D01*
X124500933Y-35489306D01*
X124433739Y-35508457D01*
X124366858Y-35488241D01*
X124322342Y-35436865D01*
X124295135Y-35378520D01*
X124295134Y-35378518D01*
X124164657Y-35192179D01*
X124003820Y-35031342D01*
X123817482Y-34900865D01*
X123611328Y-34804734D01*
X123415000Y-34752127D01*
X123415000Y-36115314D01*
X123403045Y-36103359D01*
X123290148Y-36045835D01*
X123196481Y-36031000D01*
X123133519Y-36031000D01*
X123039852Y-36045835D01*
X122926955Y-36103359D01*
X122915000Y-36115314D01*
X122915000Y-34752127D01*
X122718671Y-34804734D01*
X122512517Y-34900865D01*
X122326179Y-35031342D01*
X122165342Y-35192179D01*
X122034865Y-35378517D01*
X122007382Y-35437457D01*
X121961210Y-35489896D01*
X121894016Y-35509048D01*
X121827135Y-35488832D01*
X121782618Y-35437457D01*
X121755134Y-35378517D01*
X121624657Y-35192179D01*
X121463820Y-35031342D01*
X121277482Y-34900865D01*
X121071328Y-34804734D01*
X120875000Y-34752127D01*
X120875000Y-36115314D01*
X120863045Y-36103359D01*
X120750148Y-36045835D01*
X120656481Y-36031000D01*
X120593519Y-36031000D01*
X120499852Y-36045835D01*
X120386955Y-36103359D01*
X120375000Y-36115314D01*
X120375000Y-34752127D01*
X120178671Y-34804734D01*
X119972517Y-34900865D01*
X119786179Y-35031342D01*
X119625342Y-35192179D01*
X119494865Y-35378517D01*
X119467382Y-35437457D01*
X119421210Y-35489896D01*
X119354016Y-35509048D01*
X119287135Y-35488832D01*
X119242618Y-35437457D01*
X119215134Y-35378517D01*
X119084657Y-35192179D01*
X118923820Y-35031342D01*
X118737482Y-34900865D01*
X118531328Y-34804734D01*
X118335000Y-34752127D01*
X118335000Y-36115314D01*
X118323045Y-36103359D01*
X118210148Y-36045835D01*
X118116481Y-36031000D01*
X118053519Y-36031000D01*
X117959852Y-36045835D01*
X117846955Y-36103359D01*
X117835000Y-36115314D01*
X117835000Y-34752127D01*
X117638671Y-34804734D01*
X117432517Y-34900865D01*
X117246179Y-35031342D01*
X117085342Y-35192179D01*
X116954865Y-35378517D01*
X116927382Y-35437457D01*
X116881210Y-35489896D01*
X116814016Y-35509048D01*
X116747135Y-35488832D01*
X116702618Y-35437457D01*
X116675134Y-35378517D01*
X116544657Y-35192179D01*
X116383820Y-35031342D01*
X116197482Y-34900865D01*
X115991328Y-34804734D01*
X115795000Y-34752127D01*
X115795000Y-36115314D01*
X115783045Y-36103359D01*
X115670148Y-36045835D01*
X115576481Y-36031000D01*
X115513519Y-36031000D01*
X115419852Y-36045835D01*
X115306955Y-36103359D01*
X115295000Y-36115314D01*
X115295000Y-34752127D01*
X115098671Y-34804734D01*
X114892517Y-34900865D01*
X114706179Y-35031342D01*
X114545342Y-35192179D01*
X114414865Y-35378517D01*
X114318734Y-35584673D01*
X114318730Y-35584682D01*
X114259860Y-35804389D01*
X114259858Y-35804400D01*
X114245000Y-35974237D01*
X114245000Y-36181000D01*
X115229314Y-36181000D01*
X115217359Y-36192955D01*
X115159835Y-36305852D01*
X115140014Y-36431000D01*
X115159835Y-36556148D01*
X115217359Y-36669045D01*
X115229314Y-36681000D01*
X114245000Y-36681000D01*
X114245000Y-36887763D01*
X95496499Y-36887763D01*
X95496499Y-33468844D01*
X124405000Y-33468844D01*
X124411401Y-33528372D01*
X124411403Y-33528379D01*
X124461645Y-33663086D01*
X124461649Y-33663093D01*
X124547809Y-33778187D01*
X124547812Y-33778190D01*
X124662906Y-33864350D01*
X124662913Y-33864354D01*
X124797620Y-33914596D01*
X124797627Y-33914598D01*
X124857155Y-33920999D01*
X124857172Y-33921000D01*
X125455000Y-33921000D01*
X125455000Y-32936686D01*
X125466955Y-32948641D01*
X125579852Y-33006165D01*
X125673519Y-33021000D01*
X125736481Y-33021000D01*
X125830148Y-33006165D01*
X125943045Y-32948641D01*
X125955000Y-32936686D01*
X125955000Y-33921000D01*
X126552828Y-33921000D01*
X126552844Y-33920999D01*
X126612372Y-33914598D01*
X126612379Y-33914596D01*
X126747086Y-33864354D01*
X126747093Y-33864350D01*
X126862187Y-33778190D01*
X126862190Y-33778187D01*
X126948350Y-33663093D01*
X126948354Y-33663086D01*
X126998596Y-33528380D01*
X127002424Y-33492781D01*
X127029162Y-33428230D01*
X127086555Y-33388382D01*
X127156380Y-33385888D01*
X127216469Y-33421540D01*
X127227289Y-33434912D01*
X127244956Y-33460143D01*
X127405858Y-33621045D01*
X127405861Y-33621047D01*
X127592266Y-33751568D01*
X127798504Y-33847739D01*
X128018308Y-33906635D01*
X128180230Y-33920801D01*
X128244998Y-33926468D01*
X128245000Y-33926468D01*
X128245002Y-33926468D01*
X128307511Y-33920999D01*
X128471692Y-33906635D01*
X128691496Y-33847739D01*
X128897734Y-33751568D01*
X129084139Y-33621047D01*
X129245047Y-33460139D01*
X129375568Y-33273734D01*
X129402618Y-33215724D01*
X129448790Y-33163285D01*
X129515983Y-33144133D01*
X129582865Y-33164348D01*
X129627382Y-33215725D01*
X129654429Y-33273728D01*
X129654432Y-33273734D01*
X129784954Y-33460141D01*
X129945858Y-33621045D01*
X129945861Y-33621047D01*
X130132266Y-33751568D01*
X130338504Y-33847739D01*
X130558308Y-33906635D01*
X130720230Y-33920801D01*
X130784998Y-33926468D01*
X130785000Y-33926468D01*
X130785002Y-33926468D01*
X130847511Y-33920999D01*
X131011692Y-33906635D01*
X131231496Y-33847739D01*
X131437734Y-33751568D01*
X131624139Y-33621047D01*
X131785047Y-33460139D01*
X131915568Y-33273734D01*
X131942618Y-33215724D01*
X131988790Y-33163285D01*
X132055983Y-33144133D01*
X132122865Y-33164348D01*
X132167382Y-33215725D01*
X132194429Y-33273728D01*
X132194432Y-33273734D01*
X132324954Y-33460141D01*
X132485858Y-33621045D01*
X132485861Y-33621047D01*
X132672266Y-33751568D01*
X132878504Y-33847739D01*
X133098308Y-33906635D01*
X133260230Y-33920801D01*
X133324998Y-33926468D01*
X133325000Y-33926468D01*
X133325002Y-33926468D01*
X133387511Y-33920999D01*
X133551692Y-33906635D01*
X133771496Y-33847739D01*
X133977734Y-33751568D01*
X134164139Y-33621047D01*
X134325047Y-33460139D01*
X134455568Y-33273734D01*
X134482618Y-33215724D01*
X134528790Y-33163285D01*
X134595983Y-33144133D01*
X134662865Y-33164348D01*
X134707382Y-33215725D01*
X134734429Y-33273728D01*
X134734432Y-33273734D01*
X134864954Y-33460141D01*
X135025858Y-33621045D01*
X135025861Y-33621047D01*
X135212266Y-33751568D01*
X135418504Y-33847739D01*
X135638308Y-33906635D01*
X135800230Y-33920801D01*
X135864998Y-33926468D01*
X135865000Y-33926468D01*
X135865002Y-33926468D01*
X135927511Y-33920999D01*
X136091692Y-33906635D01*
X136311496Y-33847739D01*
X136517734Y-33751568D01*
X136704139Y-33621047D01*
X136865047Y-33460139D01*
X136995568Y-33273734D01*
X137091739Y-33067496D01*
X137150635Y-32847692D01*
X137170468Y-32621000D01*
X137150635Y-32394308D01*
X137091739Y-32174504D01*
X136995568Y-31968266D01*
X136865047Y-31781861D01*
X136865045Y-31781858D01*
X136704141Y-31620954D01*
X136517734Y-31490432D01*
X136517732Y-31490431D01*
X136311497Y-31394261D01*
X136311488Y-31394258D01*
X136091697Y-31335366D01*
X136091693Y-31335365D01*
X136091692Y-31335365D01*
X136091691Y-31335364D01*
X136091686Y-31335364D01*
X135865002Y-31315532D01*
X135864998Y-31315532D01*
X135638313Y-31335364D01*
X135638302Y-31335366D01*
X135418511Y-31394258D01*
X135418502Y-31394261D01*
X135212267Y-31490431D01*
X135212265Y-31490432D01*
X135025858Y-31620954D01*
X134864954Y-31781858D01*
X134734432Y-31968265D01*
X134734431Y-31968267D01*
X134707382Y-32026275D01*
X134661209Y-32078714D01*
X134594016Y-32097866D01*
X134527135Y-32077650D01*
X134482618Y-32026275D01*
X134455568Y-31968267D01*
X134455567Y-31968265D01*
X134325045Y-31781858D01*
X134164141Y-31620954D01*
X133977734Y-31490432D01*
X133977732Y-31490431D01*
X133771497Y-31394261D01*
X133771488Y-31394258D01*
X133551697Y-31335366D01*
X133551693Y-31335365D01*
X133551692Y-31335365D01*
X133551691Y-31335364D01*
X133551686Y-31335364D01*
X133325002Y-31315532D01*
X133324998Y-31315532D01*
X133098313Y-31335364D01*
X133098302Y-31335366D01*
X132878511Y-31394258D01*
X132878502Y-31394261D01*
X132672267Y-31490431D01*
X132672265Y-31490432D01*
X132485858Y-31620954D01*
X132324954Y-31781858D01*
X132194432Y-31968265D01*
X132194431Y-31968267D01*
X132167382Y-32026275D01*
X132121209Y-32078714D01*
X132054016Y-32097866D01*
X131987135Y-32077650D01*
X131942618Y-32026275D01*
X131915568Y-31968267D01*
X131915567Y-31968265D01*
X131785045Y-31781858D01*
X131624141Y-31620954D01*
X131437734Y-31490432D01*
X131437732Y-31490431D01*
X131231497Y-31394261D01*
X131231488Y-31394258D01*
X131011697Y-31335366D01*
X131011693Y-31335365D01*
X131011692Y-31335365D01*
X131011691Y-31335364D01*
X131011686Y-31335364D01*
X130785002Y-31315532D01*
X130784998Y-31315532D01*
X130558313Y-31335364D01*
X130558302Y-31335366D01*
X130338511Y-31394258D01*
X130338502Y-31394261D01*
X130132267Y-31490431D01*
X130132265Y-31490432D01*
X129945858Y-31620954D01*
X129784954Y-31781858D01*
X129654432Y-31968265D01*
X129654431Y-31968267D01*
X129627382Y-32026275D01*
X129581209Y-32078714D01*
X129514016Y-32097866D01*
X129447135Y-32077650D01*
X129402618Y-32026275D01*
X129375568Y-31968267D01*
X129375567Y-31968265D01*
X129245045Y-31781858D01*
X129084141Y-31620954D01*
X128897734Y-31490432D01*
X128897732Y-31490431D01*
X128691497Y-31394261D01*
X128691488Y-31394258D01*
X128471697Y-31335366D01*
X128471693Y-31335365D01*
X128471692Y-31335365D01*
X128471691Y-31335364D01*
X128471686Y-31335364D01*
X128245002Y-31315532D01*
X128244998Y-31315532D01*
X128018313Y-31335364D01*
X128018302Y-31335366D01*
X127798511Y-31394258D01*
X127798502Y-31394261D01*
X127592267Y-31490431D01*
X127592265Y-31490432D01*
X127405858Y-31620954D01*
X127244951Y-31781861D01*
X127227287Y-31807088D01*
X127172710Y-31850712D01*
X127103211Y-31857904D01*
X127040857Y-31826380D01*
X127005445Y-31766150D01*
X127002425Y-31749218D01*
X126998598Y-31713627D01*
X126998596Y-31713620D01*
X126948354Y-31578913D01*
X126948350Y-31578906D01*
X126862190Y-31463812D01*
X126862187Y-31463809D01*
X126747093Y-31377649D01*
X126747086Y-31377645D01*
X126612379Y-31327403D01*
X126612372Y-31327401D01*
X126552844Y-31321000D01*
X125955000Y-31321000D01*
X125955000Y-32305314D01*
X125943045Y-32293359D01*
X125830148Y-32235835D01*
X125736481Y-32221000D01*
X125673519Y-32221000D01*
X125579852Y-32235835D01*
X125466955Y-32293359D01*
X125455000Y-32305314D01*
X125455000Y-31321000D01*
X124857155Y-31321000D01*
X124797627Y-31327401D01*
X124797620Y-31327403D01*
X124662913Y-31377645D01*
X124662906Y-31377649D01*
X124547812Y-31463809D01*
X124547809Y-31463812D01*
X124461649Y-31578906D01*
X124461645Y-31578913D01*
X124411403Y-31713620D01*
X124411401Y-31713627D01*
X124405000Y-31773155D01*
X124405000Y-32371000D01*
X125389314Y-32371000D01*
X125377359Y-32382955D01*
X125319835Y-32495852D01*
X125300014Y-32621000D01*
X125319835Y-32746148D01*
X125377359Y-32859045D01*
X125389314Y-32871000D01*
X124405000Y-32871000D01*
X124405000Y-33468844D01*
X95496499Y-33468844D01*
X95496499Y-29072500D01*
X95516184Y-29005461D01*
X95568988Y-28959706D01*
X95620499Y-28948500D01*
X159395500Y-28948500D01*
X159462539Y-28968185D01*
G37*
%TD.AperFunction*%
%TA.AperFunction,Conductor*%
G36*
X106260825Y-70298072D02*
G01*
X106311933Y-70225082D01*
X106364921Y-70111449D01*
X106411093Y-70059009D01*
X106478287Y-70039857D01*
X106545168Y-70060072D01*
X106564985Y-70076172D01*
X106685858Y-70197045D01*
X106706029Y-70211169D01*
X106872266Y-70327568D01*
X106923303Y-70351367D01*
X106930275Y-70354618D01*
X106982714Y-70400791D01*
X107001866Y-70467984D01*
X106981650Y-70534865D01*
X106930275Y-70579382D01*
X106872267Y-70606431D01*
X106872265Y-70606432D01*
X106685858Y-70736954D01*
X106524954Y-70897858D01*
X106394432Y-71084265D01*
X106394431Y-71084267D01*
X106354222Y-71170496D01*
X106308049Y-71222935D01*
X106240856Y-71242087D01*
X106173975Y-71221871D01*
X106154159Y-71205772D01*
X106020941Y-71072554D01*
X105834534Y-70942032D01*
X105834530Y-70942030D01*
X105818822Y-70934705D01*
X105766383Y-70888531D01*
X105747233Y-70821337D01*
X105767450Y-70754457D01*
X105818828Y-70709940D01*
X105834281Y-70702734D01*
X105907272Y-70651625D01*
X105226201Y-69970553D01*
X105306948Y-69957765D01*
X105419845Y-69900241D01*
X105509441Y-69810645D01*
X105566965Y-69697748D01*
X105579753Y-69617000D01*
X106260825Y-70298072D01*
G37*
%TD.AperFunction*%
%TA.AperFunction,Conductor*%
G36*
X129316524Y-50792185D02*
G01*
X129362279Y-50844989D01*
X129372804Y-50883534D01*
X129381946Y-50970511D01*
X129391325Y-51059752D01*
X129391326Y-51059758D01*
X129393430Y-51066233D01*
X129395423Y-51136075D01*
X129363179Y-51192228D01*
X126591208Y-53964199D01*
X126578951Y-53974020D01*
X126579134Y-53974241D01*
X126573123Y-53979213D01*
X126525772Y-54029636D01*
X126504889Y-54050519D01*
X126504877Y-54050532D01*
X126500621Y-54056017D01*
X126496837Y-54060447D01*
X126464937Y-54094418D01*
X126464936Y-54094420D01*
X126455284Y-54111976D01*
X126444610Y-54128226D01*
X126432329Y-54144061D01*
X126432324Y-54144068D01*
X126413815Y-54186838D01*
X126411245Y-54192084D01*
X126388803Y-54232906D01*
X126383822Y-54252307D01*
X126377521Y-54270710D01*
X126369562Y-54289102D01*
X126369561Y-54289105D01*
X126362271Y-54335127D01*
X126361087Y-54340846D01*
X126349501Y-54385972D01*
X126349500Y-54385982D01*
X126349500Y-54406016D01*
X126347973Y-54425415D01*
X126344840Y-54445194D01*
X126344840Y-54445195D01*
X126349225Y-54491583D01*
X126349500Y-54497421D01*
X126349500Y-54636255D01*
X126347775Y-54651872D01*
X126348061Y-54651899D01*
X126347326Y-54659665D01*
X126349500Y-54728814D01*
X126349500Y-54746102D01*
X126344395Y-54778330D01*
X126344676Y-54778390D01*
X126343539Y-54783735D01*
X126343432Y-54784416D01*
X126343326Y-54784742D01*
X126324847Y-54960567D01*
X126323540Y-54973000D01*
X126343326Y-55161256D01*
X126343327Y-55161259D01*
X126401818Y-55341277D01*
X126401821Y-55341284D01*
X126496467Y-55505216D01*
X126551209Y-55566013D01*
X126623129Y-55645888D01*
X126776265Y-55757148D01*
X126776267Y-55757149D01*
X126776270Y-55757151D01*
X126824555Y-55778649D01*
X126877791Y-55823900D01*
X126898112Y-55890749D01*
X126879066Y-55957972D01*
X126861799Y-55979609D01*
X125018181Y-57823227D01*
X124956858Y-57856712D01*
X124887166Y-57851728D01*
X124831233Y-57809856D01*
X124806816Y-57744392D01*
X124806500Y-57735546D01*
X124806500Y-56296481D01*
X124808224Y-56280861D01*
X124807939Y-56280834D01*
X124808673Y-56273072D01*
X124806500Y-56203911D01*
X124806500Y-56174395D01*
X124806500Y-56174389D01*
X124805631Y-56167518D01*
X124805173Y-56161691D01*
X124803710Y-56115112D01*
X124798119Y-56095869D01*
X124794173Y-56076817D01*
X124791664Y-56056947D01*
X124774504Y-56013606D01*
X124772624Y-56008118D01*
X124759618Y-55963349D01*
X124749422Y-55946109D01*
X124740861Y-55928633D01*
X124733487Y-55910009D01*
X124733486Y-55910007D01*
X124706079Y-55872284D01*
X124702888Y-55867425D01*
X124679172Y-55827322D01*
X124679165Y-55827313D01*
X124665006Y-55813154D01*
X124652368Y-55798358D01*
X124649547Y-55794475D01*
X124640594Y-55782152D01*
X124610370Y-55757149D01*
X124604688Y-55752448D01*
X124600376Y-55748525D01*
X123980925Y-55129073D01*
X123947440Y-55067750D01*
X123945288Y-55054372D01*
X123927639Y-54886448D01*
X123869144Y-54706420D01*
X123774498Y-54542488D01*
X123647836Y-54401816D01*
X123647835Y-54401815D01*
X123494699Y-54290555D01*
X123494694Y-54290552D01*
X123321772Y-54213561D01*
X123321767Y-54213559D01*
X123175966Y-54182569D01*
X123136611Y-54174204D01*
X122947319Y-54174204D01*
X122914862Y-54181102D01*
X122762162Y-54213559D01*
X122762157Y-54213561D01*
X122589235Y-54290552D01*
X122589230Y-54290555D01*
X122436094Y-54401815D01*
X122309431Y-54542489D01*
X122214786Y-54706419D01*
X122214783Y-54706426D01*
X122156292Y-54886444D01*
X122156291Y-54886448D01*
X122136505Y-55074704D01*
X122156291Y-55262960D01*
X122156292Y-55262963D01*
X122214783Y-55442981D01*
X122214786Y-55442988D01*
X122309432Y-55606920D01*
X122408788Y-55717266D01*
X122436094Y-55747592D01*
X122589230Y-55858852D01*
X122589235Y-55858855D01*
X122762157Y-55935846D01*
X122762162Y-55935848D01*
X122947319Y-55975204D01*
X123006513Y-55975204D01*
X123073552Y-55994889D01*
X123094194Y-56011523D01*
X123519181Y-56436510D01*
X123552666Y-56497833D01*
X123555500Y-56524191D01*
X123555500Y-58192255D01*
X123553775Y-58207872D01*
X123554061Y-58207899D01*
X123553326Y-58215665D01*
X123555500Y-58284814D01*
X123555500Y-58314343D01*
X123555501Y-58314360D01*
X123556368Y-58321231D01*
X123556826Y-58327050D01*
X123558290Y-58373624D01*
X123558291Y-58373627D01*
X123563880Y-58392867D01*
X123567824Y-58411911D01*
X123570336Y-58431792D01*
X123582894Y-58463511D01*
X123587490Y-58475119D01*
X123589382Y-58480647D01*
X123602381Y-58525388D01*
X123612580Y-58542634D01*
X123621138Y-58560103D01*
X123628514Y-58578732D01*
X123655898Y-58616423D01*
X123659106Y-58621307D01*
X123682827Y-58661416D01*
X123682833Y-58661424D01*
X123696990Y-58675580D01*
X123709628Y-58690376D01*
X123721405Y-58706586D01*
X123721406Y-58706587D01*
X123757309Y-58736288D01*
X123761620Y-58740210D01*
X123931408Y-58909998D01*
X124004038Y-58982628D01*
X124037523Y-59043951D01*
X124039678Y-59057347D01*
X124043869Y-59097216D01*
X124057326Y-59225256D01*
X124057327Y-59225259D01*
X124115818Y-59405277D01*
X124115821Y-59405284D01*
X124210467Y-59569216D01*
X124318982Y-59689734D01*
X124337129Y-59709888D01*
X124490265Y-59821148D01*
X124490270Y-59821151D01*
X124663192Y-59898142D01*
X124663197Y-59898144D01*
X124848354Y-59937500D01*
X124848355Y-59937500D01*
X125037644Y-59937500D01*
X125037646Y-59937500D01*
X125222803Y-59898144D01*
X125395730Y-59821151D01*
X125548871Y-59709888D01*
X125675533Y-59569216D01*
X125770179Y-59405284D01*
X125828674Y-59225256D01*
X125848460Y-59037000D01*
X125828674Y-58848744D01*
X125828671Y-58848737D01*
X125828499Y-58847092D01*
X125841068Y-58778362D01*
X125864136Y-58746452D01*
X131007771Y-53602819D01*
X131069094Y-53569334D01*
X131095452Y-53566500D01*
X132333252Y-53566500D01*
X132400291Y-53586185D01*
X132425400Y-53607526D01*
X132431126Y-53613885D01*
X132431130Y-53613889D01*
X132584265Y-53725148D01*
X132584270Y-53725151D01*
X132757192Y-53802142D01*
X132757197Y-53802144D01*
X132942354Y-53841500D01*
X132942355Y-53841500D01*
X133131644Y-53841500D01*
X133131646Y-53841500D01*
X133316803Y-53802144D01*
X133489730Y-53725151D01*
X133642871Y-53613888D01*
X133769533Y-53473216D01*
X133864179Y-53309284D01*
X133922674Y-53129256D01*
X133942460Y-52941000D01*
X133922674Y-52752744D01*
X133864179Y-52572716D01*
X133769533Y-52408784D01*
X133642871Y-52268112D01*
X133642870Y-52268111D01*
X133489734Y-52156851D01*
X133489729Y-52156848D01*
X133316807Y-52079857D01*
X133316802Y-52079855D01*
X133171001Y-52048865D01*
X133131646Y-52040500D01*
X132942354Y-52040500D01*
X132909897Y-52047398D01*
X132757197Y-52079855D01*
X132757192Y-52079857D01*
X132584270Y-52156848D01*
X132584265Y-52156851D01*
X132431130Y-52268110D01*
X132431126Y-52268114D01*
X132425400Y-52274474D01*
X132365913Y-52311121D01*
X132333252Y-52315500D01*
X130867743Y-52315500D01*
X130852122Y-52313775D01*
X130852095Y-52314061D01*
X130844333Y-52313326D01*
X130775172Y-52315500D01*
X130745649Y-52315500D01*
X130738778Y-52316367D01*
X130732959Y-52316825D01*
X130686374Y-52318289D01*
X130686368Y-52318290D01*
X130667126Y-52323880D01*
X130648087Y-52327823D01*
X130628217Y-52330334D01*
X130628203Y-52330337D01*
X130584883Y-52347488D01*
X130579358Y-52349380D01*
X130534613Y-52362380D01*
X130534610Y-52362381D01*
X130517366Y-52372579D01*
X130499905Y-52381133D01*
X130481274Y-52388510D01*
X130481262Y-52388517D01*
X130443570Y-52415902D01*
X130438687Y-52419109D01*
X130398580Y-52442829D01*
X130384414Y-52456995D01*
X130369624Y-52469627D01*
X130353414Y-52481404D01*
X130353411Y-52481407D01*
X130323710Y-52517309D01*
X130319777Y-52521631D01*
X128236519Y-54604889D01*
X128175196Y-54638374D01*
X128105504Y-54633390D01*
X128049571Y-54591518D01*
X128041458Y-54579219D01*
X127980655Y-54473905D01*
X127964183Y-54406006D01*
X127987036Y-54339980D01*
X128000356Y-54324232D01*
X130603903Y-51720686D01*
X130641145Y-51695091D01*
X130729730Y-51655651D01*
X130882871Y-51544388D01*
X131009533Y-51403716D01*
X131104179Y-51239784D01*
X131162674Y-51059756D01*
X131181194Y-50883536D01*
X131207778Y-50818924D01*
X131265076Y-50778939D01*
X131304515Y-50772500D01*
X136636204Y-50772500D01*
X136703243Y-50792185D01*
X136748998Y-50844989D01*
X136758942Y-50914147D01*
X136755979Y-50928593D01*
X136726127Y-51039999D01*
X136726128Y-51040000D01*
X138089314Y-51040000D01*
X138077359Y-51051955D01*
X138019835Y-51164852D01*
X138000014Y-51290000D01*
X138019835Y-51415148D01*
X138077359Y-51528045D01*
X138089314Y-51540000D01*
X136726128Y-51540000D01*
X136778730Y-51736317D01*
X136778735Y-51736331D01*
X136834777Y-51856513D01*
X136845269Y-51925590D01*
X136816749Y-51989374D01*
X136759661Y-52026704D01*
X136759774Y-52027049D01*
X136758503Y-52027461D01*
X136758272Y-52027613D01*
X136757142Y-52027903D01*
X136753592Y-52029057D01*
X136580670Y-52106048D01*
X136580665Y-52106051D01*
X136427529Y-52217311D01*
X136300866Y-52357985D01*
X136206221Y-52521915D01*
X136206218Y-52521922D01*
X136148542Y-52699432D01*
X136147726Y-52701944D01*
X136127940Y-52890200D01*
X136147726Y-53078456D01*
X136147727Y-53078459D01*
X136206218Y-53258477D01*
X136206221Y-53258484D01*
X136300867Y-53422416D01*
X136427529Y-53563088D01*
X136580665Y-53674348D01*
X136580667Y-53674349D01*
X136580670Y-53674351D01*
X136627381Y-53695148D01*
X136680618Y-53740398D01*
X136700939Y-53807247D01*
X136700474Y-53819228D01*
X136699532Y-53830001D01*
X136719364Y-54056686D01*
X136719366Y-54056697D01*
X136778258Y-54276488D01*
X136778261Y-54276497D01*
X136874431Y-54482732D01*
X136874432Y-54482734D01*
X137004954Y-54669141D01*
X137165858Y-54830045D01*
X137165861Y-54830047D01*
X137352266Y-54960568D01*
X137410275Y-54987618D01*
X137462714Y-55033791D01*
X137481866Y-55100984D01*
X137461650Y-55167865D01*
X137410275Y-55212382D01*
X137352267Y-55239431D01*
X137352265Y-55239432D01*
X137165858Y-55369954D01*
X137004954Y-55530858D01*
X136874432Y-55717265D01*
X136874431Y-55717267D01*
X136778261Y-55923502D01*
X136778258Y-55923511D01*
X136719366Y-56143302D01*
X136719364Y-56143313D01*
X136699532Y-56369998D01*
X136699532Y-56370001D01*
X136719364Y-56596686D01*
X136719366Y-56596697D01*
X136778258Y-56816488D01*
X136778261Y-56816497D01*
X136874431Y-57022732D01*
X136874432Y-57022734D01*
X137004954Y-57209141D01*
X137165858Y-57370045D01*
X137165861Y-57370047D01*
X137352266Y-57500568D01*
X137410275Y-57527618D01*
X137462714Y-57573791D01*
X137481866Y-57640984D01*
X137461650Y-57707865D01*
X137410275Y-57752382D01*
X137352267Y-57779431D01*
X137352265Y-57779432D01*
X137165858Y-57909954D01*
X137004954Y-58070858D01*
X136874432Y-58257265D01*
X136874431Y-58257267D01*
X136778261Y-58463502D01*
X136778258Y-58463511D01*
X136719366Y-58683302D01*
X136719364Y-58683313D01*
X136699532Y-58909998D01*
X136699532Y-58910001D01*
X136719364Y-59136686D01*
X136719366Y-59136697D01*
X136778258Y-59356488D01*
X136778261Y-59356497D01*
X136874431Y-59562732D01*
X136874432Y-59562734D01*
X137004954Y-59749141D01*
X137165858Y-59910045D01*
X137205068Y-59937500D01*
X137352266Y-60040568D01*
X137410172Y-60067570D01*
X137410275Y-60067618D01*
X137462714Y-60113791D01*
X137481866Y-60180984D01*
X137461650Y-60247865D01*
X137410275Y-60292382D01*
X137352267Y-60319431D01*
X137352265Y-60319432D01*
X137165858Y-60449954D01*
X137004954Y-60610858D01*
X136874432Y-60797265D01*
X136874431Y-60797267D01*
X136778261Y-61003502D01*
X136778258Y-61003511D01*
X136719366Y-61223302D01*
X136719364Y-61223313D01*
X136699532Y-61449998D01*
X136699532Y-61450001D01*
X136719364Y-61676686D01*
X136719366Y-61676697D01*
X136778258Y-61896488D01*
X136778261Y-61896497D01*
X136874431Y-62102732D01*
X136874432Y-62102734D01*
X137004954Y-62289141D01*
X137165858Y-62450045D01*
X137165861Y-62450047D01*
X137352266Y-62580568D01*
X137410275Y-62607618D01*
X137462714Y-62653791D01*
X137481866Y-62720984D01*
X137461650Y-62787865D01*
X137410275Y-62832381D01*
X137399166Y-62837562D01*
X137352267Y-62859431D01*
X137352265Y-62859432D01*
X137165858Y-62989954D01*
X137004954Y-63150858D01*
X136874432Y-63337265D01*
X136874431Y-63337267D01*
X136778261Y-63543502D01*
X136778258Y-63543511D01*
X136719366Y-63763302D01*
X136719364Y-63763313D01*
X136699532Y-63989998D01*
X136699532Y-63990001D01*
X136719364Y-64216686D01*
X136719366Y-64216697D01*
X136778258Y-64436488D01*
X136778261Y-64436497D01*
X136874431Y-64642732D01*
X136874432Y-64642734D01*
X137004954Y-64829141D01*
X137165858Y-64990045D01*
X137165861Y-64990047D01*
X137352266Y-65120568D01*
X137392272Y-65139223D01*
X137410275Y-65147618D01*
X137462714Y-65193791D01*
X137481866Y-65260984D01*
X137461650Y-65327865D01*
X137410275Y-65372381D01*
X137393272Y-65380310D01*
X137352267Y-65399431D01*
X137352265Y-65399432D01*
X137165858Y-65529954D01*
X137004954Y-65690858D01*
X136874432Y-65877265D01*
X136874431Y-65877267D01*
X136778261Y-66083502D01*
X136778258Y-66083511D01*
X136719366Y-66303302D01*
X136719364Y-66303313D01*
X136699532Y-66529998D01*
X136699532Y-66530001D01*
X136719364Y-66756686D01*
X136719366Y-66756697D01*
X136778258Y-66976488D01*
X136778261Y-66976497D01*
X136874431Y-67182732D01*
X136874432Y-67182734D01*
X136975851Y-67327577D01*
X136998178Y-67393784D01*
X136981167Y-67461551D01*
X136930219Y-67509363D01*
X136874276Y-67522700D01*
X119216543Y-67522700D01*
X119200922Y-67520975D01*
X119200895Y-67521261D01*
X119193133Y-67520526D01*
X119123972Y-67522700D01*
X119094449Y-67522700D01*
X119087578Y-67523567D01*
X119081759Y-67524025D01*
X119035174Y-67525489D01*
X119035168Y-67525490D01*
X119015926Y-67531080D01*
X118996887Y-67535023D01*
X118977017Y-67537534D01*
X118977003Y-67537537D01*
X118933683Y-67554688D01*
X118928158Y-67556580D01*
X118883413Y-67569580D01*
X118883410Y-67569581D01*
X118866166Y-67579779D01*
X118848705Y-67588333D01*
X118830074Y-67595710D01*
X118830062Y-67595717D01*
X118792370Y-67623102D01*
X118787487Y-67626309D01*
X118747380Y-67650029D01*
X118733214Y-67664195D01*
X118718424Y-67676827D01*
X118702214Y-67688604D01*
X118702211Y-67688607D01*
X118672510Y-67724509D01*
X118668577Y-67728831D01*
X117424021Y-68973386D01*
X117362698Y-69006871D01*
X117293006Y-69001887D01*
X117237073Y-68960015D01*
X117216565Y-68917798D01*
X117171741Y-68750511D01*
X117171738Y-68750502D01*
X117160571Y-68726554D01*
X117075568Y-68544266D01*
X116986643Y-68417267D01*
X116945048Y-68357862D01*
X116933516Y-68346330D01*
X116920062Y-68332876D01*
X116886578Y-68271556D01*
X116891561Y-68201864D01*
X116920061Y-68157517D01*
X119865388Y-65212191D01*
X119877642Y-65202376D01*
X119877459Y-65202154D01*
X119883466Y-65197182D01*
X119883477Y-65197176D01*
X119914375Y-65164272D01*
X119930827Y-65146754D01*
X119941271Y-65136308D01*
X119951720Y-65125861D01*
X119955979Y-65120368D01*
X119959752Y-65115951D01*
X119991662Y-65081972D01*
X120001315Y-65064410D01*
X120011989Y-65048160D01*
X120024273Y-65032326D01*
X120042780Y-64989557D01*
X120045349Y-64984314D01*
X120050974Y-64974083D01*
X120067797Y-64943482D01*
X120072777Y-64924081D01*
X120079078Y-64905678D01*
X120087038Y-64887286D01*
X120094330Y-64841239D01*
X120095511Y-64835542D01*
X120107100Y-64790409D01*
X120107100Y-64770373D01*
X120108627Y-64750972D01*
X120111760Y-64731194D01*
X120107375Y-64684805D01*
X120107100Y-64678967D01*
X120107100Y-60164187D01*
X120126785Y-60097148D01*
X120138950Y-60081215D01*
X120157491Y-60060622D01*
X120214133Y-59997716D01*
X120308779Y-59833784D01*
X120367274Y-59653756D01*
X120387060Y-59465500D01*
X120367274Y-59277244D01*
X120308779Y-59097216D01*
X120214133Y-58933284D01*
X120087471Y-58792612D01*
X120087470Y-58792611D01*
X119934334Y-58681351D01*
X119934329Y-58681348D01*
X119761407Y-58604357D01*
X119761402Y-58604355D01*
X119615601Y-58573365D01*
X119576246Y-58565000D01*
X119386954Y-58565000D01*
X119354497Y-58571898D01*
X119201797Y-58604355D01*
X119201792Y-58604357D01*
X119028870Y-58681348D01*
X119028865Y-58681351D01*
X118875729Y-58792611D01*
X118749066Y-58933285D01*
X118654421Y-59097215D01*
X118654418Y-59097222D01*
X118596986Y-59273982D01*
X118595926Y-59277244D01*
X118576140Y-59465500D01*
X118595926Y-59653756D01*
X118595927Y-59653759D01*
X118654418Y-59833777D01*
X118654421Y-59833784D01*
X118749067Y-59997716D01*
X118754542Y-60003796D01*
X118824250Y-60081215D01*
X118854480Y-60144206D01*
X118856100Y-60164187D01*
X118856100Y-64400936D01*
X118836415Y-64467975D01*
X118819781Y-64488617D01*
X117273476Y-66034921D01*
X117212153Y-66068406D01*
X117142461Y-66063422D01*
X117086528Y-66021550D01*
X117078803Y-66008652D01*
X117078276Y-66008957D01*
X117075567Y-66004265D01*
X117068480Y-65994144D01*
X116945047Y-65817861D01*
X116945045Y-65817858D01*
X116784141Y-65656954D01*
X116597734Y-65526432D01*
X116597728Y-65526429D01*
X116539725Y-65499382D01*
X116487285Y-65453210D01*
X116468133Y-65386017D01*
X116488348Y-65319135D01*
X116539725Y-65274618D01*
X116551166Y-65269283D01*
X116597734Y-65247568D01*
X116784139Y-65117047D01*
X116945047Y-64956139D01*
X117075568Y-64769734D01*
X117171739Y-64563496D01*
X117230635Y-64343692D01*
X117250069Y-64121566D01*
X117250468Y-64117001D01*
X117250468Y-64116998D01*
X117236523Y-63957609D01*
X117230635Y-63890308D01*
X117171739Y-63670504D01*
X117075568Y-63464266D01*
X116945047Y-63277861D01*
X116945045Y-63277858D01*
X116784141Y-63116954D01*
X116597734Y-62986432D01*
X116597728Y-62986429D01*
X116539725Y-62959382D01*
X116487285Y-62913210D01*
X116468133Y-62846017D01*
X116488348Y-62779135D01*
X116539725Y-62734618D01*
X116597734Y-62707568D01*
X116784139Y-62577047D01*
X116945047Y-62416139D01*
X117075568Y-62229734D01*
X117171739Y-62023496D01*
X117230635Y-61803692D01*
X117250468Y-61577000D01*
X117230635Y-61350308D01*
X117171739Y-61130504D01*
X117075568Y-60924266D01*
X116945047Y-60737861D01*
X116945045Y-60737858D01*
X116784141Y-60576954D01*
X116597734Y-60446432D01*
X116597728Y-60446429D01*
X116546412Y-60422500D01*
X116539724Y-60419381D01*
X116487285Y-60373210D01*
X116468133Y-60306017D01*
X116488348Y-60239135D01*
X116539725Y-60194618D01*
X116597734Y-60167568D01*
X116784139Y-60037047D01*
X116945047Y-59876139D01*
X117075568Y-59689734D01*
X117171739Y-59483496D01*
X117230635Y-59263692D01*
X117250468Y-59037000D01*
X117230635Y-58810308D01*
X117171739Y-58590504D01*
X117075568Y-58384266D01*
X116952057Y-58207872D01*
X116945045Y-58197858D01*
X116784141Y-58036954D01*
X116597734Y-57906432D01*
X116597728Y-57906429D01*
X116539725Y-57879382D01*
X116487285Y-57833210D01*
X116468133Y-57766017D01*
X116488348Y-57699135D01*
X116539725Y-57654618D01*
X116543806Y-57652715D01*
X116597734Y-57627568D01*
X116784139Y-57497047D01*
X116945047Y-57336139D01*
X117075568Y-57149734D01*
X117171739Y-56943496D01*
X117230635Y-56723692D01*
X117250468Y-56497000D01*
X117230635Y-56270308D01*
X117171739Y-56050504D01*
X117084560Y-55863551D01*
X117074069Y-55794475D01*
X117102589Y-55730691D01*
X117153321Y-55697514D01*
X117152538Y-55695536D01*
X117159792Y-55692664D01*
X117203122Y-55675507D01*
X117208646Y-55673617D01*
X117220256Y-55670244D01*
X117253390Y-55660618D01*
X117270629Y-55650422D01*
X117288103Y-55641862D01*
X117306727Y-55634488D01*
X117306727Y-55634487D01*
X117306732Y-55634486D01*
X117344449Y-55607082D01*
X117349305Y-55603892D01*
X117389420Y-55580170D01*
X117403589Y-55565999D01*
X117418379Y-55553368D01*
X117434587Y-55541594D01*
X117464299Y-55505676D01*
X117468212Y-55501376D01*
X118493787Y-54475802D01*
X118506042Y-54465986D01*
X118505859Y-54465764D01*
X118511866Y-54460792D01*
X118511877Y-54460786D01*
X118554147Y-54415773D01*
X118559227Y-54410364D01*
X118569671Y-54399918D01*
X118580120Y-54389471D01*
X118584379Y-54383978D01*
X118588152Y-54379561D01*
X118620062Y-54345582D01*
X118629713Y-54328024D01*
X118640396Y-54311761D01*
X118652673Y-54295936D01*
X118671185Y-54253153D01*
X118673738Y-54247941D01*
X118696197Y-54207092D01*
X118701180Y-54187680D01*
X118707481Y-54169280D01*
X118715437Y-54150896D01*
X118722729Y-54104852D01*
X118723906Y-54099171D01*
X118735500Y-54054019D01*
X118735500Y-54033983D01*
X118737027Y-54014582D01*
X118740160Y-53994804D01*
X118735775Y-53948415D01*
X118735500Y-53942577D01*
X118735500Y-52380452D01*
X118755185Y-52313413D01*
X118771819Y-52292771D01*
X120255771Y-50808819D01*
X120317094Y-50775334D01*
X120343452Y-50772500D01*
X129249485Y-50772500D01*
X129316524Y-50792185D01*
G37*
%TD.AperFunction*%
%TA.AperFunction,Conductor*%
G36*
X146275000Y-50974314D02*
G01*
X146263045Y-50962359D01*
X146150148Y-50904835D01*
X146056481Y-50890000D01*
X145993519Y-50890000D01*
X145899852Y-50904835D01*
X145786955Y-50962359D01*
X145775000Y-50974314D01*
X145775000Y-49065686D01*
X145786955Y-49077641D01*
X145899852Y-49135165D01*
X145993519Y-49150000D01*
X146056481Y-49150000D01*
X146150148Y-49135165D01*
X146263045Y-49077641D01*
X146275000Y-49065686D01*
X146275000Y-50974314D01*
G37*
%TD.AperFunction*%
%TD*%
M02*
