%TF.GenerationSoftware,KiCad,Pcbnew,7.0.8*%
%TF.CreationDate,2023-10-14T11:25:40+01:00*%
%TF.ProjectId,v0a,7630612e-6b69-4636-9164-5f7063625858,rev?*%
%TF.SameCoordinates,Original*%
%TF.FileFunction,Legend,Bot*%
%TF.FilePolarity,Positive*%
%FSLAX46Y46*%
G04 Gerber Fmt 4.6, Leading zero omitted, Abs format (unit mm)*
G04 Created by KiCad (PCBNEW 7.0.8) date 2023-10-14 11:25:40*
%MOMM*%
%LPD*%
G01*
G04 APERTURE LIST*
%ADD10C,0.150000*%
G04 APERTURE END LIST*
D10*
X96141982Y-78070152D02*
X96141982Y-78736819D01*
X96332458Y-77689200D02*
X96522935Y-78403485D01*
X96522935Y-78403485D02*
X96027696Y-78403485D01*
X95684839Y-78736819D02*
X95532458Y-78736819D01*
X95532458Y-78736819D02*
X95456268Y-78689200D01*
X95456268Y-78689200D02*
X95418172Y-78641580D01*
X95418172Y-78641580D02*
X95341982Y-78498723D01*
X95341982Y-78498723D02*
X95303887Y-78308247D01*
X95303887Y-78308247D02*
X95303887Y-77927295D01*
X95303887Y-77927295D02*
X95341982Y-77832057D01*
X95341982Y-77832057D02*
X95380077Y-77784438D01*
X95380077Y-77784438D02*
X95456268Y-77736819D01*
X95456268Y-77736819D02*
X95608649Y-77736819D01*
X95608649Y-77736819D02*
X95684839Y-77784438D01*
X95684839Y-77784438D02*
X95722934Y-77832057D01*
X95722934Y-77832057D02*
X95761030Y-77927295D01*
X95761030Y-77927295D02*
X95761030Y-78165390D01*
X95761030Y-78165390D02*
X95722934Y-78260628D01*
X95722934Y-78260628D02*
X95684839Y-78308247D01*
X95684839Y-78308247D02*
X95608649Y-78355866D01*
X95608649Y-78355866D02*
X95456268Y-78355866D01*
X95456268Y-78355866D02*
X95380077Y-78308247D01*
X95380077Y-78308247D02*
X95341982Y-78260628D01*
X95341982Y-78260628D02*
X95303887Y-78165390D01*
X158676792Y-78736819D02*
X159133935Y-78736819D01*
X158905363Y-78736819D02*
X158905363Y-77736819D01*
X158905363Y-77736819D02*
X158981554Y-77879676D01*
X158981554Y-77879676D02*
X159057744Y-77974914D01*
X159057744Y-77974914D02*
X159133935Y-78022533D01*
M02*
